G04 #@! TF.GenerationSoftware,KiCad,Pcbnew,(5.1.9)-1*
G04 #@! TF.CreationDate,2021-03-03T07:25:27+02:00*
G04 #@! TF.ProjectId,reverse,72657665-7273-4652-9e6b-696361645f70,rev?*
G04 #@! TF.SameCoordinates,Original*
G04 #@! TF.FileFunction,Copper,L1,Top*
G04 #@! TF.FilePolarity,Positive*
%FSLAX46Y46*%
G04 Gerber Fmt 4.6, Leading zero omitted, Abs format (unit mm)*
G04 Created by KiCad (PCBNEW (5.1.9)-1) date 2021-03-03 07:25:27*
%MOMM*%
%LPD*%
G01*
G04 APERTURE LIST*
G04 #@! TA.AperFunction,SMDPad,CuDef*
%ADD10C,0.500000*%
G04 #@! TD*
G04 #@! TA.AperFunction,SMDPad,CuDef*
%ADD11R,0.400000X0.510000*%
G04 #@! TD*
G04 #@! TA.AperFunction,SMDPad,CuDef*
%ADD12C,0.100000*%
G04 #@! TD*
G04 #@! TA.AperFunction,SMDPad,CuDef*
%ADD13R,1.000000X1.000000*%
G04 #@! TD*
G04 #@! TA.AperFunction,SMDPad,CuDef*
%ADD14R,1.550000X1.300000*%
G04 #@! TD*
G04 #@! TA.AperFunction,ComponentPad*
%ADD15O,1.700000X1.700000*%
G04 #@! TD*
G04 #@! TA.AperFunction,ComponentPad*
%ADD16R,1.700000X1.700000*%
G04 #@! TD*
G04 #@! TA.AperFunction,ViaPad*
%ADD17C,0.600000*%
G04 #@! TD*
G04 #@! TA.AperFunction,Conductor*
%ADD18C,0.250000*%
G04 #@! TD*
G04 #@! TA.AperFunction,Conductor*
%ADD19C,0.300000*%
G04 #@! TD*
G04 #@! TA.AperFunction,Conductor*
%ADD20C,0.200000*%
G04 #@! TD*
G04 #@! TA.AperFunction,Conductor*
%ADD21C,0.100000*%
G04 #@! TD*
G04 APERTURE END LIST*
D10*
X127100000Y-51200000D03*
X159100000Y-74200000D03*
X158500000Y-51400000D03*
D11*
X149250000Y-60900000D03*
X148250000Y-60900000D03*
X148750000Y-59600000D03*
G04 #@! TA.AperFunction,SMDPad,CuDef*
D12*
G36*
X139724693Y-57151201D02*
G01*
X139736418Y-57154758D01*
X139747223Y-57160533D01*
X139756694Y-57168306D01*
X139764467Y-57177777D01*
X139770242Y-57188582D01*
X139773799Y-57200307D01*
X139775000Y-57212500D01*
X139775000Y-57887500D01*
X139773799Y-57899693D01*
X139770242Y-57911418D01*
X139764467Y-57922223D01*
X139756694Y-57931694D01*
X139747223Y-57939467D01*
X139736418Y-57945242D01*
X139724693Y-57948799D01*
X139712500Y-57950000D01*
X139650888Y-57950000D01*
X139638695Y-57948799D01*
X139626970Y-57945242D01*
X139616165Y-57939467D01*
X139606694Y-57931694D01*
X139543306Y-57868306D01*
X139535533Y-57858835D01*
X139529758Y-57848030D01*
X139526201Y-57836305D01*
X139525000Y-57824112D01*
X139525000Y-57212500D01*
X139526201Y-57200307D01*
X139529758Y-57188582D01*
X139535533Y-57177777D01*
X139543306Y-57168306D01*
X139552777Y-57160533D01*
X139563582Y-57154758D01*
X139575307Y-57151201D01*
X139587500Y-57150000D01*
X139712500Y-57150000D01*
X139724693Y-57151201D01*
G37*
G04 #@! TD.AperFunction*
G04 #@! TA.AperFunction,SMDPad,CuDef*
G36*
G01*
X139975000Y-57887500D02*
X139975000Y-57212500D01*
G75*
G02*
X140037500Y-57150000I62500J0D01*
G01*
X140162500Y-57150000D01*
G75*
G02*
X140225000Y-57212500I0J-62500D01*
G01*
X140225000Y-57887500D01*
G75*
G02*
X140162500Y-57950000I-62500J0D01*
G01*
X140037500Y-57950000D01*
G75*
G02*
X139975000Y-57887500I0J62500D01*
G01*
G37*
G04 #@! TD.AperFunction*
G04 #@! TA.AperFunction,SMDPad,CuDef*
G36*
G01*
X140425000Y-57887500D02*
X140425000Y-57212500D01*
G75*
G02*
X140487500Y-57150000I62500J0D01*
G01*
X140612500Y-57150000D01*
G75*
G02*
X140675000Y-57212500I0J-62500D01*
G01*
X140675000Y-57887500D01*
G75*
G02*
X140612500Y-57950000I-62500J0D01*
G01*
X140487500Y-57950000D01*
G75*
G02*
X140425000Y-57887500I0J62500D01*
G01*
G37*
G04 #@! TD.AperFunction*
G04 #@! TA.AperFunction,SMDPad,CuDef*
G36*
G01*
X140875000Y-57887500D02*
X140875000Y-57212500D01*
G75*
G02*
X140937500Y-57150000I62500J0D01*
G01*
X141062500Y-57150000D01*
G75*
G02*
X141125000Y-57212500I0J-62500D01*
G01*
X141125000Y-57887500D01*
G75*
G02*
X141062500Y-57950000I-62500J0D01*
G01*
X140937500Y-57950000D01*
G75*
G02*
X140875000Y-57887500I0J62500D01*
G01*
G37*
G04 #@! TD.AperFunction*
G04 #@! TA.AperFunction,SMDPad,CuDef*
G36*
G01*
X141325000Y-57887500D02*
X141325000Y-57212500D01*
G75*
G02*
X141387500Y-57150000I62500J0D01*
G01*
X141512500Y-57150000D01*
G75*
G02*
X141575000Y-57212500I0J-62500D01*
G01*
X141575000Y-57887500D01*
G75*
G02*
X141512500Y-57950000I-62500J0D01*
G01*
X141387500Y-57950000D01*
G75*
G02*
X141325000Y-57887500I0J62500D01*
G01*
G37*
G04 #@! TD.AperFunction*
G04 #@! TA.AperFunction,SMDPad,CuDef*
G36*
G01*
X141775000Y-57887500D02*
X141775000Y-57212500D01*
G75*
G02*
X141837500Y-57150000I62500J0D01*
G01*
X141962500Y-57150000D01*
G75*
G02*
X142025000Y-57212500I0J-62500D01*
G01*
X142025000Y-57887500D01*
G75*
G02*
X141962500Y-57950000I-62500J0D01*
G01*
X141837500Y-57950000D01*
G75*
G02*
X141775000Y-57887500I0J62500D01*
G01*
G37*
G04 #@! TD.AperFunction*
G04 #@! TA.AperFunction,SMDPad,CuDef*
G36*
X142424693Y-57151201D02*
G01*
X142436418Y-57154758D01*
X142447223Y-57160533D01*
X142456694Y-57168306D01*
X142464467Y-57177777D01*
X142470242Y-57188582D01*
X142473799Y-57200307D01*
X142475000Y-57212500D01*
X142475000Y-57824112D01*
X142473799Y-57836305D01*
X142470242Y-57848030D01*
X142464467Y-57858835D01*
X142456694Y-57868306D01*
X142393306Y-57931694D01*
X142383835Y-57939467D01*
X142373030Y-57945242D01*
X142361305Y-57948799D01*
X142349112Y-57950000D01*
X142287500Y-57950000D01*
X142275307Y-57948799D01*
X142263582Y-57945242D01*
X142252777Y-57939467D01*
X142243306Y-57931694D01*
X142235533Y-57922223D01*
X142229758Y-57911418D01*
X142226201Y-57899693D01*
X142225000Y-57887500D01*
X142225000Y-57212500D01*
X142226201Y-57200307D01*
X142229758Y-57188582D01*
X142235533Y-57177777D01*
X142243306Y-57168306D01*
X142252777Y-57160533D01*
X142263582Y-57154758D01*
X142275307Y-57151201D01*
X142287500Y-57150000D01*
X142412500Y-57150000D01*
X142424693Y-57151201D01*
G37*
G04 #@! TD.AperFunction*
G04 #@! TA.AperFunction,SMDPad,CuDef*
G36*
X143299693Y-58026201D02*
G01*
X143311418Y-58029758D01*
X143322223Y-58035533D01*
X143331694Y-58043306D01*
X143339467Y-58052777D01*
X143345242Y-58063582D01*
X143348799Y-58075307D01*
X143350000Y-58087500D01*
X143350000Y-58212500D01*
X143348799Y-58224693D01*
X143345242Y-58236418D01*
X143339467Y-58247223D01*
X143331694Y-58256694D01*
X143322223Y-58264467D01*
X143311418Y-58270242D01*
X143299693Y-58273799D01*
X143287500Y-58275000D01*
X142612500Y-58275000D01*
X142600307Y-58273799D01*
X142588582Y-58270242D01*
X142577777Y-58264467D01*
X142568306Y-58256694D01*
X142560533Y-58247223D01*
X142554758Y-58236418D01*
X142551201Y-58224693D01*
X142550000Y-58212500D01*
X142550000Y-58150888D01*
X142551201Y-58138695D01*
X142554758Y-58126970D01*
X142560533Y-58116165D01*
X142568306Y-58106694D01*
X142631694Y-58043306D01*
X142641165Y-58035533D01*
X142651970Y-58029758D01*
X142663695Y-58026201D01*
X142675888Y-58025000D01*
X143287500Y-58025000D01*
X143299693Y-58026201D01*
G37*
G04 #@! TD.AperFunction*
G04 #@! TA.AperFunction,SMDPad,CuDef*
G36*
G01*
X142550000Y-58662500D02*
X142550000Y-58537500D01*
G75*
G02*
X142612500Y-58475000I62500J0D01*
G01*
X143287500Y-58475000D01*
G75*
G02*
X143350000Y-58537500I0J-62500D01*
G01*
X143350000Y-58662500D01*
G75*
G02*
X143287500Y-58725000I-62500J0D01*
G01*
X142612500Y-58725000D01*
G75*
G02*
X142550000Y-58662500I0J62500D01*
G01*
G37*
G04 #@! TD.AperFunction*
G04 #@! TA.AperFunction,SMDPad,CuDef*
G36*
G01*
X142550000Y-59112500D02*
X142550000Y-58987500D01*
G75*
G02*
X142612500Y-58925000I62500J0D01*
G01*
X143287500Y-58925000D01*
G75*
G02*
X143350000Y-58987500I0J-62500D01*
G01*
X143350000Y-59112500D01*
G75*
G02*
X143287500Y-59175000I-62500J0D01*
G01*
X142612500Y-59175000D01*
G75*
G02*
X142550000Y-59112500I0J62500D01*
G01*
G37*
G04 #@! TD.AperFunction*
G04 #@! TA.AperFunction,SMDPad,CuDef*
G36*
G01*
X142550000Y-59562500D02*
X142550000Y-59437500D01*
G75*
G02*
X142612500Y-59375000I62500J0D01*
G01*
X143287500Y-59375000D01*
G75*
G02*
X143350000Y-59437500I0J-62500D01*
G01*
X143350000Y-59562500D01*
G75*
G02*
X143287500Y-59625000I-62500J0D01*
G01*
X142612500Y-59625000D01*
G75*
G02*
X142550000Y-59562500I0J62500D01*
G01*
G37*
G04 #@! TD.AperFunction*
G04 #@! TA.AperFunction,SMDPad,CuDef*
G36*
G01*
X142550000Y-60012500D02*
X142550000Y-59887500D01*
G75*
G02*
X142612500Y-59825000I62500J0D01*
G01*
X143287500Y-59825000D01*
G75*
G02*
X143350000Y-59887500I0J-62500D01*
G01*
X143350000Y-60012500D01*
G75*
G02*
X143287500Y-60075000I-62500J0D01*
G01*
X142612500Y-60075000D01*
G75*
G02*
X142550000Y-60012500I0J62500D01*
G01*
G37*
G04 #@! TD.AperFunction*
G04 #@! TA.AperFunction,SMDPad,CuDef*
G36*
G01*
X142550000Y-60462500D02*
X142550000Y-60337500D01*
G75*
G02*
X142612500Y-60275000I62500J0D01*
G01*
X143287500Y-60275000D01*
G75*
G02*
X143350000Y-60337500I0J-62500D01*
G01*
X143350000Y-60462500D01*
G75*
G02*
X143287500Y-60525000I-62500J0D01*
G01*
X142612500Y-60525000D01*
G75*
G02*
X142550000Y-60462500I0J62500D01*
G01*
G37*
G04 #@! TD.AperFunction*
G04 #@! TA.AperFunction,SMDPad,CuDef*
G36*
X143299693Y-60726201D02*
G01*
X143311418Y-60729758D01*
X143322223Y-60735533D01*
X143331694Y-60743306D01*
X143339467Y-60752777D01*
X143345242Y-60763582D01*
X143348799Y-60775307D01*
X143350000Y-60787500D01*
X143350000Y-60912500D01*
X143348799Y-60924693D01*
X143345242Y-60936418D01*
X143339467Y-60947223D01*
X143331694Y-60956694D01*
X143322223Y-60964467D01*
X143311418Y-60970242D01*
X143299693Y-60973799D01*
X143287500Y-60975000D01*
X142675888Y-60975000D01*
X142663695Y-60973799D01*
X142651970Y-60970242D01*
X142641165Y-60964467D01*
X142631694Y-60956694D01*
X142568306Y-60893306D01*
X142560533Y-60883835D01*
X142554758Y-60873030D01*
X142551201Y-60861305D01*
X142550000Y-60849112D01*
X142550000Y-60787500D01*
X142551201Y-60775307D01*
X142554758Y-60763582D01*
X142560533Y-60752777D01*
X142568306Y-60743306D01*
X142577777Y-60735533D01*
X142588582Y-60729758D01*
X142600307Y-60726201D01*
X142612500Y-60725000D01*
X143287500Y-60725000D01*
X143299693Y-60726201D01*
G37*
G04 #@! TD.AperFunction*
G04 #@! TA.AperFunction,SMDPad,CuDef*
G36*
X142361305Y-61051201D02*
G01*
X142373030Y-61054758D01*
X142383835Y-61060533D01*
X142393306Y-61068306D01*
X142456694Y-61131694D01*
X142464467Y-61141165D01*
X142470242Y-61151970D01*
X142473799Y-61163695D01*
X142475000Y-61175888D01*
X142475000Y-61787500D01*
X142473799Y-61799693D01*
X142470242Y-61811418D01*
X142464467Y-61822223D01*
X142456694Y-61831694D01*
X142447223Y-61839467D01*
X142436418Y-61845242D01*
X142424693Y-61848799D01*
X142412500Y-61850000D01*
X142287500Y-61850000D01*
X142275307Y-61848799D01*
X142263582Y-61845242D01*
X142252777Y-61839467D01*
X142243306Y-61831694D01*
X142235533Y-61822223D01*
X142229758Y-61811418D01*
X142226201Y-61799693D01*
X142225000Y-61787500D01*
X142225000Y-61112500D01*
X142226201Y-61100307D01*
X142229758Y-61088582D01*
X142235533Y-61077777D01*
X142243306Y-61068306D01*
X142252777Y-61060533D01*
X142263582Y-61054758D01*
X142275307Y-61051201D01*
X142287500Y-61050000D01*
X142349112Y-61050000D01*
X142361305Y-61051201D01*
G37*
G04 #@! TD.AperFunction*
G04 #@! TA.AperFunction,SMDPad,CuDef*
G36*
G01*
X141775000Y-61787500D02*
X141775000Y-61112500D01*
G75*
G02*
X141837500Y-61050000I62500J0D01*
G01*
X141962500Y-61050000D01*
G75*
G02*
X142025000Y-61112500I0J-62500D01*
G01*
X142025000Y-61787500D01*
G75*
G02*
X141962500Y-61850000I-62500J0D01*
G01*
X141837500Y-61850000D01*
G75*
G02*
X141775000Y-61787500I0J62500D01*
G01*
G37*
G04 #@! TD.AperFunction*
G04 #@! TA.AperFunction,SMDPad,CuDef*
G36*
G01*
X141325000Y-61787500D02*
X141325000Y-61112500D01*
G75*
G02*
X141387500Y-61050000I62500J0D01*
G01*
X141512500Y-61050000D01*
G75*
G02*
X141575000Y-61112500I0J-62500D01*
G01*
X141575000Y-61787500D01*
G75*
G02*
X141512500Y-61850000I-62500J0D01*
G01*
X141387500Y-61850000D01*
G75*
G02*
X141325000Y-61787500I0J62500D01*
G01*
G37*
G04 #@! TD.AperFunction*
G04 #@! TA.AperFunction,SMDPad,CuDef*
G36*
G01*
X140875000Y-61787500D02*
X140875000Y-61112500D01*
G75*
G02*
X140937500Y-61050000I62500J0D01*
G01*
X141062500Y-61050000D01*
G75*
G02*
X141125000Y-61112500I0J-62500D01*
G01*
X141125000Y-61787500D01*
G75*
G02*
X141062500Y-61850000I-62500J0D01*
G01*
X140937500Y-61850000D01*
G75*
G02*
X140875000Y-61787500I0J62500D01*
G01*
G37*
G04 #@! TD.AperFunction*
G04 #@! TA.AperFunction,SMDPad,CuDef*
G36*
G01*
X140425000Y-61787500D02*
X140425000Y-61112500D01*
G75*
G02*
X140487500Y-61050000I62500J0D01*
G01*
X140612500Y-61050000D01*
G75*
G02*
X140675000Y-61112500I0J-62500D01*
G01*
X140675000Y-61787500D01*
G75*
G02*
X140612500Y-61850000I-62500J0D01*
G01*
X140487500Y-61850000D01*
G75*
G02*
X140425000Y-61787500I0J62500D01*
G01*
G37*
G04 #@! TD.AperFunction*
G04 #@! TA.AperFunction,SMDPad,CuDef*
G36*
G01*
X139975000Y-61787500D02*
X139975000Y-61112500D01*
G75*
G02*
X140037500Y-61050000I62500J0D01*
G01*
X140162500Y-61050000D01*
G75*
G02*
X140225000Y-61112500I0J-62500D01*
G01*
X140225000Y-61787500D01*
G75*
G02*
X140162500Y-61850000I-62500J0D01*
G01*
X140037500Y-61850000D01*
G75*
G02*
X139975000Y-61787500I0J62500D01*
G01*
G37*
G04 #@! TD.AperFunction*
G04 #@! TA.AperFunction,SMDPad,CuDef*
G36*
X139724693Y-61051201D02*
G01*
X139736418Y-61054758D01*
X139747223Y-61060533D01*
X139756694Y-61068306D01*
X139764467Y-61077777D01*
X139770242Y-61088582D01*
X139773799Y-61100307D01*
X139775000Y-61112500D01*
X139775000Y-61787500D01*
X139773799Y-61799693D01*
X139770242Y-61811418D01*
X139764467Y-61822223D01*
X139756694Y-61831694D01*
X139747223Y-61839467D01*
X139736418Y-61845242D01*
X139724693Y-61848799D01*
X139712500Y-61850000D01*
X139587500Y-61850000D01*
X139575307Y-61848799D01*
X139563582Y-61845242D01*
X139552777Y-61839467D01*
X139543306Y-61831694D01*
X139535533Y-61822223D01*
X139529758Y-61811418D01*
X139526201Y-61799693D01*
X139525000Y-61787500D01*
X139525000Y-61175888D01*
X139526201Y-61163695D01*
X139529758Y-61151970D01*
X139535533Y-61141165D01*
X139543306Y-61131694D01*
X139606694Y-61068306D01*
X139616165Y-61060533D01*
X139626970Y-61054758D01*
X139638695Y-61051201D01*
X139650888Y-61050000D01*
X139712500Y-61050000D01*
X139724693Y-61051201D01*
G37*
G04 #@! TD.AperFunction*
G04 #@! TA.AperFunction,SMDPad,CuDef*
G36*
X139399693Y-60726201D02*
G01*
X139411418Y-60729758D01*
X139422223Y-60735533D01*
X139431694Y-60743306D01*
X139439467Y-60752777D01*
X139445242Y-60763582D01*
X139448799Y-60775307D01*
X139450000Y-60787500D01*
X139450000Y-60849112D01*
X139448799Y-60861305D01*
X139445242Y-60873030D01*
X139439467Y-60883835D01*
X139431694Y-60893306D01*
X139368306Y-60956694D01*
X139358835Y-60964467D01*
X139348030Y-60970242D01*
X139336305Y-60973799D01*
X139324112Y-60975000D01*
X138712500Y-60975000D01*
X138700307Y-60973799D01*
X138688582Y-60970242D01*
X138677777Y-60964467D01*
X138668306Y-60956694D01*
X138660533Y-60947223D01*
X138654758Y-60936418D01*
X138651201Y-60924693D01*
X138650000Y-60912500D01*
X138650000Y-60787500D01*
X138651201Y-60775307D01*
X138654758Y-60763582D01*
X138660533Y-60752777D01*
X138668306Y-60743306D01*
X138677777Y-60735533D01*
X138688582Y-60729758D01*
X138700307Y-60726201D01*
X138712500Y-60725000D01*
X139387500Y-60725000D01*
X139399693Y-60726201D01*
G37*
G04 #@! TD.AperFunction*
G04 #@! TA.AperFunction,SMDPad,CuDef*
G36*
G01*
X138650000Y-60462500D02*
X138650000Y-60337500D01*
G75*
G02*
X138712500Y-60275000I62500J0D01*
G01*
X139387500Y-60275000D01*
G75*
G02*
X139450000Y-60337500I0J-62500D01*
G01*
X139450000Y-60462500D01*
G75*
G02*
X139387500Y-60525000I-62500J0D01*
G01*
X138712500Y-60525000D01*
G75*
G02*
X138650000Y-60462500I0J62500D01*
G01*
G37*
G04 #@! TD.AperFunction*
G04 #@! TA.AperFunction,SMDPad,CuDef*
G36*
G01*
X138650000Y-60012500D02*
X138650000Y-59887500D01*
G75*
G02*
X138712500Y-59825000I62500J0D01*
G01*
X139387500Y-59825000D01*
G75*
G02*
X139450000Y-59887500I0J-62500D01*
G01*
X139450000Y-60012500D01*
G75*
G02*
X139387500Y-60075000I-62500J0D01*
G01*
X138712500Y-60075000D01*
G75*
G02*
X138650000Y-60012500I0J62500D01*
G01*
G37*
G04 #@! TD.AperFunction*
G04 #@! TA.AperFunction,SMDPad,CuDef*
G36*
G01*
X138650000Y-59562500D02*
X138650000Y-59437500D01*
G75*
G02*
X138712500Y-59375000I62500J0D01*
G01*
X139387500Y-59375000D01*
G75*
G02*
X139450000Y-59437500I0J-62500D01*
G01*
X139450000Y-59562500D01*
G75*
G02*
X139387500Y-59625000I-62500J0D01*
G01*
X138712500Y-59625000D01*
G75*
G02*
X138650000Y-59562500I0J62500D01*
G01*
G37*
G04 #@! TD.AperFunction*
G04 #@! TA.AperFunction,SMDPad,CuDef*
G36*
G01*
X138650000Y-59112500D02*
X138650000Y-58987500D01*
G75*
G02*
X138712500Y-58925000I62500J0D01*
G01*
X139387500Y-58925000D01*
G75*
G02*
X139450000Y-58987500I0J-62500D01*
G01*
X139450000Y-59112500D01*
G75*
G02*
X139387500Y-59175000I-62500J0D01*
G01*
X138712500Y-59175000D01*
G75*
G02*
X138650000Y-59112500I0J62500D01*
G01*
G37*
G04 #@! TD.AperFunction*
G04 #@! TA.AperFunction,SMDPad,CuDef*
G36*
G01*
X138650000Y-58662500D02*
X138650000Y-58537500D01*
G75*
G02*
X138712500Y-58475000I62500J0D01*
G01*
X139387500Y-58475000D01*
G75*
G02*
X139450000Y-58537500I0J-62500D01*
G01*
X139450000Y-58662500D01*
G75*
G02*
X139387500Y-58725000I-62500J0D01*
G01*
X138712500Y-58725000D01*
G75*
G02*
X138650000Y-58662500I0J62500D01*
G01*
G37*
G04 #@! TD.AperFunction*
G04 #@! TA.AperFunction,SMDPad,CuDef*
G36*
X139336305Y-58026201D02*
G01*
X139348030Y-58029758D01*
X139358835Y-58035533D01*
X139368306Y-58043306D01*
X139431694Y-58106694D01*
X139439467Y-58116165D01*
X139445242Y-58126970D01*
X139448799Y-58138695D01*
X139450000Y-58150888D01*
X139450000Y-58212500D01*
X139448799Y-58224693D01*
X139445242Y-58236418D01*
X139439467Y-58247223D01*
X139431694Y-58256694D01*
X139422223Y-58264467D01*
X139411418Y-58270242D01*
X139399693Y-58273799D01*
X139387500Y-58275000D01*
X138712500Y-58275000D01*
X138700307Y-58273799D01*
X138688582Y-58270242D01*
X138677777Y-58264467D01*
X138668306Y-58256694D01*
X138660533Y-58247223D01*
X138654758Y-58236418D01*
X138651201Y-58224693D01*
X138650000Y-58212500D01*
X138650000Y-58087500D01*
X138651201Y-58075307D01*
X138654758Y-58063582D01*
X138660533Y-58052777D01*
X138668306Y-58043306D01*
X138677777Y-58035533D01*
X138688582Y-58029758D01*
X138700307Y-58026201D01*
X138712500Y-58025000D01*
X139324112Y-58025000D01*
X139336305Y-58026201D01*
G37*
G04 #@! TD.AperFunction*
G04 #@! TA.AperFunction,SMDPad,CuDef*
G36*
G01*
X139800000Y-60450000D02*
X139800000Y-58550000D01*
G75*
G02*
X140050000Y-58300000I250000J0D01*
G01*
X141950000Y-58300000D01*
G75*
G02*
X142200000Y-58550000I0J-250000D01*
G01*
X142200000Y-60450000D01*
G75*
G02*
X141950000Y-60700000I-250000J0D01*
G01*
X140050000Y-60700000D01*
G75*
G02*
X139800000Y-60450000I0J250000D01*
G01*
G37*
G04 #@! TD.AperFunction*
D13*
X132500000Y-63500000D03*
X132500000Y-61500000D03*
X132500000Y-59500000D03*
X132500000Y-57500000D03*
D14*
X155475000Y-53750000D03*
X155475000Y-49250000D03*
X147525000Y-49250000D03*
X147525000Y-53750000D03*
G04 #@! TA.AperFunction,SMDPad,CuDef*
G36*
G01*
X146243750Y-60350000D02*
X146756250Y-60350000D01*
G75*
G02*
X146975000Y-60568750I0J-218750D01*
G01*
X146975000Y-61006250D01*
G75*
G02*
X146756250Y-61225000I-218750J0D01*
G01*
X146243750Y-61225000D01*
G75*
G02*
X146025000Y-61006250I0J218750D01*
G01*
X146025000Y-60568750D01*
G75*
G02*
X146243750Y-60350000I218750J0D01*
G01*
G37*
G04 #@! TD.AperFunction*
G04 #@! TA.AperFunction,SMDPad,CuDef*
G36*
G01*
X146243750Y-58775000D02*
X146756250Y-58775000D01*
G75*
G02*
X146975000Y-58993750I0J-218750D01*
G01*
X146975000Y-59431250D01*
G75*
G02*
X146756250Y-59650000I-218750J0D01*
G01*
X146243750Y-59650000D01*
G75*
G02*
X146025000Y-59431250I0J218750D01*
G01*
X146025000Y-58993750D01*
G75*
G02*
X146243750Y-58775000I218750J0D01*
G01*
G37*
G04 #@! TD.AperFunction*
G04 #@! TA.AperFunction,SMDPad,CuDef*
G36*
G01*
X140743750Y-54850000D02*
X141256250Y-54850000D01*
G75*
G02*
X141475000Y-55068750I0J-218750D01*
G01*
X141475000Y-55506250D01*
G75*
G02*
X141256250Y-55725000I-218750J0D01*
G01*
X140743750Y-55725000D01*
G75*
G02*
X140525000Y-55506250I0J218750D01*
G01*
X140525000Y-55068750D01*
G75*
G02*
X140743750Y-54850000I218750J0D01*
G01*
G37*
G04 #@! TD.AperFunction*
G04 #@! TA.AperFunction,SMDPad,CuDef*
G36*
G01*
X140743750Y-53275000D02*
X141256250Y-53275000D01*
G75*
G02*
X141475000Y-53493750I0J-218750D01*
G01*
X141475000Y-53931250D01*
G75*
G02*
X141256250Y-54150000I-218750J0D01*
G01*
X140743750Y-54150000D01*
G75*
G02*
X140525000Y-53931250I0J218750D01*
G01*
X140525000Y-53493750D01*
G75*
G02*
X140743750Y-53275000I218750J0D01*
G01*
G37*
G04 #@! TD.AperFunction*
G04 #@! TA.AperFunction,SMDPad,CuDef*
G36*
G01*
X139743750Y-65050000D02*
X140256250Y-65050000D01*
G75*
G02*
X140475000Y-65268750I0J-218750D01*
G01*
X140475000Y-65706250D01*
G75*
G02*
X140256250Y-65925000I-218750J0D01*
G01*
X139743750Y-65925000D01*
G75*
G02*
X139525000Y-65706250I0J218750D01*
G01*
X139525000Y-65268750D01*
G75*
G02*
X139743750Y-65050000I218750J0D01*
G01*
G37*
G04 #@! TD.AperFunction*
G04 #@! TA.AperFunction,SMDPad,CuDef*
G36*
G01*
X139743750Y-63475000D02*
X140256250Y-63475000D01*
G75*
G02*
X140475000Y-63693750I0J-218750D01*
G01*
X140475000Y-64131250D01*
G75*
G02*
X140256250Y-64350000I-218750J0D01*
G01*
X139743750Y-64350000D01*
G75*
G02*
X139525000Y-64131250I0J218750D01*
G01*
X139525000Y-63693750D01*
G75*
G02*
X139743750Y-63475000I218750J0D01*
G01*
G37*
G04 #@! TD.AperFunction*
G04 #@! TA.AperFunction,SMDPad,CuDef*
D12*
G36*
X151500000Y-60025000D02*
G01*
X150750000Y-59525000D01*
X150750000Y-58525000D01*
X152250000Y-58525000D01*
X152250000Y-59525000D01*
X151500000Y-60025000D01*
G37*
G04 #@! TD.AperFunction*
G04 #@! TA.AperFunction,SMDPad,CuDef*
G36*
X150750000Y-60975000D02*
G01*
X150750000Y-59825000D01*
X151500000Y-60325000D01*
X152250000Y-59825000D01*
X152250000Y-60975000D01*
X150750000Y-60975000D01*
G37*
G04 #@! TD.AperFunction*
D15*
X149920000Y-73040000D03*
X149920000Y-70500000D03*
X152460000Y-73040000D03*
X152460000Y-70500000D03*
X155000000Y-73040000D03*
D16*
X155000000Y-70500000D03*
G04 #@! TA.AperFunction,SMDPad,CuDef*
G36*
G01*
X141243750Y-65050000D02*
X141756250Y-65050000D01*
G75*
G02*
X141975000Y-65268750I0J-218750D01*
G01*
X141975000Y-65706250D01*
G75*
G02*
X141756250Y-65925000I-218750J0D01*
G01*
X141243750Y-65925000D01*
G75*
G02*
X141025000Y-65706250I0J218750D01*
G01*
X141025000Y-65268750D01*
G75*
G02*
X141243750Y-65050000I218750J0D01*
G01*
G37*
G04 #@! TD.AperFunction*
G04 #@! TA.AperFunction,SMDPad,CuDef*
G36*
G01*
X141243750Y-63475000D02*
X141756250Y-63475000D01*
G75*
G02*
X141975000Y-63693750I0J-218750D01*
G01*
X141975000Y-64131250D01*
G75*
G02*
X141756250Y-64350000I-218750J0D01*
G01*
X141243750Y-64350000D01*
G75*
G02*
X141025000Y-64131250I0J218750D01*
G01*
X141025000Y-63693750D01*
G75*
G02*
X141243750Y-63475000I218750J0D01*
G01*
G37*
G04 #@! TD.AperFunction*
G04 #@! TA.AperFunction,SMDPad,CuDef*
G36*
G01*
X136243750Y-60350000D02*
X136756250Y-60350000D01*
G75*
G02*
X136975000Y-60568750I0J-218750D01*
G01*
X136975000Y-61006250D01*
G75*
G02*
X136756250Y-61225000I-218750J0D01*
G01*
X136243750Y-61225000D01*
G75*
G02*
X136025000Y-61006250I0J218750D01*
G01*
X136025000Y-60568750D01*
G75*
G02*
X136243750Y-60350000I218750J0D01*
G01*
G37*
G04 #@! TD.AperFunction*
G04 #@! TA.AperFunction,SMDPad,CuDef*
G36*
G01*
X136243750Y-58775000D02*
X136756250Y-58775000D01*
G75*
G02*
X136975000Y-58993750I0J-218750D01*
G01*
X136975000Y-59431250D01*
G75*
G02*
X136756250Y-59650000I-218750J0D01*
G01*
X136243750Y-59650000D01*
G75*
G02*
X136025000Y-59431250I0J218750D01*
G01*
X136025000Y-58993750D01*
G75*
G02*
X136243750Y-58775000I218750J0D01*
G01*
G37*
G04 #@! TD.AperFunction*
D17*
X138912500Y-63912500D03*
X145300000Y-63300000D03*
X142200000Y-54600000D03*
X144800000Y-58000000D03*
X135500000Y-60800000D03*
X157750000Y-58750000D03*
X149000000Y-53800000D03*
X154000000Y-53800000D03*
X137800000Y-59800000D03*
X144100000Y-59400000D03*
X147400000Y-56900000D03*
X153600000Y-67500000D03*
X137200000Y-57700000D03*
X135400000Y-57700000D03*
D18*
X136662500Y-59050000D02*
X136500000Y-59212500D01*
X139050000Y-59050000D02*
X136662500Y-59050000D01*
X144500000Y-61422708D02*
X144500000Y-60000000D01*
X145287500Y-59212500D02*
X146500000Y-59212500D01*
X144500000Y-60000000D02*
X145287500Y-59212500D01*
X140000000Y-63912500D02*
X138912500Y-63912500D01*
X144500000Y-62500000D02*
X144500000Y-61422708D01*
X145300000Y-63300000D02*
X144500000Y-62500000D01*
X143350000Y-60400000D02*
X142950000Y-60400000D01*
X144300000Y-60400000D02*
X143350000Y-60400000D01*
X144500000Y-61422708D02*
X144500000Y-60600000D01*
X144500000Y-60600000D02*
X144300000Y-60400000D01*
X145600000Y-63600000D02*
X145300000Y-63300000D01*
X146200000Y-64200000D02*
X145600000Y-63600000D01*
X156202081Y-73040000D02*
X157100000Y-72142081D01*
X155000000Y-73040000D02*
X156202081Y-73040000D01*
X157100000Y-72142081D02*
X157100000Y-69800000D01*
X157100000Y-69800000D02*
X151500000Y-64200000D01*
X151500000Y-64200000D02*
X146200000Y-64200000D01*
X141000000Y-53712500D02*
X141312500Y-53712500D01*
X141312500Y-53712500D02*
X142200000Y-54600000D01*
X144800000Y-58725000D02*
X145287500Y-59212500D01*
X144800000Y-58000000D02*
X144800000Y-58725000D01*
X136500000Y-59212500D02*
X136500000Y-57000000D01*
X136500000Y-57000000D02*
X137300000Y-56200000D01*
X137300000Y-56200000D02*
X139000000Y-56200000D01*
X139000000Y-56200000D02*
X140000000Y-55200000D01*
X140525000Y-53712500D02*
X141000000Y-53712500D01*
X140000000Y-54237500D02*
X140525000Y-53712500D01*
X140000000Y-55200000D02*
X140000000Y-54237500D01*
X139050000Y-59500000D02*
X141000000Y-59500000D01*
X142950000Y-59500000D02*
X141000000Y-59500000D01*
X136500000Y-60787500D02*
X135512500Y-60787500D01*
X135512500Y-60787500D02*
X135500000Y-60800000D01*
D19*
X148750000Y-59600000D02*
X148750000Y-58250000D01*
X148750000Y-58250000D02*
X149250000Y-57750000D01*
X149250000Y-57750000D02*
X151250000Y-57750000D01*
X151500000Y-58000000D02*
X151500000Y-59025000D01*
X151250000Y-57750000D02*
X151500000Y-58000000D01*
X157475000Y-59025000D02*
X157750000Y-58750000D01*
X151500000Y-59025000D02*
X157475000Y-59025000D01*
D18*
X147525000Y-53750000D02*
X148950000Y-53750000D01*
X148950000Y-53750000D02*
X149000000Y-53800000D01*
X155475000Y-53750000D02*
X154050000Y-53750000D01*
X154050000Y-53750000D02*
X154000000Y-53800000D01*
X139050000Y-59500000D02*
X138100000Y-59500000D01*
X138100000Y-59500000D02*
X137800000Y-59800000D01*
X142950000Y-59500000D02*
X144000000Y-59500000D01*
X144000000Y-59500000D02*
X144100000Y-59400000D01*
X140000000Y-65487500D02*
X141500000Y-65487500D01*
X141450000Y-63912500D02*
X141500000Y-63962500D01*
X141450000Y-61450000D02*
X141450000Y-63912500D01*
X155475000Y-49250000D02*
X147525000Y-49250000D01*
X147525000Y-49250000D02*
X145550000Y-49250000D01*
X145550000Y-49250000D02*
X144200000Y-50600000D01*
X144200000Y-50600000D02*
X144200000Y-53700000D01*
X142612500Y-55287500D02*
X141000000Y-55287500D01*
X141000000Y-57550000D02*
X141000000Y-55287500D01*
X143900001Y-56600001D02*
X142600000Y-55300000D01*
X147100001Y-56600001D02*
X143900001Y-56600001D01*
X147400000Y-56900000D02*
X147100001Y-56600001D01*
X144200000Y-53700000D02*
X142600000Y-55300000D01*
X142600000Y-55300000D02*
X142612500Y-55287500D01*
X151200000Y-71780000D02*
X152460000Y-73040000D01*
X141900000Y-62231397D02*
X145468603Y-65800000D01*
X149600000Y-65800000D02*
X151200000Y-67400000D01*
X151200000Y-67400000D02*
X151200000Y-71780000D01*
X141900000Y-61450000D02*
X141900000Y-62231397D01*
X145468603Y-65800000D02*
X149600000Y-65800000D01*
X145948998Y-64800000D02*
X150900000Y-64800000D01*
X142950000Y-60850000D02*
X142950000Y-61801002D01*
X153300001Y-67200001D02*
X153600000Y-67500000D01*
X150900000Y-64800000D02*
X153300001Y-67200001D01*
X142950000Y-61801002D02*
X145948998Y-64800000D01*
X142350000Y-61850000D02*
X142350000Y-61450000D01*
X155000000Y-70100000D02*
X150200000Y-65300000D01*
X155000000Y-70500000D02*
X155000000Y-70100000D01*
X150200000Y-65300000D02*
X145534301Y-65300000D01*
X145534301Y-65300000D02*
X142350000Y-62115699D01*
X142350000Y-62115699D02*
X142350000Y-61850000D01*
X146500000Y-61500000D02*
X146500000Y-60787500D01*
X146800000Y-61800000D02*
X146500000Y-61500000D01*
X148250000Y-60900000D02*
X148250000Y-61405000D01*
X147855000Y-61800000D02*
X146800000Y-61800000D01*
X148250000Y-61405000D02*
X147855000Y-61800000D01*
X139050000Y-58600000D02*
X138100000Y-58600000D01*
X138100000Y-58600000D02*
X137200000Y-57700000D01*
X132700000Y-57700000D02*
X132500000Y-57500000D01*
X135400000Y-57700000D02*
X132700000Y-57700000D01*
X139050000Y-60850000D02*
X138150000Y-60850000D01*
X138150000Y-60850000D02*
X137300000Y-61700000D01*
X137300000Y-61700000D02*
X135300000Y-61700000D01*
X135300000Y-61700000D02*
X134400000Y-60800000D01*
X134400000Y-60800000D02*
X134400000Y-60100000D01*
X133800000Y-59500000D02*
X132500000Y-59500000D01*
X134400000Y-60100000D02*
X133800000Y-59500000D01*
X139650000Y-61877312D02*
X139277312Y-62250000D01*
X139650000Y-61450000D02*
X139650000Y-61877312D01*
X139277312Y-62250000D02*
X134750000Y-62250000D01*
X134000000Y-61500000D02*
X132500000Y-61500000D01*
X134750000Y-62250000D02*
X134000000Y-61500000D01*
X140100000Y-61450000D02*
X140100000Y-62000000D01*
X139449990Y-62650010D02*
X134349990Y-62650010D01*
X140100000Y-62000000D02*
X139449990Y-62650010D01*
X133500000Y-63500000D02*
X132500000Y-63500000D01*
X134349990Y-62650010D02*
X133500000Y-63500000D01*
D20*
X159325040Y-47358429D02*
X159637699Y-47452827D01*
X159926068Y-47606156D01*
X160179167Y-47812578D01*
X160387345Y-48064223D01*
X160542685Y-48351518D01*
X160639261Y-48663508D01*
X160675000Y-49003540D01*
X160675001Y-73984093D01*
X160641571Y-74325041D01*
X160547173Y-74637700D01*
X160393843Y-74926070D01*
X160187422Y-75179167D01*
X159935780Y-75387344D01*
X159648481Y-75542685D01*
X159336497Y-75639260D01*
X158996460Y-75675000D01*
X123015897Y-75675000D01*
X122674959Y-75641571D01*
X122362300Y-75547173D01*
X122073930Y-75393843D01*
X121820833Y-75187422D01*
X121612656Y-74935780D01*
X121457315Y-74648481D01*
X121360740Y-74336497D01*
X121325000Y-73996460D01*
X121325000Y-73418911D01*
X148512091Y-73418911D01*
X148613065Y-73686300D01*
X148764264Y-73928852D01*
X148959878Y-74137246D01*
X149192389Y-74303473D01*
X149452861Y-74421146D01*
X149541090Y-74447903D01*
X149766000Y-74336889D01*
X149766000Y-73194000D01*
X148622150Y-73194000D01*
X148512091Y-73418911D01*
X121325000Y-73418911D01*
X121325000Y-65268750D01*
X139223549Y-65268750D01*
X139223549Y-65706250D01*
X139233545Y-65807736D01*
X139263147Y-65905322D01*
X139311219Y-65995258D01*
X139375912Y-66074088D01*
X139454742Y-66138781D01*
X139544678Y-66186853D01*
X139642264Y-66216455D01*
X139743750Y-66226451D01*
X140256250Y-66226451D01*
X140357736Y-66216455D01*
X140455322Y-66186853D01*
X140545258Y-66138781D01*
X140624088Y-66074088D01*
X140688781Y-65995258D01*
X140733016Y-65912500D01*
X140766984Y-65912500D01*
X140811219Y-65995258D01*
X140875912Y-66074088D01*
X140954742Y-66138781D01*
X141044678Y-66186853D01*
X141142264Y-66216455D01*
X141243750Y-66226451D01*
X141756250Y-66226451D01*
X141857736Y-66216455D01*
X141955322Y-66186853D01*
X142045258Y-66138781D01*
X142124088Y-66074088D01*
X142188781Y-65995258D01*
X142236853Y-65905322D01*
X142266455Y-65807736D01*
X142276451Y-65706250D01*
X142276451Y-65268750D01*
X142266455Y-65167264D01*
X142236853Y-65069678D01*
X142188781Y-64979742D01*
X142124088Y-64900912D01*
X142045258Y-64836219D01*
X141955322Y-64788147D01*
X141857736Y-64758545D01*
X141756250Y-64748549D01*
X141243750Y-64748549D01*
X141142264Y-64758545D01*
X141044678Y-64788147D01*
X140954742Y-64836219D01*
X140875912Y-64900912D01*
X140811219Y-64979742D01*
X140766984Y-65062500D01*
X140733016Y-65062500D01*
X140688781Y-64979742D01*
X140624088Y-64900912D01*
X140545258Y-64836219D01*
X140455322Y-64788147D01*
X140357736Y-64758545D01*
X140256250Y-64748549D01*
X139743750Y-64748549D01*
X139642264Y-64758545D01*
X139544678Y-64788147D01*
X139454742Y-64836219D01*
X139375912Y-64900912D01*
X139311219Y-64979742D01*
X139263147Y-65069678D01*
X139233545Y-65167264D01*
X139223549Y-65268750D01*
X121325000Y-65268750D01*
X121325000Y-59000000D01*
X131698549Y-59000000D01*
X131698549Y-60000000D01*
X131704341Y-60058810D01*
X131721496Y-60115360D01*
X131749353Y-60167477D01*
X131786842Y-60213158D01*
X131832523Y-60250647D01*
X131884640Y-60278504D01*
X131941190Y-60295659D01*
X132000000Y-60301451D01*
X133000000Y-60301451D01*
X133058810Y-60295659D01*
X133115360Y-60278504D01*
X133167477Y-60250647D01*
X133213158Y-60213158D01*
X133250647Y-60167477D01*
X133278504Y-60115360D01*
X133295659Y-60058810D01*
X133301451Y-60000000D01*
X133301451Y-59925000D01*
X133623960Y-59925000D01*
X133975001Y-60276042D01*
X133975000Y-60779133D01*
X133972945Y-60800000D01*
X133975000Y-60820867D01*
X133975000Y-60820873D01*
X133977869Y-60850000D01*
X133981150Y-60883314D01*
X133982127Y-60886533D01*
X134005452Y-60963426D01*
X134044916Y-61037259D01*
X134080727Y-61080895D01*
X134020874Y-61075000D01*
X134020867Y-61075000D01*
X134000000Y-61072945D01*
X133979133Y-61075000D01*
X133301451Y-61075000D01*
X133301451Y-61000000D01*
X133295659Y-60941190D01*
X133278504Y-60884640D01*
X133250647Y-60832523D01*
X133213158Y-60786842D01*
X133167477Y-60749353D01*
X133115360Y-60721496D01*
X133058810Y-60704341D01*
X133000000Y-60698549D01*
X132000000Y-60698549D01*
X131941190Y-60704341D01*
X131884640Y-60721496D01*
X131832523Y-60749353D01*
X131786842Y-60786842D01*
X131749353Y-60832523D01*
X131721496Y-60884640D01*
X131704341Y-60941190D01*
X131698549Y-61000000D01*
X131698549Y-62000000D01*
X131704341Y-62058810D01*
X131721496Y-62115360D01*
X131749353Y-62167477D01*
X131786842Y-62213158D01*
X131832523Y-62250647D01*
X131884640Y-62278504D01*
X131941190Y-62295659D01*
X132000000Y-62301451D01*
X133000000Y-62301451D01*
X133058810Y-62295659D01*
X133115360Y-62278504D01*
X133167477Y-62250647D01*
X133213158Y-62213158D01*
X133250647Y-62167477D01*
X133278504Y-62115360D01*
X133295659Y-62058810D01*
X133301451Y-62000000D01*
X133301451Y-61925000D01*
X133823960Y-61925000D01*
X134165617Y-62266658D01*
X134112730Y-62294926D01*
X134112728Y-62294927D01*
X134112729Y-62294927D01*
X134065955Y-62333314D01*
X134048016Y-62348036D01*
X134034711Y-62364248D01*
X133323960Y-63075000D01*
X133301451Y-63075000D01*
X133301451Y-63000000D01*
X133295659Y-62941190D01*
X133278504Y-62884640D01*
X133250647Y-62832523D01*
X133213158Y-62786842D01*
X133167477Y-62749353D01*
X133115360Y-62721496D01*
X133058810Y-62704341D01*
X133000000Y-62698549D01*
X132000000Y-62698549D01*
X131941190Y-62704341D01*
X131884640Y-62721496D01*
X131832523Y-62749353D01*
X131786842Y-62786842D01*
X131749353Y-62832523D01*
X131721496Y-62884640D01*
X131704341Y-62941190D01*
X131698549Y-63000000D01*
X131698549Y-64000000D01*
X131704341Y-64058810D01*
X131721496Y-64115360D01*
X131749353Y-64167477D01*
X131786842Y-64213158D01*
X131832523Y-64250647D01*
X131884640Y-64278504D01*
X131941190Y-64295659D01*
X132000000Y-64301451D01*
X133000000Y-64301451D01*
X133058810Y-64295659D01*
X133115360Y-64278504D01*
X133167477Y-64250647D01*
X133213158Y-64213158D01*
X133250647Y-64167477D01*
X133278504Y-64115360D01*
X133295659Y-64058810D01*
X133301451Y-64000000D01*
X133301451Y-63925000D01*
X133479133Y-63925000D01*
X133500000Y-63927055D01*
X133520867Y-63925000D01*
X133520874Y-63925000D01*
X133583314Y-63918850D01*
X133663427Y-63894548D01*
X133737260Y-63855084D01*
X133801974Y-63801974D01*
X133815283Y-63785757D01*
X134526031Y-63075010D01*
X139429123Y-63075010D01*
X139449990Y-63077065D01*
X139470857Y-63075010D01*
X139470864Y-63075010D01*
X139533304Y-63068860D01*
X139613417Y-63044558D01*
X139687250Y-63005094D01*
X139751964Y-62951984D01*
X139765273Y-62935767D01*
X140385762Y-62315279D01*
X140401974Y-62301974D01*
X140455084Y-62237260D01*
X140494548Y-62163427D01*
X140498181Y-62151451D01*
X140612500Y-62151451D01*
X140683503Y-62144458D01*
X140751778Y-62123747D01*
X140775000Y-62111334D01*
X140798222Y-62123747D01*
X140866497Y-62144458D01*
X140937500Y-62151451D01*
X141025000Y-62151451D01*
X141025001Y-63223665D01*
X140954742Y-63261219D01*
X140875912Y-63325912D01*
X140811219Y-63404742D01*
X140763147Y-63494678D01*
X140750000Y-63538018D01*
X140736853Y-63494678D01*
X140688781Y-63404742D01*
X140624088Y-63325912D01*
X140545258Y-63261219D01*
X140455322Y-63213147D01*
X140357736Y-63183545D01*
X140256250Y-63173549D01*
X139743750Y-63173549D01*
X139642264Y-63183545D01*
X139544678Y-63213147D01*
X139454742Y-63261219D01*
X139375912Y-63325912D01*
X139311219Y-63404742D01*
X139290518Y-63443470D01*
X139196707Y-63380787D01*
X139087514Y-63335558D01*
X138971595Y-63312500D01*
X138853405Y-63312500D01*
X138737486Y-63335558D01*
X138628293Y-63380787D01*
X138530022Y-63446450D01*
X138446450Y-63530022D01*
X138380787Y-63628293D01*
X138335558Y-63737486D01*
X138312500Y-63853405D01*
X138312500Y-63971595D01*
X138335558Y-64087514D01*
X138380787Y-64196707D01*
X138446450Y-64294978D01*
X138530022Y-64378550D01*
X138628293Y-64444213D01*
X138737486Y-64489442D01*
X138853405Y-64512500D01*
X138971595Y-64512500D01*
X139087514Y-64489442D01*
X139196707Y-64444213D01*
X139290518Y-64381530D01*
X139311219Y-64420258D01*
X139375912Y-64499088D01*
X139454742Y-64563781D01*
X139544678Y-64611853D01*
X139642264Y-64641455D01*
X139743750Y-64651451D01*
X140256250Y-64651451D01*
X140357736Y-64641455D01*
X140455322Y-64611853D01*
X140545258Y-64563781D01*
X140624088Y-64499088D01*
X140688781Y-64420258D01*
X140736853Y-64330322D01*
X140750000Y-64286982D01*
X140763147Y-64330322D01*
X140811219Y-64420258D01*
X140875912Y-64499088D01*
X140954742Y-64563781D01*
X141044678Y-64611853D01*
X141142264Y-64641455D01*
X141243750Y-64651451D01*
X141756250Y-64651451D01*
X141857736Y-64641455D01*
X141955322Y-64611853D01*
X142045258Y-64563781D01*
X142124088Y-64499088D01*
X142188781Y-64420258D01*
X142236853Y-64330322D01*
X142266455Y-64232736D01*
X142276451Y-64131250D01*
X142276451Y-63693750D01*
X142266455Y-63592264D01*
X142236853Y-63494678D01*
X142188781Y-63404742D01*
X142124088Y-63325912D01*
X142045258Y-63261219D01*
X141955322Y-63213147D01*
X141875000Y-63188782D01*
X141875000Y-62807437D01*
X145153322Y-66085760D01*
X145166629Y-66101974D01*
X145231343Y-66155084D01*
X145279458Y-66180801D01*
X145305175Y-66194548D01*
X145377394Y-66216455D01*
X145385289Y-66218850D01*
X145447729Y-66225000D01*
X145447736Y-66225000D01*
X145468603Y-66227055D01*
X145489470Y-66225000D01*
X149423960Y-66225000D01*
X150775000Y-67576041D01*
X150775001Y-69728656D01*
X150653082Y-69606737D01*
X150464729Y-69480884D01*
X150255443Y-69394194D01*
X150033265Y-69350000D01*
X149806735Y-69350000D01*
X149584557Y-69394194D01*
X149375271Y-69480884D01*
X149186918Y-69606737D01*
X149026737Y-69766918D01*
X148900884Y-69955271D01*
X148814194Y-70164557D01*
X148770000Y-70386735D01*
X148770000Y-70613265D01*
X148814194Y-70835443D01*
X148900884Y-71044729D01*
X149026737Y-71233082D01*
X149186918Y-71393263D01*
X149375271Y-71519116D01*
X149584557Y-71605806D01*
X149765998Y-71641897D01*
X149765998Y-71743110D01*
X149541090Y-71632097D01*
X149452861Y-71658854D01*
X149192389Y-71776527D01*
X148959878Y-71942754D01*
X148764264Y-72151148D01*
X148613065Y-72393700D01*
X148512091Y-72661089D01*
X148622150Y-72886000D01*
X149766000Y-72886000D01*
X149766000Y-72866000D01*
X150074000Y-72866000D01*
X150074000Y-72886000D01*
X150094000Y-72886000D01*
X150094000Y-73194000D01*
X150074000Y-73194000D01*
X150074000Y-74336889D01*
X150298910Y-74447903D01*
X150387139Y-74421146D01*
X150647611Y-74303473D01*
X150880122Y-74137246D01*
X151075736Y-73928852D01*
X151226935Y-73686300D01*
X151327909Y-73418911D01*
X151217851Y-73194002D01*
X151318103Y-73194002D01*
X151354194Y-73375443D01*
X151440884Y-73584729D01*
X151566737Y-73773082D01*
X151726918Y-73933263D01*
X151915271Y-74059116D01*
X152124557Y-74145806D01*
X152346735Y-74190000D01*
X152573265Y-74190000D01*
X152795443Y-74145806D01*
X153004729Y-74059116D01*
X153193082Y-73933263D01*
X153353263Y-73773082D01*
X153479116Y-73584729D01*
X153565806Y-73375443D01*
X153610000Y-73153265D01*
X153610000Y-72926735D01*
X153565806Y-72704557D01*
X153479116Y-72495271D01*
X153353263Y-72306918D01*
X153193082Y-72146737D01*
X153004729Y-72020884D01*
X152795443Y-71934194D01*
X152573265Y-71890000D01*
X152346735Y-71890000D01*
X152124557Y-71934194D01*
X152004828Y-71983788D01*
X151625000Y-71603960D01*
X151625000Y-71291345D01*
X151726918Y-71393263D01*
X151915271Y-71519116D01*
X152124557Y-71605806D01*
X152346735Y-71650000D01*
X152573265Y-71650000D01*
X152795443Y-71605806D01*
X153004729Y-71519116D01*
X153193082Y-71393263D01*
X153353263Y-71233082D01*
X153479116Y-71044729D01*
X153565806Y-70835443D01*
X153610000Y-70613265D01*
X153610000Y-70386735D01*
X153565806Y-70164557D01*
X153479116Y-69955271D01*
X153353263Y-69766918D01*
X153193082Y-69606737D01*
X153004729Y-69480884D01*
X152795443Y-69394194D01*
X152573265Y-69350000D01*
X152346735Y-69350000D01*
X152124557Y-69394194D01*
X151915271Y-69480884D01*
X151726918Y-69606737D01*
X151625000Y-69708655D01*
X151625000Y-67420867D01*
X151627055Y-67400000D01*
X151625000Y-67379133D01*
X151625000Y-67379126D01*
X151619200Y-67320240D01*
X153862675Y-69563716D01*
X153854341Y-69591190D01*
X153848549Y-69650000D01*
X153848549Y-71350000D01*
X153854341Y-71408810D01*
X153871496Y-71465360D01*
X153899353Y-71517477D01*
X153936842Y-71563158D01*
X153982523Y-71600647D01*
X154034640Y-71628504D01*
X154091190Y-71645659D01*
X154150000Y-71651451D01*
X155850000Y-71651451D01*
X155908810Y-71645659D01*
X155965360Y-71628504D01*
X156017477Y-71600647D01*
X156063158Y-71563158D01*
X156100647Y-71517477D01*
X156128504Y-71465360D01*
X156145659Y-71408810D01*
X156151451Y-71350000D01*
X156151451Y-69650000D01*
X156145659Y-69591190D01*
X156128504Y-69534640D01*
X156100647Y-69482523D01*
X156063158Y-69436842D01*
X156017477Y-69399353D01*
X155965360Y-69371496D01*
X155908810Y-69354341D01*
X155850000Y-69348549D01*
X154849590Y-69348549D01*
X153601041Y-68100000D01*
X153659095Y-68100000D01*
X153775014Y-68076942D01*
X153884207Y-68031713D01*
X153982478Y-67966050D01*
X154066050Y-67882478D01*
X154131713Y-67784207D01*
X154176942Y-67675014D01*
X154200000Y-67559095D01*
X154200000Y-67501041D01*
X156675001Y-69976042D01*
X156675000Y-71966040D01*
X156056212Y-72584829D01*
X156019116Y-72495271D01*
X155893263Y-72306918D01*
X155733082Y-72146737D01*
X155544729Y-72020884D01*
X155335443Y-71934194D01*
X155113265Y-71890000D01*
X154886735Y-71890000D01*
X154664557Y-71934194D01*
X154455271Y-72020884D01*
X154266918Y-72146737D01*
X154106737Y-72306918D01*
X153980884Y-72495271D01*
X153894194Y-72704557D01*
X153850000Y-72926735D01*
X153850000Y-73153265D01*
X153894194Y-73375443D01*
X153980884Y-73584729D01*
X154106737Y-73773082D01*
X154266918Y-73933263D01*
X154455271Y-74059116D01*
X154664557Y-74145806D01*
X154886735Y-74190000D01*
X155113265Y-74190000D01*
X155335443Y-74145806D01*
X155347274Y-74140905D01*
X158500000Y-74140905D01*
X158500000Y-74259095D01*
X158523058Y-74375014D01*
X158568287Y-74484207D01*
X158633950Y-74582478D01*
X158717522Y-74666050D01*
X158815793Y-74731713D01*
X158924986Y-74776942D01*
X159040905Y-74800000D01*
X159159095Y-74800000D01*
X159275014Y-74776942D01*
X159384207Y-74731713D01*
X159482478Y-74666050D01*
X159566050Y-74582478D01*
X159631713Y-74484207D01*
X159676942Y-74375014D01*
X159700000Y-74259095D01*
X159700000Y-74140905D01*
X159676942Y-74024986D01*
X159631713Y-73915793D01*
X159566050Y-73817522D01*
X159482478Y-73733950D01*
X159384207Y-73668287D01*
X159275014Y-73623058D01*
X159159095Y-73600000D01*
X159040905Y-73600000D01*
X158924986Y-73623058D01*
X158815793Y-73668287D01*
X158717522Y-73733950D01*
X158633950Y-73817522D01*
X158568287Y-73915793D01*
X158523058Y-74024986D01*
X158500000Y-74140905D01*
X155347274Y-74140905D01*
X155544729Y-74059116D01*
X155733082Y-73933263D01*
X155893263Y-73773082D01*
X156019116Y-73584729D01*
X156068710Y-73465000D01*
X156181214Y-73465000D01*
X156202081Y-73467055D01*
X156222948Y-73465000D01*
X156222955Y-73465000D01*
X156285395Y-73458850D01*
X156365508Y-73434548D01*
X156439341Y-73395084D01*
X156504055Y-73341974D01*
X156517364Y-73325757D01*
X157385763Y-72457359D01*
X157401974Y-72444055D01*
X157455084Y-72379341D01*
X157494548Y-72305508D01*
X157518850Y-72225395D01*
X157525000Y-72162955D01*
X157525000Y-72162949D01*
X157527055Y-72142082D01*
X157525000Y-72121215D01*
X157525000Y-69820867D01*
X157527055Y-69800000D01*
X157525000Y-69779133D01*
X157525000Y-69779126D01*
X157518850Y-69716686D01*
X157494548Y-69636573D01*
X157455084Y-69562740D01*
X157401974Y-69498026D01*
X157385762Y-69484721D01*
X151815284Y-63914244D01*
X151801974Y-63898026D01*
X151737260Y-63844916D01*
X151663427Y-63805452D01*
X151583314Y-63781150D01*
X151520874Y-63775000D01*
X151520867Y-63775000D01*
X151500000Y-63772945D01*
X151479133Y-63775000D01*
X146376041Y-63775000D01*
X145915284Y-63314244D01*
X145915280Y-63314239D01*
X145900000Y-63298959D01*
X145900000Y-63240905D01*
X145876942Y-63124986D01*
X145831713Y-63015793D01*
X145766050Y-62917522D01*
X145682478Y-62833950D01*
X145584207Y-62768287D01*
X145475014Y-62723058D01*
X145359095Y-62700000D01*
X145301041Y-62700000D01*
X144925000Y-62323960D01*
X144925000Y-60620867D01*
X144927055Y-60600000D01*
X144925000Y-60579133D01*
X144925000Y-60568750D01*
X145723549Y-60568750D01*
X145723549Y-61006250D01*
X145733545Y-61107736D01*
X145763147Y-61205322D01*
X145811219Y-61295258D01*
X145875912Y-61374088D01*
X145954742Y-61438781D01*
X146044678Y-61486853D01*
X146073382Y-61495560D01*
X146072945Y-61500000D01*
X146075000Y-61520867D01*
X146075000Y-61520873D01*
X146079289Y-61564421D01*
X146081150Y-61583314D01*
X146082006Y-61586135D01*
X146105452Y-61663426D01*
X146144916Y-61737259D01*
X146198026Y-61801974D01*
X146214243Y-61815283D01*
X146484721Y-62085762D01*
X146498026Y-62101974D01*
X146514238Y-62115279D01*
X146514239Y-62115280D01*
X146514750Y-62115699D01*
X146562740Y-62155084D01*
X146636573Y-62194548D01*
X146671306Y-62205084D01*
X146716685Y-62218850D01*
X146725098Y-62219679D01*
X146779126Y-62225000D01*
X146779132Y-62225000D01*
X146799999Y-62227055D01*
X146820866Y-62225000D01*
X147834133Y-62225000D01*
X147855000Y-62227055D01*
X147875867Y-62225000D01*
X147875874Y-62225000D01*
X147938314Y-62218850D01*
X148018427Y-62194548D01*
X148092260Y-62155084D01*
X148156974Y-62101974D01*
X148170283Y-62085757D01*
X148535762Y-61720279D01*
X148551974Y-61706974D01*
X148605084Y-61642260D01*
X148630247Y-61595182D01*
X148687344Y-61646661D01*
X148790231Y-61707965D01*
X148903100Y-61748018D01*
X148998000Y-61763000D01*
X149150000Y-61611000D01*
X149150000Y-61054000D01*
X149350000Y-61054000D01*
X149350000Y-61611000D01*
X149502000Y-61763000D01*
X149596900Y-61748018D01*
X149709769Y-61707965D01*
X149812656Y-61646661D01*
X149901606Y-61566463D01*
X149973201Y-61470453D01*
X150024690Y-61362320D01*
X150054094Y-61246220D01*
X150058000Y-61206000D01*
X149906000Y-61054000D01*
X149350000Y-61054000D01*
X149150000Y-61054000D01*
X149076000Y-61054000D01*
X149076000Y-60746000D01*
X149150000Y-60746000D01*
X149150000Y-60189000D01*
X149350000Y-60189000D01*
X149350000Y-60746000D01*
X149906000Y-60746000D01*
X150058000Y-60594000D01*
X150054094Y-60553780D01*
X150024690Y-60437680D01*
X149973201Y-60329547D01*
X149901606Y-60233537D01*
X149812656Y-60153339D01*
X149709769Y-60092035D01*
X149596900Y-60051982D01*
X149502000Y-60037000D01*
X149350000Y-60189000D01*
X149150000Y-60189000D01*
X149084352Y-60123352D01*
X149117477Y-60105647D01*
X149163158Y-60068158D01*
X149200647Y-60022477D01*
X149228504Y-59970360D01*
X149245659Y-59913810D01*
X149251451Y-59855000D01*
X149251451Y-59345000D01*
X149245659Y-59286190D01*
X149228504Y-59229640D01*
X149200647Y-59177523D01*
X149200000Y-59176735D01*
X149200000Y-58436395D01*
X149436396Y-58200000D01*
X151050000Y-58200000D01*
X151050000Y-58223548D01*
X150750000Y-58223548D01*
X150691190Y-58229340D01*
X150634639Y-58246495D01*
X150582522Y-58274352D01*
X150536841Y-58311841D01*
X150499352Y-58357522D01*
X150471495Y-58409639D01*
X150454340Y-58466190D01*
X150448548Y-58525000D01*
X150448548Y-59525000D01*
X150454402Y-59584120D01*
X150471615Y-59640652D01*
X150499527Y-59692740D01*
X150537064Y-59738382D01*
X150582785Y-59775823D01*
X151332785Y-60275823D01*
X151384348Y-60303385D01*
X151440880Y-60320598D01*
X151499685Y-60326452D01*
X151558501Y-60320721D01*
X151615069Y-60303626D01*
X151667215Y-60275823D01*
X152417215Y-59775823D01*
X152463159Y-59738159D01*
X152500648Y-59692478D01*
X152528505Y-59640361D01*
X152545660Y-59583810D01*
X152551452Y-59525000D01*
X152551452Y-59475000D01*
X157452906Y-59475000D01*
X157475000Y-59477176D01*
X157497094Y-59475000D01*
X157497105Y-59475000D01*
X157563215Y-59468489D01*
X157648041Y-59442757D01*
X157726216Y-59400971D01*
X157788324Y-59350000D01*
X157809095Y-59350000D01*
X157925014Y-59326942D01*
X158034207Y-59281713D01*
X158132478Y-59216050D01*
X158216050Y-59132478D01*
X158281713Y-59034207D01*
X158326942Y-58925014D01*
X158350000Y-58809095D01*
X158350000Y-58690905D01*
X158326942Y-58574986D01*
X158281713Y-58465793D01*
X158216050Y-58367522D01*
X158132478Y-58283950D01*
X158034207Y-58218287D01*
X157925014Y-58173058D01*
X157809095Y-58150000D01*
X157690905Y-58150000D01*
X157574986Y-58173058D01*
X157465793Y-58218287D01*
X157367522Y-58283950D01*
X157283950Y-58367522D01*
X157218287Y-58465793D01*
X157173058Y-58574986D01*
X157173055Y-58575000D01*
X152551452Y-58575000D01*
X152551452Y-58525000D01*
X152545660Y-58466190D01*
X152528505Y-58409639D01*
X152500648Y-58357522D01*
X152463159Y-58311841D01*
X152417478Y-58274352D01*
X152365361Y-58246495D01*
X152308810Y-58229340D01*
X152250000Y-58223548D01*
X151950000Y-58223548D01*
X151950000Y-58022091D01*
X151952176Y-57999999D01*
X151950000Y-57977907D01*
X151950000Y-57977895D01*
X151943489Y-57911785D01*
X151917757Y-57826959D01*
X151875971Y-57748784D01*
X151819737Y-57680263D01*
X151802567Y-57666172D01*
X151583829Y-57447434D01*
X151569737Y-57430263D01*
X151501216Y-57374029D01*
X151423041Y-57332243D01*
X151338215Y-57306511D01*
X151272105Y-57300000D01*
X151272094Y-57300000D01*
X151250000Y-57297824D01*
X151227906Y-57300000D01*
X149272094Y-57300000D01*
X149250000Y-57297824D01*
X149227906Y-57300000D01*
X149227895Y-57300000D01*
X149161785Y-57306511D01*
X149076959Y-57332243D01*
X148998783Y-57374029D01*
X148947432Y-57416172D01*
X148947428Y-57416176D01*
X148930263Y-57430263D01*
X148916176Y-57447428D01*
X148447429Y-57916176D01*
X148430264Y-57930263D01*
X148416177Y-57947428D01*
X148416172Y-57947433D01*
X148374029Y-57998784D01*
X148332243Y-58076960D01*
X148306512Y-58161785D01*
X148297824Y-58250000D01*
X148300001Y-58272104D01*
X148300000Y-59176734D01*
X148299353Y-59177523D01*
X148271496Y-59229640D01*
X148254341Y-59286190D01*
X148248549Y-59345000D01*
X148248549Y-59855000D01*
X148254341Y-59913810D01*
X148271496Y-59970360D01*
X148299353Y-60022477D01*
X148336842Y-60068158D01*
X148382523Y-60105647D01*
X148434640Y-60133504D01*
X148491190Y-60150659D01*
X148550000Y-60156451D01*
X148683892Y-60156451D01*
X148598394Y-60233537D01*
X148526799Y-60329547D01*
X148516293Y-60351611D01*
X148508810Y-60349341D01*
X148450000Y-60343549D01*
X148050000Y-60343549D01*
X147991190Y-60349341D01*
X147934640Y-60366496D01*
X147882523Y-60394353D01*
X147836842Y-60431842D01*
X147799353Y-60477523D01*
X147771496Y-60529640D01*
X147754341Y-60586190D01*
X147748549Y-60645000D01*
X147748549Y-61155000D01*
X147754341Y-61213810D01*
X147771496Y-61270360D01*
X147775712Y-61278248D01*
X147678960Y-61375000D01*
X147122977Y-61375000D01*
X147124088Y-61374088D01*
X147188781Y-61295258D01*
X147236853Y-61205322D01*
X147266455Y-61107736D01*
X147276451Y-61006250D01*
X147276451Y-60568750D01*
X147266455Y-60467264D01*
X147236853Y-60369678D01*
X147188781Y-60279742D01*
X147124088Y-60200912D01*
X147045258Y-60136219D01*
X146955322Y-60088147D01*
X146857736Y-60058545D01*
X146756250Y-60048549D01*
X146243750Y-60048549D01*
X146142264Y-60058545D01*
X146044678Y-60088147D01*
X145954742Y-60136219D01*
X145875912Y-60200912D01*
X145811219Y-60279742D01*
X145763147Y-60369678D01*
X145733545Y-60467264D01*
X145723549Y-60568750D01*
X144925000Y-60568750D01*
X144925000Y-60176040D01*
X145463541Y-59637500D01*
X145766984Y-59637500D01*
X145811219Y-59720258D01*
X145875912Y-59799088D01*
X145954742Y-59863781D01*
X146044678Y-59911853D01*
X146142264Y-59941455D01*
X146243750Y-59951451D01*
X146756250Y-59951451D01*
X146857736Y-59941455D01*
X146955322Y-59911853D01*
X147045258Y-59863781D01*
X147124088Y-59799088D01*
X147188781Y-59720258D01*
X147236853Y-59630322D01*
X147266455Y-59532736D01*
X147276451Y-59431250D01*
X147276451Y-58993750D01*
X147266455Y-58892264D01*
X147236853Y-58794678D01*
X147188781Y-58704742D01*
X147124088Y-58625912D01*
X147045258Y-58561219D01*
X146955322Y-58513147D01*
X146857736Y-58483545D01*
X146756250Y-58473549D01*
X146243750Y-58473549D01*
X146142264Y-58483545D01*
X146044678Y-58513147D01*
X145954742Y-58561219D01*
X145875912Y-58625912D01*
X145811219Y-58704742D01*
X145766984Y-58787500D01*
X145463541Y-58787500D01*
X145225000Y-58548960D01*
X145225000Y-58423528D01*
X145266050Y-58382478D01*
X145331713Y-58284207D01*
X145376942Y-58175014D01*
X145400000Y-58059095D01*
X145400000Y-57940905D01*
X145376942Y-57824986D01*
X145331713Y-57715793D01*
X145266050Y-57617522D01*
X145182478Y-57533950D01*
X145084207Y-57468287D01*
X144975014Y-57423058D01*
X144859095Y-57400000D01*
X144740905Y-57400000D01*
X144624986Y-57423058D01*
X144515793Y-57468287D01*
X144417522Y-57533950D01*
X144333950Y-57617522D01*
X144268287Y-57715793D01*
X144223058Y-57824986D01*
X144200000Y-57940905D01*
X144200000Y-58059095D01*
X144223058Y-58175014D01*
X144268287Y-58284207D01*
X144333950Y-58382478D01*
X144375001Y-58423529D01*
X144375001Y-58704124D01*
X144372945Y-58725000D01*
X144381150Y-58808314D01*
X144395264Y-58854839D01*
X144405453Y-58888427D01*
X144444917Y-58962260D01*
X144471415Y-58994547D01*
X144476889Y-59001217D01*
X144498027Y-59026974D01*
X144514239Y-59040279D01*
X144686459Y-59212500D01*
X144214239Y-59684721D01*
X144198027Y-59698026D01*
X144144917Y-59762740D01*
X144117391Y-59814239D01*
X144105453Y-59836573D01*
X144081150Y-59916686D01*
X144075407Y-59975000D01*
X143849734Y-59975000D01*
X143905424Y-59879470D01*
X143944396Y-59766222D01*
X143958000Y-59677000D01*
X143806000Y-59525000D01*
X143302233Y-59525000D01*
X143287500Y-59523549D01*
X142612500Y-59523549D01*
X142597767Y-59525000D01*
X142094000Y-59525000D01*
X141965000Y-59654000D01*
X141154000Y-59654000D01*
X141154000Y-59674000D01*
X140846000Y-59674000D01*
X140846000Y-59654000D01*
X140035000Y-59654000D01*
X139906000Y-59525000D01*
X139402233Y-59525000D01*
X139387500Y-59523549D01*
X138712500Y-59523549D01*
X138697767Y-59525000D01*
X138194000Y-59525000D01*
X138042000Y-59677000D01*
X138055604Y-59766222D01*
X138094576Y-59879470D01*
X138154893Y-59982938D01*
X138234237Y-60072651D01*
X138329558Y-60145161D01*
X138387944Y-60173650D01*
X138388666Y-60175000D01*
X138376253Y-60198222D01*
X138355542Y-60266497D01*
X138348549Y-60337500D01*
X138348549Y-60425000D01*
X138170874Y-60425000D01*
X138150000Y-60422944D01*
X138129126Y-60425000D01*
X138066686Y-60431150D01*
X137986573Y-60455452D01*
X137912740Y-60494916D01*
X137848026Y-60548026D01*
X137834716Y-60564244D01*
X137444230Y-60954730D01*
X137431000Y-60941500D01*
X136654000Y-60941500D01*
X136654000Y-60961500D01*
X136346000Y-60961500D01*
X136346000Y-60941500D01*
X135569000Y-60941500D01*
X135417000Y-61093500D01*
X135414320Y-61213279D01*
X134825000Y-60623960D01*
X134825000Y-60350000D01*
X135414058Y-60350000D01*
X135417000Y-60481500D01*
X135569000Y-60633500D01*
X136346000Y-60633500D01*
X136346000Y-60613500D01*
X136654000Y-60613500D01*
X136654000Y-60633500D01*
X137431000Y-60633500D01*
X137583000Y-60481500D01*
X137585942Y-60350000D01*
X137574203Y-60230811D01*
X137539437Y-60116203D01*
X137482980Y-60010579D01*
X137407001Y-59917999D01*
X137314421Y-59842020D01*
X137208797Y-59785563D01*
X137149860Y-59767685D01*
X137188781Y-59720258D01*
X137236853Y-59630322D01*
X137266455Y-59532736D01*
X137272142Y-59475000D01*
X138697767Y-59475000D01*
X138712500Y-59476451D01*
X139387500Y-59476451D01*
X139402233Y-59475000D01*
X139906000Y-59475000D01*
X140035000Y-59346000D01*
X140846000Y-59346000D01*
X140846000Y-59326000D01*
X141154000Y-59326000D01*
X141154000Y-59346000D01*
X141965000Y-59346000D01*
X142094000Y-59475000D01*
X142597767Y-59475000D01*
X142612500Y-59476451D01*
X143287500Y-59476451D01*
X143302233Y-59475000D01*
X143806000Y-59475000D01*
X143958000Y-59323000D01*
X143944396Y-59233778D01*
X143905424Y-59120530D01*
X143845107Y-59017062D01*
X143765763Y-58927349D01*
X143670442Y-58854839D01*
X143612056Y-58826350D01*
X143611334Y-58825000D01*
X143623747Y-58801778D01*
X143644458Y-58733503D01*
X143651451Y-58662500D01*
X143651451Y-58537500D01*
X143644458Y-58466497D01*
X143623747Y-58398222D01*
X143612024Y-58376290D01*
X143633712Y-58323931D01*
X143637269Y-58312206D01*
X143648799Y-58254243D01*
X143650000Y-58242050D01*
X143651452Y-58212500D01*
X143651452Y-58087500D01*
X143650000Y-58057950D01*
X143648799Y-58045757D01*
X143637269Y-57987794D01*
X143633712Y-57976069D01*
X143611103Y-57921486D01*
X143605328Y-57910681D01*
X143572488Y-57861533D01*
X143564715Y-57852062D01*
X143522938Y-57810285D01*
X143513467Y-57802512D01*
X143464319Y-57769672D01*
X143453514Y-57763897D01*
X143398931Y-57741288D01*
X143387206Y-57737731D01*
X143329243Y-57726201D01*
X143317050Y-57725000D01*
X143287500Y-57723548D01*
X142776452Y-57723548D01*
X142776452Y-57212500D01*
X142775000Y-57182950D01*
X142773799Y-57170757D01*
X142762269Y-57112794D01*
X142758712Y-57101069D01*
X142736103Y-57046486D01*
X142730328Y-57035681D01*
X142697488Y-56986533D01*
X142689715Y-56977062D01*
X142647938Y-56935285D01*
X142638467Y-56927512D01*
X142589319Y-56894672D01*
X142578514Y-56888897D01*
X142523931Y-56866288D01*
X142512206Y-56862731D01*
X142454243Y-56851201D01*
X142442050Y-56850000D01*
X142412500Y-56848548D01*
X142287500Y-56848548D01*
X142257950Y-56850000D01*
X142245757Y-56851201D01*
X142187794Y-56862731D01*
X142176069Y-56866288D01*
X142123710Y-56887976D01*
X142101778Y-56876253D01*
X142033503Y-56855542D01*
X141962500Y-56848549D01*
X141837500Y-56848549D01*
X141766497Y-56855542D01*
X141698222Y-56876253D01*
X141675000Y-56888666D01*
X141651778Y-56876253D01*
X141583503Y-56855542D01*
X141512500Y-56848549D01*
X141425000Y-56848549D01*
X141425000Y-55996051D01*
X141455322Y-55986853D01*
X141545258Y-55938781D01*
X141624088Y-55874088D01*
X141688781Y-55795258D01*
X141733016Y-55712500D01*
X142411460Y-55712500D01*
X143584720Y-56885761D01*
X143598027Y-56901975D01*
X143662741Y-56955085D01*
X143736574Y-56994549D01*
X143788498Y-57010300D01*
X143816686Y-57018851D01*
X143825099Y-57019680D01*
X143879127Y-57025001D01*
X143879133Y-57025001D01*
X143900000Y-57027056D01*
X143920867Y-57025001D01*
X146813110Y-57025001D01*
X146823058Y-57075014D01*
X146868287Y-57184207D01*
X146933950Y-57282478D01*
X147017522Y-57366050D01*
X147115793Y-57431713D01*
X147224986Y-57476942D01*
X147340905Y-57500000D01*
X147459095Y-57500000D01*
X147575014Y-57476942D01*
X147684207Y-57431713D01*
X147782478Y-57366050D01*
X147866050Y-57282478D01*
X147931713Y-57184207D01*
X147976942Y-57075014D01*
X148000000Y-56959095D01*
X148000000Y-56840905D01*
X147976942Y-56724986D01*
X147931713Y-56615793D01*
X147866050Y-56517522D01*
X147782478Y-56433950D01*
X147684207Y-56368287D01*
X147575014Y-56323058D01*
X147459095Y-56300000D01*
X147403594Y-56300000D01*
X147401975Y-56298027D01*
X147337261Y-56244917D01*
X147263428Y-56205453D01*
X147183315Y-56181151D01*
X147120875Y-56175001D01*
X147120868Y-56175001D01*
X147100001Y-56172946D01*
X147079134Y-56175001D01*
X144076042Y-56175001D01*
X143201040Y-55300000D01*
X144101040Y-54400000D01*
X146139058Y-54400000D01*
X146150797Y-54519189D01*
X146185563Y-54633797D01*
X146242020Y-54739421D01*
X146317999Y-54832001D01*
X146410579Y-54907980D01*
X146516203Y-54964437D01*
X146630811Y-54999203D01*
X146750000Y-55010942D01*
X147219000Y-55008000D01*
X147371000Y-54856000D01*
X147371000Y-53904000D01*
X147679000Y-53904000D01*
X147679000Y-54856000D01*
X147831000Y-55008000D01*
X148300000Y-55010942D01*
X148419189Y-54999203D01*
X148533797Y-54964437D01*
X148639421Y-54907980D01*
X148732001Y-54832001D01*
X148807980Y-54739421D01*
X148864437Y-54633797D01*
X148899203Y-54519189D01*
X148910942Y-54400000D01*
X154089058Y-54400000D01*
X154100797Y-54519189D01*
X154135563Y-54633797D01*
X154192020Y-54739421D01*
X154267999Y-54832001D01*
X154360579Y-54907980D01*
X154466203Y-54964437D01*
X154580811Y-54999203D01*
X154700000Y-55010942D01*
X155169000Y-55008000D01*
X155321000Y-54856000D01*
X155321000Y-53904000D01*
X155629000Y-53904000D01*
X155629000Y-54856000D01*
X155781000Y-55008000D01*
X156250000Y-55010942D01*
X156369189Y-54999203D01*
X156483797Y-54964437D01*
X156589421Y-54907980D01*
X156682001Y-54832001D01*
X156757980Y-54739421D01*
X156814437Y-54633797D01*
X156849203Y-54519189D01*
X156860942Y-54400000D01*
X156858000Y-54056000D01*
X156706000Y-53904000D01*
X155629000Y-53904000D01*
X155321000Y-53904000D01*
X154244000Y-53904000D01*
X154092000Y-54056000D01*
X154089058Y-54400000D01*
X148910942Y-54400000D01*
X148908000Y-54056000D01*
X148756000Y-53904000D01*
X147679000Y-53904000D01*
X147371000Y-53904000D01*
X146294000Y-53904000D01*
X146142000Y-54056000D01*
X146139058Y-54400000D01*
X144101040Y-54400000D01*
X144485762Y-54015279D01*
X144501974Y-54001974D01*
X144555084Y-53937260D01*
X144587867Y-53875927D01*
X144594548Y-53863428D01*
X144618850Y-53783314D01*
X144625000Y-53720874D01*
X144625000Y-53720867D01*
X144627055Y-53700000D01*
X144625000Y-53679133D01*
X144625000Y-53100000D01*
X146139058Y-53100000D01*
X146142000Y-53444000D01*
X146294000Y-53596000D01*
X147371000Y-53596000D01*
X147371000Y-52644000D01*
X147679000Y-52644000D01*
X147679000Y-53596000D01*
X148756000Y-53596000D01*
X148908000Y-53444000D01*
X148910942Y-53100000D01*
X154089058Y-53100000D01*
X154092000Y-53444000D01*
X154244000Y-53596000D01*
X155321000Y-53596000D01*
X155321000Y-52644000D01*
X155629000Y-52644000D01*
X155629000Y-53596000D01*
X156706000Y-53596000D01*
X156858000Y-53444000D01*
X156860942Y-53100000D01*
X156849203Y-52980811D01*
X156814437Y-52866203D01*
X156757980Y-52760579D01*
X156682001Y-52667999D01*
X156589421Y-52592020D01*
X156483797Y-52535563D01*
X156369189Y-52500797D01*
X156250000Y-52489058D01*
X155781000Y-52492000D01*
X155629000Y-52644000D01*
X155321000Y-52644000D01*
X155169000Y-52492000D01*
X154700000Y-52489058D01*
X154580811Y-52500797D01*
X154466203Y-52535563D01*
X154360579Y-52592020D01*
X154267999Y-52667999D01*
X154192020Y-52760579D01*
X154135563Y-52866203D01*
X154100797Y-52980811D01*
X154089058Y-53100000D01*
X148910942Y-53100000D01*
X148899203Y-52980811D01*
X148864437Y-52866203D01*
X148807980Y-52760579D01*
X148732001Y-52667999D01*
X148639421Y-52592020D01*
X148533797Y-52535563D01*
X148419189Y-52500797D01*
X148300000Y-52489058D01*
X147831000Y-52492000D01*
X147679000Y-52644000D01*
X147371000Y-52644000D01*
X147219000Y-52492000D01*
X146750000Y-52489058D01*
X146630811Y-52500797D01*
X146516203Y-52535563D01*
X146410579Y-52592020D01*
X146317999Y-52667999D01*
X146242020Y-52760579D01*
X146185563Y-52866203D01*
X146150797Y-52980811D01*
X146139058Y-53100000D01*
X144625000Y-53100000D01*
X144625000Y-51340905D01*
X157900000Y-51340905D01*
X157900000Y-51459095D01*
X157923058Y-51575014D01*
X157968287Y-51684207D01*
X158033950Y-51782478D01*
X158117522Y-51866050D01*
X158215793Y-51931713D01*
X158324986Y-51976942D01*
X158440905Y-52000000D01*
X158559095Y-52000000D01*
X158675014Y-51976942D01*
X158784207Y-51931713D01*
X158882478Y-51866050D01*
X158966050Y-51782478D01*
X159031713Y-51684207D01*
X159076942Y-51575014D01*
X159100000Y-51459095D01*
X159100000Y-51340905D01*
X159076942Y-51224986D01*
X159031713Y-51115793D01*
X158966050Y-51017522D01*
X158882478Y-50933950D01*
X158784207Y-50868287D01*
X158675014Y-50823058D01*
X158559095Y-50800000D01*
X158440905Y-50800000D01*
X158324986Y-50823058D01*
X158215793Y-50868287D01*
X158117522Y-50933950D01*
X158033950Y-51017522D01*
X157968287Y-51115793D01*
X157923058Y-51224986D01*
X157900000Y-51340905D01*
X144625000Y-51340905D01*
X144625000Y-50776040D01*
X145726041Y-49675000D01*
X146448549Y-49675000D01*
X146448549Y-49900000D01*
X146454341Y-49958810D01*
X146471496Y-50015360D01*
X146499353Y-50067477D01*
X146536842Y-50113158D01*
X146582523Y-50150647D01*
X146634640Y-50178504D01*
X146691190Y-50195659D01*
X146750000Y-50201451D01*
X148300000Y-50201451D01*
X148358810Y-50195659D01*
X148415360Y-50178504D01*
X148467477Y-50150647D01*
X148513158Y-50113158D01*
X148550647Y-50067477D01*
X148578504Y-50015360D01*
X148595659Y-49958810D01*
X148601451Y-49900000D01*
X148601451Y-49675000D01*
X154398549Y-49675000D01*
X154398549Y-49900000D01*
X154404341Y-49958810D01*
X154421496Y-50015360D01*
X154449353Y-50067477D01*
X154486842Y-50113158D01*
X154532523Y-50150647D01*
X154584640Y-50178504D01*
X154641190Y-50195659D01*
X154700000Y-50201451D01*
X156250000Y-50201451D01*
X156308810Y-50195659D01*
X156365360Y-50178504D01*
X156417477Y-50150647D01*
X156463158Y-50113158D01*
X156500647Y-50067477D01*
X156528504Y-50015360D01*
X156545659Y-49958810D01*
X156551451Y-49900000D01*
X156551451Y-48600000D01*
X156545659Y-48541190D01*
X156528504Y-48484640D01*
X156500647Y-48432523D01*
X156463158Y-48386842D01*
X156417477Y-48349353D01*
X156365360Y-48321496D01*
X156308810Y-48304341D01*
X156250000Y-48298549D01*
X154700000Y-48298549D01*
X154641190Y-48304341D01*
X154584640Y-48321496D01*
X154532523Y-48349353D01*
X154486842Y-48386842D01*
X154449353Y-48432523D01*
X154421496Y-48484640D01*
X154404341Y-48541190D01*
X154398549Y-48600000D01*
X154398549Y-48825000D01*
X148601451Y-48825000D01*
X148601451Y-48600000D01*
X148595659Y-48541190D01*
X148578504Y-48484640D01*
X148550647Y-48432523D01*
X148513158Y-48386842D01*
X148467477Y-48349353D01*
X148415360Y-48321496D01*
X148358810Y-48304341D01*
X148300000Y-48298549D01*
X146750000Y-48298549D01*
X146691190Y-48304341D01*
X146634640Y-48321496D01*
X146582523Y-48349353D01*
X146536842Y-48386842D01*
X146499353Y-48432523D01*
X146471496Y-48484640D01*
X146454341Y-48541190D01*
X146448549Y-48600000D01*
X146448549Y-48825000D01*
X145570866Y-48825000D01*
X145549999Y-48822945D01*
X145529132Y-48825000D01*
X145529126Y-48825000D01*
X145475098Y-48830321D01*
X145466685Y-48831150D01*
X145442383Y-48838522D01*
X145386573Y-48855452D01*
X145312740Y-48894916D01*
X145248026Y-48948026D01*
X145234721Y-48964238D01*
X143914243Y-50284717D01*
X143898026Y-50298026D01*
X143844916Y-50362741D01*
X143805452Y-50436574D01*
X143781150Y-50516687D01*
X143775000Y-50579127D01*
X143775000Y-50579133D01*
X143772945Y-50600000D01*
X143775000Y-50620867D01*
X143775001Y-53523958D01*
X142793041Y-54505919D01*
X142776942Y-54424986D01*
X142731713Y-54315793D01*
X142666050Y-54217522D01*
X142582478Y-54133950D01*
X142484207Y-54068287D01*
X142375014Y-54023058D01*
X142259095Y-54000000D01*
X142201040Y-54000000D01*
X141776451Y-53575411D01*
X141776451Y-53493750D01*
X141766455Y-53392264D01*
X141736853Y-53294678D01*
X141688781Y-53204742D01*
X141624088Y-53125912D01*
X141545258Y-53061219D01*
X141455322Y-53013147D01*
X141357736Y-52983545D01*
X141256250Y-52973549D01*
X140743750Y-52973549D01*
X140642264Y-52983545D01*
X140544678Y-53013147D01*
X140454742Y-53061219D01*
X140375912Y-53125912D01*
X140311219Y-53204742D01*
X140263147Y-53294678D01*
X140233545Y-53392264D01*
X140232513Y-53402740D01*
X140223026Y-53410526D01*
X140209721Y-53426738D01*
X139714239Y-53922221D01*
X139698027Y-53935526D01*
X139644917Y-54000240D01*
X139637309Y-54014474D01*
X139605453Y-54074073D01*
X139581150Y-54154186D01*
X139572945Y-54237500D01*
X139575001Y-54258376D01*
X139575000Y-55023960D01*
X138823960Y-55775000D01*
X137320867Y-55775000D01*
X137300000Y-55772945D01*
X137279133Y-55775000D01*
X137279126Y-55775000D01*
X137224327Y-55780397D01*
X137216685Y-55781150D01*
X137136572Y-55805452D01*
X137110855Y-55819199D01*
X137062740Y-55844916D01*
X136998026Y-55898026D01*
X136984721Y-55914238D01*
X136214239Y-56684721D01*
X136198027Y-56698026D01*
X136144917Y-56762740D01*
X136116083Y-56816686D01*
X136105453Y-56836573D01*
X136081150Y-56916686D01*
X136072945Y-57000000D01*
X136075001Y-57020877D01*
X136075000Y-58503949D01*
X136044678Y-58513147D01*
X135954742Y-58561219D01*
X135875912Y-58625912D01*
X135811219Y-58704742D01*
X135763147Y-58794678D01*
X135733545Y-58892264D01*
X135723549Y-58993750D01*
X135723549Y-59431250D01*
X135733545Y-59532736D01*
X135763147Y-59630322D01*
X135811219Y-59720258D01*
X135850140Y-59767685D01*
X135791203Y-59785563D01*
X135685579Y-59842020D01*
X135592999Y-59917999D01*
X135517020Y-60010579D01*
X135460563Y-60116203D01*
X135425797Y-60230811D01*
X135414058Y-60350000D01*
X134825000Y-60350000D01*
X134825000Y-60120866D01*
X134827055Y-60099999D01*
X134825000Y-60079132D01*
X134825000Y-60079126D01*
X134819420Y-60022477D01*
X134818850Y-60016685D01*
X134806499Y-59975971D01*
X134794548Y-59936573D01*
X134755084Y-59862740D01*
X134701974Y-59798026D01*
X134685762Y-59784721D01*
X134115283Y-59214243D01*
X134101974Y-59198026D01*
X134037260Y-59144916D01*
X133963427Y-59105452D01*
X133883314Y-59081150D01*
X133820874Y-59075000D01*
X133820867Y-59075000D01*
X133800000Y-59072945D01*
X133779133Y-59075000D01*
X133301451Y-59075000D01*
X133301451Y-59000000D01*
X133295659Y-58941190D01*
X133278504Y-58884640D01*
X133250647Y-58832523D01*
X133213158Y-58786842D01*
X133167477Y-58749353D01*
X133115360Y-58721496D01*
X133058810Y-58704341D01*
X133000000Y-58698549D01*
X132000000Y-58698549D01*
X131941190Y-58704341D01*
X131884640Y-58721496D01*
X131832523Y-58749353D01*
X131786842Y-58786842D01*
X131749353Y-58832523D01*
X131721496Y-58884640D01*
X131704341Y-58941190D01*
X131698549Y-59000000D01*
X121325000Y-59000000D01*
X121325000Y-57000000D01*
X131698549Y-57000000D01*
X131698549Y-58000000D01*
X131704341Y-58058810D01*
X131721496Y-58115360D01*
X131749353Y-58167477D01*
X131786842Y-58213158D01*
X131832523Y-58250647D01*
X131884640Y-58278504D01*
X131941190Y-58295659D01*
X132000000Y-58301451D01*
X133000000Y-58301451D01*
X133058810Y-58295659D01*
X133115360Y-58278504D01*
X133167477Y-58250647D01*
X133213158Y-58213158D01*
X133250647Y-58167477D01*
X133273351Y-58125000D01*
X134976472Y-58125000D01*
X135017522Y-58166050D01*
X135115793Y-58231713D01*
X135224986Y-58276942D01*
X135340905Y-58300000D01*
X135459095Y-58300000D01*
X135575014Y-58276942D01*
X135684207Y-58231713D01*
X135782478Y-58166050D01*
X135866050Y-58082478D01*
X135931713Y-57984207D01*
X135976942Y-57875014D01*
X136000000Y-57759095D01*
X136000000Y-57640905D01*
X135976942Y-57524986D01*
X135931713Y-57415793D01*
X135866050Y-57317522D01*
X135782478Y-57233950D01*
X135684207Y-57168287D01*
X135575014Y-57123058D01*
X135459095Y-57100000D01*
X135340905Y-57100000D01*
X135224986Y-57123058D01*
X135115793Y-57168287D01*
X135017522Y-57233950D01*
X134976472Y-57275000D01*
X133301451Y-57275000D01*
X133301451Y-57000000D01*
X133295659Y-56941190D01*
X133278504Y-56884640D01*
X133250647Y-56832523D01*
X133213158Y-56786842D01*
X133167477Y-56749353D01*
X133115360Y-56721496D01*
X133058810Y-56704341D01*
X133000000Y-56698549D01*
X132000000Y-56698549D01*
X131941190Y-56704341D01*
X131884640Y-56721496D01*
X131832523Y-56749353D01*
X131786842Y-56786842D01*
X131749353Y-56832523D01*
X131721496Y-56884640D01*
X131704341Y-56941190D01*
X131698549Y-57000000D01*
X121325000Y-57000000D01*
X121325000Y-51140905D01*
X126500000Y-51140905D01*
X126500000Y-51259095D01*
X126523058Y-51375014D01*
X126568287Y-51484207D01*
X126633950Y-51582478D01*
X126717522Y-51666050D01*
X126815793Y-51731713D01*
X126924986Y-51776942D01*
X127040905Y-51800000D01*
X127159095Y-51800000D01*
X127275014Y-51776942D01*
X127384207Y-51731713D01*
X127482478Y-51666050D01*
X127566050Y-51582478D01*
X127631713Y-51484207D01*
X127676942Y-51375014D01*
X127700000Y-51259095D01*
X127700000Y-51140905D01*
X127676942Y-51024986D01*
X127631713Y-50915793D01*
X127566050Y-50817522D01*
X127482478Y-50733950D01*
X127384207Y-50668287D01*
X127275014Y-50623058D01*
X127159095Y-50600000D01*
X127040905Y-50600000D01*
X126924986Y-50623058D01*
X126815793Y-50668287D01*
X126717522Y-50733950D01*
X126633950Y-50817522D01*
X126568287Y-50915793D01*
X126523058Y-51024986D01*
X126500000Y-51140905D01*
X121325000Y-51140905D01*
X121325000Y-49015897D01*
X121358429Y-48674960D01*
X121452827Y-48362301D01*
X121606156Y-48073932D01*
X121812578Y-47820833D01*
X122064223Y-47612655D01*
X122351518Y-47457315D01*
X122663508Y-47360739D01*
X123003540Y-47325000D01*
X158984103Y-47325000D01*
X159325040Y-47358429D01*
G04 #@! TA.AperFunction,Conductor*
D21*
G36*
X159325040Y-47358429D02*
G01*
X159637699Y-47452827D01*
X159926068Y-47606156D01*
X160179167Y-47812578D01*
X160387345Y-48064223D01*
X160542685Y-48351518D01*
X160639261Y-48663508D01*
X160675000Y-49003540D01*
X160675001Y-73984093D01*
X160641571Y-74325041D01*
X160547173Y-74637700D01*
X160393843Y-74926070D01*
X160187422Y-75179167D01*
X159935780Y-75387344D01*
X159648481Y-75542685D01*
X159336497Y-75639260D01*
X158996460Y-75675000D01*
X123015897Y-75675000D01*
X122674959Y-75641571D01*
X122362300Y-75547173D01*
X122073930Y-75393843D01*
X121820833Y-75187422D01*
X121612656Y-74935780D01*
X121457315Y-74648481D01*
X121360740Y-74336497D01*
X121325000Y-73996460D01*
X121325000Y-73418911D01*
X148512091Y-73418911D01*
X148613065Y-73686300D01*
X148764264Y-73928852D01*
X148959878Y-74137246D01*
X149192389Y-74303473D01*
X149452861Y-74421146D01*
X149541090Y-74447903D01*
X149766000Y-74336889D01*
X149766000Y-73194000D01*
X148622150Y-73194000D01*
X148512091Y-73418911D01*
X121325000Y-73418911D01*
X121325000Y-65268750D01*
X139223549Y-65268750D01*
X139223549Y-65706250D01*
X139233545Y-65807736D01*
X139263147Y-65905322D01*
X139311219Y-65995258D01*
X139375912Y-66074088D01*
X139454742Y-66138781D01*
X139544678Y-66186853D01*
X139642264Y-66216455D01*
X139743750Y-66226451D01*
X140256250Y-66226451D01*
X140357736Y-66216455D01*
X140455322Y-66186853D01*
X140545258Y-66138781D01*
X140624088Y-66074088D01*
X140688781Y-65995258D01*
X140733016Y-65912500D01*
X140766984Y-65912500D01*
X140811219Y-65995258D01*
X140875912Y-66074088D01*
X140954742Y-66138781D01*
X141044678Y-66186853D01*
X141142264Y-66216455D01*
X141243750Y-66226451D01*
X141756250Y-66226451D01*
X141857736Y-66216455D01*
X141955322Y-66186853D01*
X142045258Y-66138781D01*
X142124088Y-66074088D01*
X142188781Y-65995258D01*
X142236853Y-65905322D01*
X142266455Y-65807736D01*
X142276451Y-65706250D01*
X142276451Y-65268750D01*
X142266455Y-65167264D01*
X142236853Y-65069678D01*
X142188781Y-64979742D01*
X142124088Y-64900912D01*
X142045258Y-64836219D01*
X141955322Y-64788147D01*
X141857736Y-64758545D01*
X141756250Y-64748549D01*
X141243750Y-64748549D01*
X141142264Y-64758545D01*
X141044678Y-64788147D01*
X140954742Y-64836219D01*
X140875912Y-64900912D01*
X140811219Y-64979742D01*
X140766984Y-65062500D01*
X140733016Y-65062500D01*
X140688781Y-64979742D01*
X140624088Y-64900912D01*
X140545258Y-64836219D01*
X140455322Y-64788147D01*
X140357736Y-64758545D01*
X140256250Y-64748549D01*
X139743750Y-64748549D01*
X139642264Y-64758545D01*
X139544678Y-64788147D01*
X139454742Y-64836219D01*
X139375912Y-64900912D01*
X139311219Y-64979742D01*
X139263147Y-65069678D01*
X139233545Y-65167264D01*
X139223549Y-65268750D01*
X121325000Y-65268750D01*
X121325000Y-59000000D01*
X131698549Y-59000000D01*
X131698549Y-60000000D01*
X131704341Y-60058810D01*
X131721496Y-60115360D01*
X131749353Y-60167477D01*
X131786842Y-60213158D01*
X131832523Y-60250647D01*
X131884640Y-60278504D01*
X131941190Y-60295659D01*
X132000000Y-60301451D01*
X133000000Y-60301451D01*
X133058810Y-60295659D01*
X133115360Y-60278504D01*
X133167477Y-60250647D01*
X133213158Y-60213158D01*
X133250647Y-60167477D01*
X133278504Y-60115360D01*
X133295659Y-60058810D01*
X133301451Y-60000000D01*
X133301451Y-59925000D01*
X133623960Y-59925000D01*
X133975001Y-60276042D01*
X133975000Y-60779133D01*
X133972945Y-60800000D01*
X133975000Y-60820867D01*
X133975000Y-60820873D01*
X133977869Y-60850000D01*
X133981150Y-60883314D01*
X133982127Y-60886533D01*
X134005452Y-60963426D01*
X134044916Y-61037259D01*
X134080727Y-61080895D01*
X134020874Y-61075000D01*
X134020867Y-61075000D01*
X134000000Y-61072945D01*
X133979133Y-61075000D01*
X133301451Y-61075000D01*
X133301451Y-61000000D01*
X133295659Y-60941190D01*
X133278504Y-60884640D01*
X133250647Y-60832523D01*
X133213158Y-60786842D01*
X133167477Y-60749353D01*
X133115360Y-60721496D01*
X133058810Y-60704341D01*
X133000000Y-60698549D01*
X132000000Y-60698549D01*
X131941190Y-60704341D01*
X131884640Y-60721496D01*
X131832523Y-60749353D01*
X131786842Y-60786842D01*
X131749353Y-60832523D01*
X131721496Y-60884640D01*
X131704341Y-60941190D01*
X131698549Y-61000000D01*
X131698549Y-62000000D01*
X131704341Y-62058810D01*
X131721496Y-62115360D01*
X131749353Y-62167477D01*
X131786842Y-62213158D01*
X131832523Y-62250647D01*
X131884640Y-62278504D01*
X131941190Y-62295659D01*
X132000000Y-62301451D01*
X133000000Y-62301451D01*
X133058810Y-62295659D01*
X133115360Y-62278504D01*
X133167477Y-62250647D01*
X133213158Y-62213158D01*
X133250647Y-62167477D01*
X133278504Y-62115360D01*
X133295659Y-62058810D01*
X133301451Y-62000000D01*
X133301451Y-61925000D01*
X133823960Y-61925000D01*
X134165617Y-62266658D01*
X134112730Y-62294926D01*
X134112728Y-62294927D01*
X134112729Y-62294927D01*
X134065955Y-62333314D01*
X134048016Y-62348036D01*
X134034711Y-62364248D01*
X133323960Y-63075000D01*
X133301451Y-63075000D01*
X133301451Y-63000000D01*
X133295659Y-62941190D01*
X133278504Y-62884640D01*
X133250647Y-62832523D01*
X133213158Y-62786842D01*
X133167477Y-62749353D01*
X133115360Y-62721496D01*
X133058810Y-62704341D01*
X133000000Y-62698549D01*
X132000000Y-62698549D01*
X131941190Y-62704341D01*
X131884640Y-62721496D01*
X131832523Y-62749353D01*
X131786842Y-62786842D01*
X131749353Y-62832523D01*
X131721496Y-62884640D01*
X131704341Y-62941190D01*
X131698549Y-63000000D01*
X131698549Y-64000000D01*
X131704341Y-64058810D01*
X131721496Y-64115360D01*
X131749353Y-64167477D01*
X131786842Y-64213158D01*
X131832523Y-64250647D01*
X131884640Y-64278504D01*
X131941190Y-64295659D01*
X132000000Y-64301451D01*
X133000000Y-64301451D01*
X133058810Y-64295659D01*
X133115360Y-64278504D01*
X133167477Y-64250647D01*
X133213158Y-64213158D01*
X133250647Y-64167477D01*
X133278504Y-64115360D01*
X133295659Y-64058810D01*
X133301451Y-64000000D01*
X133301451Y-63925000D01*
X133479133Y-63925000D01*
X133500000Y-63927055D01*
X133520867Y-63925000D01*
X133520874Y-63925000D01*
X133583314Y-63918850D01*
X133663427Y-63894548D01*
X133737260Y-63855084D01*
X133801974Y-63801974D01*
X133815283Y-63785757D01*
X134526031Y-63075010D01*
X139429123Y-63075010D01*
X139449990Y-63077065D01*
X139470857Y-63075010D01*
X139470864Y-63075010D01*
X139533304Y-63068860D01*
X139613417Y-63044558D01*
X139687250Y-63005094D01*
X139751964Y-62951984D01*
X139765273Y-62935767D01*
X140385762Y-62315279D01*
X140401974Y-62301974D01*
X140455084Y-62237260D01*
X140494548Y-62163427D01*
X140498181Y-62151451D01*
X140612500Y-62151451D01*
X140683503Y-62144458D01*
X140751778Y-62123747D01*
X140775000Y-62111334D01*
X140798222Y-62123747D01*
X140866497Y-62144458D01*
X140937500Y-62151451D01*
X141025000Y-62151451D01*
X141025001Y-63223665D01*
X140954742Y-63261219D01*
X140875912Y-63325912D01*
X140811219Y-63404742D01*
X140763147Y-63494678D01*
X140750000Y-63538018D01*
X140736853Y-63494678D01*
X140688781Y-63404742D01*
X140624088Y-63325912D01*
X140545258Y-63261219D01*
X140455322Y-63213147D01*
X140357736Y-63183545D01*
X140256250Y-63173549D01*
X139743750Y-63173549D01*
X139642264Y-63183545D01*
X139544678Y-63213147D01*
X139454742Y-63261219D01*
X139375912Y-63325912D01*
X139311219Y-63404742D01*
X139290518Y-63443470D01*
X139196707Y-63380787D01*
X139087514Y-63335558D01*
X138971595Y-63312500D01*
X138853405Y-63312500D01*
X138737486Y-63335558D01*
X138628293Y-63380787D01*
X138530022Y-63446450D01*
X138446450Y-63530022D01*
X138380787Y-63628293D01*
X138335558Y-63737486D01*
X138312500Y-63853405D01*
X138312500Y-63971595D01*
X138335558Y-64087514D01*
X138380787Y-64196707D01*
X138446450Y-64294978D01*
X138530022Y-64378550D01*
X138628293Y-64444213D01*
X138737486Y-64489442D01*
X138853405Y-64512500D01*
X138971595Y-64512500D01*
X139087514Y-64489442D01*
X139196707Y-64444213D01*
X139290518Y-64381530D01*
X139311219Y-64420258D01*
X139375912Y-64499088D01*
X139454742Y-64563781D01*
X139544678Y-64611853D01*
X139642264Y-64641455D01*
X139743750Y-64651451D01*
X140256250Y-64651451D01*
X140357736Y-64641455D01*
X140455322Y-64611853D01*
X140545258Y-64563781D01*
X140624088Y-64499088D01*
X140688781Y-64420258D01*
X140736853Y-64330322D01*
X140750000Y-64286982D01*
X140763147Y-64330322D01*
X140811219Y-64420258D01*
X140875912Y-64499088D01*
X140954742Y-64563781D01*
X141044678Y-64611853D01*
X141142264Y-64641455D01*
X141243750Y-64651451D01*
X141756250Y-64651451D01*
X141857736Y-64641455D01*
X141955322Y-64611853D01*
X142045258Y-64563781D01*
X142124088Y-64499088D01*
X142188781Y-64420258D01*
X142236853Y-64330322D01*
X142266455Y-64232736D01*
X142276451Y-64131250D01*
X142276451Y-63693750D01*
X142266455Y-63592264D01*
X142236853Y-63494678D01*
X142188781Y-63404742D01*
X142124088Y-63325912D01*
X142045258Y-63261219D01*
X141955322Y-63213147D01*
X141875000Y-63188782D01*
X141875000Y-62807437D01*
X145153322Y-66085760D01*
X145166629Y-66101974D01*
X145231343Y-66155084D01*
X145279458Y-66180801D01*
X145305175Y-66194548D01*
X145377394Y-66216455D01*
X145385289Y-66218850D01*
X145447729Y-66225000D01*
X145447736Y-66225000D01*
X145468603Y-66227055D01*
X145489470Y-66225000D01*
X149423960Y-66225000D01*
X150775000Y-67576041D01*
X150775001Y-69728656D01*
X150653082Y-69606737D01*
X150464729Y-69480884D01*
X150255443Y-69394194D01*
X150033265Y-69350000D01*
X149806735Y-69350000D01*
X149584557Y-69394194D01*
X149375271Y-69480884D01*
X149186918Y-69606737D01*
X149026737Y-69766918D01*
X148900884Y-69955271D01*
X148814194Y-70164557D01*
X148770000Y-70386735D01*
X148770000Y-70613265D01*
X148814194Y-70835443D01*
X148900884Y-71044729D01*
X149026737Y-71233082D01*
X149186918Y-71393263D01*
X149375271Y-71519116D01*
X149584557Y-71605806D01*
X149765998Y-71641897D01*
X149765998Y-71743110D01*
X149541090Y-71632097D01*
X149452861Y-71658854D01*
X149192389Y-71776527D01*
X148959878Y-71942754D01*
X148764264Y-72151148D01*
X148613065Y-72393700D01*
X148512091Y-72661089D01*
X148622150Y-72886000D01*
X149766000Y-72886000D01*
X149766000Y-72866000D01*
X150074000Y-72866000D01*
X150074000Y-72886000D01*
X150094000Y-72886000D01*
X150094000Y-73194000D01*
X150074000Y-73194000D01*
X150074000Y-74336889D01*
X150298910Y-74447903D01*
X150387139Y-74421146D01*
X150647611Y-74303473D01*
X150880122Y-74137246D01*
X151075736Y-73928852D01*
X151226935Y-73686300D01*
X151327909Y-73418911D01*
X151217851Y-73194002D01*
X151318103Y-73194002D01*
X151354194Y-73375443D01*
X151440884Y-73584729D01*
X151566737Y-73773082D01*
X151726918Y-73933263D01*
X151915271Y-74059116D01*
X152124557Y-74145806D01*
X152346735Y-74190000D01*
X152573265Y-74190000D01*
X152795443Y-74145806D01*
X153004729Y-74059116D01*
X153193082Y-73933263D01*
X153353263Y-73773082D01*
X153479116Y-73584729D01*
X153565806Y-73375443D01*
X153610000Y-73153265D01*
X153610000Y-72926735D01*
X153565806Y-72704557D01*
X153479116Y-72495271D01*
X153353263Y-72306918D01*
X153193082Y-72146737D01*
X153004729Y-72020884D01*
X152795443Y-71934194D01*
X152573265Y-71890000D01*
X152346735Y-71890000D01*
X152124557Y-71934194D01*
X152004828Y-71983788D01*
X151625000Y-71603960D01*
X151625000Y-71291345D01*
X151726918Y-71393263D01*
X151915271Y-71519116D01*
X152124557Y-71605806D01*
X152346735Y-71650000D01*
X152573265Y-71650000D01*
X152795443Y-71605806D01*
X153004729Y-71519116D01*
X153193082Y-71393263D01*
X153353263Y-71233082D01*
X153479116Y-71044729D01*
X153565806Y-70835443D01*
X153610000Y-70613265D01*
X153610000Y-70386735D01*
X153565806Y-70164557D01*
X153479116Y-69955271D01*
X153353263Y-69766918D01*
X153193082Y-69606737D01*
X153004729Y-69480884D01*
X152795443Y-69394194D01*
X152573265Y-69350000D01*
X152346735Y-69350000D01*
X152124557Y-69394194D01*
X151915271Y-69480884D01*
X151726918Y-69606737D01*
X151625000Y-69708655D01*
X151625000Y-67420867D01*
X151627055Y-67400000D01*
X151625000Y-67379133D01*
X151625000Y-67379126D01*
X151619200Y-67320240D01*
X153862675Y-69563716D01*
X153854341Y-69591190D01*
X153848549Y-69650000D01*
X153848549Y-71350000D01*
X153854341Y-71408810D01*
X153871496Y-71465360D01*
X153899353Y-71517477D01*
X153936842Y-71563158D01*
X153982523Y-71600647D01*
X154034640Y-71628504D01*
X154091190Y-71645659D01*
X154150000Y-71651451D01*
X155850000Y-71651451D01*
X155908810Y-71645659D01*
X155965360Y-71628504D01*
X156017477Y-71600647D01*
X156063158Y-71563158D01*
X156100647Y-71517477D01*
X156128504Y-71465360D01*
X156145659Y-71408810D01*
X156151451Y-71350000D01*
X156151451Y-69650000D01*
X156145659Y-69591190D01*
X156128504Y-69534640D01*
X156100647Y-69482523D01*
X156063158Y-69436842D01*
X156017477Y-69399353D01*
X155965360Y-69371496D01*
X155908810Y-69354341D01*
X155850000Y-69348549D01*
X154849590Y-69348549D01*
X153601041Y-68100000D01*
X153659095Y-68100000D01*
X153775014Y-68076942D01*
X153884207Y-68031713D01*
X153982478Y-67966050D01*
X154066050Y-67882478D01*
X154131713Y-67784207D01*
X154176942Y-67675014D01*
X154200000Y-67559095D01*
X154200000Y-67501041D01*
X156675001Y-69976042D01*
X156675000Y-71966040D01*
X156056212Y-72584829D01*
X156019116Y-72495271D01*
X155893263Y-72306918D01*
X155733082Y-72146737D01*
X155544729Y-72020884D01*
X155335443Y-71934194D01*
X155113265Y-71890000D01*
X154886735Y-71890000D01*
X154664557Y-71934194D01*
X154455271Y-72020884D01*
X154266918Y-72146737D01*
X154106737Y-72306918D01*
X153980884Y-72495271D01*
X153894194Y-72704557D01*
X153850000Y-72926735D01*
X153850000Y-73153265D01*
X153894194Y-73375443D01*
X153980884Y-73584729D01*
X154106737Y-73773082D01*
X154266918Y-73933263D01*
X154455271Y-74059116D01*
X154664557Y-74145806D01*
X154886735Y-74190000D01*
X155113265Y-74190000D01*
X155335443Y-74145806D01*
X155347274Y-74140905D01*
X158500000Y-74140905D01*
X158500000Y-74259095D01*
X158523058Y-74375014D01*
X158568287Y-74484207D01*
X158633950Y-74582478D01*
X158717522Y-74666050D01*
X158815793Y-74731713D01*
X158924986Y-74776942D01*
X159040905Y-74800000D01*
X159159095Y-74800000D01*
X159275014Y-74776942D01*
X159384207Y-74731713D01*
X159482478Y-74666050D01*
X159566050Y-74582478D01*
X159631713Y-74484207D01*
X159676942Y-74375014D01*
X159700000Y-74259095D01*
X159700000Y-74140905D01*
X159676942Y-74024986D01*
X159631713Y-73915793D01*
X159566050Y-73817522D01*
X159482478Y-73733950D01*
X159384207Y-73668287D01*
X159275014Y-73623058D01*
X159159095Y-73600000D01*
X159040905Y-73600000D01*
X158924986Y-73623058D01*
X158815793Y-73668287D01*
X158717522Y-73733950D01*
X158633950Y-73817522D01*
X158568287Y-73915793D01*
X158523058Y-74024986D01*
X158500000Y-74140905D01*
X155347274Y-74140905D01*
X155544729Y-74059116D01*
X155733082Y-73933263D01*
X155893263Y-73773082D01*
X156019116Y-73584729D01*
X156068710Y-73465000D01*
X156181214Y-73465000D01*
X156202081Y-73467055D01*
X156222948Y-73465000D01*
X156222955Y-73465000D01*
X156285395Y-73458850D01*
X156365508Y-73434548D01*
X156439341Y-73395084D01*
X156504055Y-73341974D01*
X156517364Y-73325757D01*
X157385763Y-72457359D01*
X157401974Y-72444055D01*
X157455084Y-72379341D01*
X157494548Y-72305508D01*
X157518850Y-72225395D01*
X157525000Y-72162955D01*
X157525000Y-72162949D01*
X157527055Y-72142082D01*
X157525000Y-72121215D01*
X157525000Y-69820867D01*
X157527055Y-69800000D01*
X157525000Y-69779133D01*
X157525000Y-69779126D01*
X157518850Y-69716686D01*
X157494548Y-69636573D01*
X157455084Y-69562740D01*
X157401974Y-69498026D01*
X157385762Y-69484721D01*
X151815284Y-63914244D01*
X151801974Y-63898026D01*
X151737260Y-63844916D01*
X151663427Y-63805452D01*
X151583314Y-63781150D01*
X151520874Y-63775000D01*
X151520867Y-63775000D01*
X151500000Y-63772945D01*
X151479133Y-63775000D01*
X146376041Y-63775000D01*
X145915284Y-63314244D01*
X145915280Y-63314239D01*
X145900000Y-63298959D01*
X145900000Y-63240905D01*
X145876942Y-63124986D01*
X145831713Y-63015793D01*
X145766050Y-62917522D01*
X145682478Y-62833950D01*
X145584207Y-62768287D01*
X145475014Y-62723058D01*
X145359095Y-62700000D01*
X145301041Y-62700000D01*
X144925000Y-62323960D01*
X144925000Y-60620867D01*
X144927055Y-60600000D01*
X144925000Y-60579133D01*
X144925000Y-60568750D01*
X145723549Y-60568750D01*
X145723549Y-61006250D01*
X145733545Y-61107736D01*
X145763147Y-61205322D01*
X145811219Y-61295258D01*
X145875912Y-61374088D01*
X145954742Y-61438781D01*
X146044678Y-61486853D01*
X146073382Y-61495560D01*
X146072945Y-61500000D01*
X146075000Y-61520867D01*
X146075000Y-61520873D01*
X146079289Y-61564421D01*
X146081150Y-61583314D01*
X146082006Y-61586135D01*
X146105452Y-61663426D01*
X146144916Y-61737259D01*
X146198026Y-61801974D01*
X146214243Y-61815283D01*
X146484721Y-62085762D01*
X146498026Y-62101974D01*
X146514238Y-62115279D01*
X146514239Y-62115280D01*
X146514750Y-62115699D01*
X146562740Y-62155084D01*
X146636573Y-62194548D01*
X146671306Y-62205084D01*
X146716685Y-62218850D01*
X146725098Y-62219679D01*
X146779126Y-62225000D01*
X146779132Y-62225000D01*
X146799999Y-62227055D01*
X146820866Y-62225000D01*
X147834133Y-62225000D01*
X147855000Y-62227055D01*
X147875867Y-62225000D01*
X147875874Y-62225000D01*
X147938314Y-62218850D01*
X148018427Y-62194548D01*
X148092260Y-62155084D01*
X148156974Y-62101974D01*
X148170283Y-62085757D01*
X148535762Y-61720279D01*
X148551974Y-61706974D01*
X148605084Y-61642260D01*
X148630247Y-61595182D01*
X148687344Y-61646661D01*
X148790231Y-61707965D01*
X148903100Y-61748018D01*
X148998000Y-61763000D01*
X149150000Y-61611000D01*
X149150000Y-61054000D01*
X149350000Y-61054000D01*
X149350000Y-61611000D01*
X149502000Y-61763000D01*
X149596900Y-61748018D01*
X149709769Y-61707965D01*
X149812656Y-61646661D01*
X149901606Y-61566463D01*
X149973201Y-61470453D01*
X150024690Y-61362320D01*
X150054094Y-61246220D01*
X150058000Y-61206000D01*
X149906000Y-61054000D01*
X149350000Y-61054000D01*
X149150000Y-61054000D01*
X149076000Y-61054000D01*
X149076000Y-60746000D01*
X149150000Y-60746000D01*
X149150000Y-60189000D01*
X149350000Y-60189000D01*
X149350000Y-60746000D01*
X149906000Y-60746000D01*
X150058000Y-60594000D01*
X150054094Y-60553780D01*
X150024690Y-60437680D01*
X149973201Y-60329547D01*
X149901606Y-60233537D01*
X149812656Y-60153339D01*
X149709769Y-60092035D01*
X149596900Y-60051982D01*
X149502000Y-60037000D01*
X149350000Y-60189000D01*
X149150000Y-60189000D01*
X149084352Y-60123352D01*
X149117477Y-60105647D01*
X149163158Y-60068158D01*
X149200647Y-60022477D01*
X149228504Y-59970360D01*
X149245659Y-59913810D01*
X149251451Y-59855000D01*
X149251451Y-59345000D01*
X149245659Y-59286190D01*
X149228504Y-59229640D01*
X149200647Y-59177523D01*
X149200000Y-59176735D01*
X149200000Y-58436395D01*
X149436396Y-58200000D01*
X151050000Y-58200000D01*
X151050000Y-58223548D01*
X150750000Y-58223548D01*
X150691190Y-58229340D01*
X150634639Y-58246495D01*
X150582522Y-58274352D01*
X150536841Y-58311841D01*
X150499352Y-58357522D01*
X150471495Y-58409639D01*
X150454340Y-58466190D01*
X150448548Y-58525000D01*
X150448548Y-59525000D01*
X150454402Y-59584120D01*
X150471615Y-59640652D01*
X150499527Y-59692740D01*
X150537064Y-59738382D01*
X150582785Y-59775823D01*
X151332785Y-60275823D01*
X151384348Y-60303385D01*
X151440880Y-60320598D01*
X151499685Y-60326452D01*
X151558501Y-60320721D01*
X151615069Y-60303626D01*
X151667215Y-60275823D01*
X152417215Y-59775823D01*
X152463159Y-59738159D01*
X152500648Y-59692478D01*
X152528505Y-59640361D01*
X152545660Y-59583810D01*
X152551452Y-59525000D01*
X152551452Y-59475000D01*
X157452906Y-59475000D01*
X157475000Y-59477176D01*
X157497094Y-59475000D01*
X157497105Y-59475000D01*
X157563215Y-59468489D01*
X157648041Y-59442757D01*
X157726216Y-59400971D01*
X157788324Y-59350000D01*
X157809095Y-59350000D01*
X157925014Y-59326942D01*
X158034207Y-59281713D01*
X158132478Y-59216050D01*
X158216050Y-59132478D01*
X158281713Y-59034207D01*
X158326942Y-58925014D01*
X158350000Y-58809095D01*
X158350000Y-58690905D01*
X158326942Y-58574986D01*
X158281713Y-58465793D01*
X158216050Y-58367522D01*
X158132478Y-58283950D01*
X158034207Y-58218287D01*
X157925014Y-58173058D01*
X157809095Y-58150000D01*
X157690905Y-58150000D01*
X157574986Y-58173058D01*
X157465793Y-58218287D01*
X157367522Y-58283950D01*
X157283950Y-58367522D01*
X157218287Y-58465793D01*
X157173058Y-58574986D01*
X157173055Y-58575000D01*
X152551452Y-58575000D01*
X152551452Y-58525000D01*
X152545660Y-58466190D01*
X152528505Y-58409639D01*
X152500648Y-58357522D01*
X152463159Y-58311841D01*
X152417478Y-58274352D01*
X152365361Y-58246495D01*
X152308810Y-58229340D01*
X152250000Y-58223548D01*
X151950000Y-58223548D01*
X151950000Y-58022091D01*
X151952176Y-57999999D01*
X151950000Y-57977907D01*
X151950000Y-57977895D01*
X151943489Y-57911785D01*
X151917757Y-57826959D01*
X151875971Y-57748784D01*
X151819737Y-57680263D01*
X151802567Y-57666172D01*
X151583829Y-57447434D01*
X151569737Y-57430263D01*
X151501216Y-57374029D01*
X151423041Y-57332243D01*
X151338215Y-57306511D01*
X151272105Y-57300000D01*
X151272094Y-57300000D01*
X151250000Y-57297824D01*
X151227906Y-57300000D01*
X149272094Y-57300000D01*
X149250000Y-57297824D01*
X149227906Y-57300000D01*
X149227895Y-57300000D01*
X149161785Y-57306511D01*
X149076959Y-57332243D01*
X148998783Y-57374029D01*
X148947432Y-57416172D01*
X148947428Y-57416176D01*
X148930263Y-57430263D01*
X148916176Y-57447428D01*
X148447429Y-57916176D01*
X148430264Y-57930263D01*
X148416177Y-57947428D01*
X148416172Y-57947433D01*
X148374029Y-57998784D01*
X148332243Y-58076960D01*
X148306512Y-58161785D01*
X148297824Y-58250000D01*
X148300001Y-58272104D01*
X148300000Y-59176734D01*
X148299353Y-59177523D01*
X148271496Y-59229640D01*
X148254341Y-59286190D01*
X148248549Y-59345000D01*
X148248549Y-59855000D01*
X148254341Y-59913810D01*
X148271496Y-59970360D01*
X148299353Y-60022477D01*
X148336842Y-60068158D01*
X148382523Y-60105647D01*
X148434640Y-60133504D01*
X148491190Y-60150659D01*
X148550000Y-60156451D01*
X148683892Y-60156451D01*
X148598394Y-60233537D01*
X148526799Y-60329547D01*
X148516293Y-60351611D01*
X148508810Y-60349341D01*
X148450000Y-60343549D01*
X148050000Y-60343549D01*
X147991190Y-60349341D01*
X147934640Y-60366496D01*
X147882523Y-60394353D01*
X147836842Y-60431842D01*
X147799353Y-60477523D01*
X147771496Y-60529640D01*
X147754341Y-60586190D01*
X147748549Y-60645000D01*
X147748549Y-61155000D01*
X147754341Y-61213810D01*
X147771496Y-61270360D01*
X147775712Y-61278248D01*
X147678960Y-61375000D01*
X147122977Y-61375000D01*
X147124088Y-61374088D01*
X147188781Y-61295258D01*
X147236853Y-61205322D01*
X147266455Y-61107736D01*
X147276451Y-61006250D01*
X147276451Y-60568750D01*
X147266455Y-60467264D01*
X147236853Y-60369678D01*
X147188781Y-60279742D01*
X147124088Y-60200912D01*
X147045258Y-60136219D01*
X146955322Y-60088147D01*
X146857736Y-60058545D01*
X146756250Y-60048549D01*
X146243750Y-60048549D01*
X146142264Y-60058545D01*
X146044678Y-60088147D01*
X145954742Y-60136219D01*
X145875912Y-60200912D01*
X145811219Y-60279742D01*
X145763147Y-60369678D01*
X145733545Y-60467264D01*
X145723549Y-60568750D01*
X144925000Y-60568750D01*
X144925000Y-60176040D01*
X145463541Y-59637500D01*
X145766984Y-59637500D01*
X145811219Y-59720258D01*
X145875912Y-59799088D01*
X145954742Y-59863781D01*
X146044678Y-59911853D01*
X146142264Y-59941455D01*
X146243750Y-59951451D01*
X146756250Y-59951451D01*
X146857736Y-59941455D01*
X146955322Y-59911853D01*
X147045258Y-59863781D01*
X147124088Y-59799088D01*
X147188781Y-59720258D01*
X147236853Y-59630322D01*
X147266455Y-59532736D01*
X147276451Y-59431250D01*
X147276451Y-58993750D01*
X147266455Y-58892264D01*
X147236853Y-58794678D01*
X147188781Y-58704742D01*
X147124088Y-58625912D01*
X147045258Y-58561219D01*
X146955322Y-58513147D01*
X146857736Y-58483545D01*
X146756250Y-58473549D01*
X146243750Y-58473549D01*
X146142264Y-58483545D01*
X146044678Y-58513147D01*
X145954742Y-58561219D01*
X145875912Y-58625912D01*
X145811219Y-58704742D01*
X145766984Y-58787500D01*
X145463541Y-58787500D01*
X145225000Y-58548960D01*
X145225000Y-58423528D01*
X145266050Y-58382478D01*
X145331713Y-58284207D01*
X145376942Y-58175014D01*
X145400000Y-58059095D01*
X145400000Y-57940905D01*
X145376942Y-57824986D01*
X145331713Y-57715793D01*
X145266050Y-57617522D01*
X145182478Y-57533950D01*
X145084207Y-57468287D01*
X144975014Y-57423058D01*
X144859095Y-57400000D01*
X144740905Y-57400000D01*
X144624986Y-57423058D01*
X144515793Y-57468287D01*
X144417522Y-57533950D01*
X144333950Y-57617522D01*
X144268287Y-57715793D01*
X144223058Y-57824986D01*
X144200000Y-57940905D01*
X144200000Y-58059095D01*
X144223058Y-58175014D01*
X144268287Y-58284207D01*
X144333950Y-58382478D01*
X144375001Y-58423529D01*
X144375001Y-58704124D01*
X144372945Y-58725000D01*
X144381150Y-58808314D01*
X144395264Y-58854839D01*
X144405453Y-58888427D01*
X144444917Y-58962260D01*
X144471415Y-58994547D01*
X144476889Y-59001217D01*
X144498027Y-59026974D01*
X144514239Y-59040279D01*
X144686459Y-59212500D01*
X144214239Y-59684721D01*
X144198027Y-59698026D01*
X144144917Y-59762740D01*
X144117391Y-59814239D01*
X144105453Y-59836573D01*
X144081150Y-59916686D01*
X144075407Y-59975000D01*
X143849734Y-59975000D01*
X143905424Y-59879470D01*
X143944396Y-59766222D01*
X143958000Y-59677000D01*
X143806000Y-59525000D01*
X143302233Y-59525000D01*
X143287500Y-59523549D01*
X142612500Y-59523549D01*
X142597767Y-59525000D01*
X142094000Y-59525000D01*
X141965000Y-59654000D01*
X141154000Y-59654000D01*
X141154000Y-59674000D01*
X140846000Y-59674000D01*
X140846000Y-59654000D01*
X140035000Y-59654000D01*
X139906000Y-59525000D01*
X139402233Y-59525000D01*
X139387500Y-59523549D01*
X138712500Y-59523549D01*
X138697767Y-59525000D01*
X138194000Y-59525000D01*
X138042000Y-59677000D01*
X138055604Y-59766222D01*
X138094576Y-59879470D01*
X138154893Y-59982938D01*
X138234237Y-60072651D01*
X138329558Y-60145161D01*
X138387944Y-60173650D01*
X138388666Y-60175000D01*
X138376253Y-60198222D01*
X138355542Y-60266497D01*
X138348549Y-60337500D01*
X138348549Y-60425000D01*
X138170874Y-60425000D01*
X138150000Y-60422944D01*
X138129126Y-60425000D01*
X138066686Y-60431150D01*
X137986573Y-60455452D01*
X137912740Y-60494916D01*
X137848026Y-60548026D01*
X137834716Y-60564244D01*
X137444230Y-60954730D01*
X137431000Y-60941500D01*
X136654000Y-60941500D01*
X136654000Y-60961500D01*
X136346000Y-60961500D01*
X136346000Y-60941500D01*
X135569000Y-60941500D01*
X135417000Y-61093500D01*
X135414320Y-61213279D01*
X134825000Y-60623960D01*
X134825000Y-60350000D01*
X135414058Y-60350000D01*
X135417000Y-60481500D01*
X135569000Y-60633500D01*
X136346000Y-60633500D01*
X136346000Y-60613500D01*
X136654000Y-60613500D01*
X136654000Y-60633500D01*
X137431000Y-60633500D01*
X137583000Y-60481500D01*
X137585942Y-60350000D01*
X137574203Y-60230811D01*
X137539437Y-60116203D01*
X137482980Y-60010579D01*
X137407001Y-59917999D01*
X137314421Y-59842020D01*
X137208797Y-59785563D01*
X137149860Y-59767685D01*
X137188781Y-59720258D01*
X137236853Y-59630322D01*
X137266455Y-59532736D01*
X137272142Y-59475000D01*
X138697767Y-59475000D01*
X138712500Y-59476451D01*
X139387500Y-59476451D01*
X139402233Y-59475000D01*
X139906000Y-59475000D01*
X140035000Y-59346000D01*
X140846000Y-59346000D01*
X140846000Y-59326000D01*
X141154000Y-59326000D01*
X141154000Y-59346000D01*
X141965000Y-59346000D01*
X142094000Y-59475000D01*
X142597767Y-59475000D01*
X142612500Y-59476451D01*
X143287500Y-59476451D01*
X143302233Y-59475000D01*
X143806000Y-59475000D01*
X143958000Y-59323000D01*
X143944396Y-59233778D01*
X143905424Y-59120530D01*
X143845107Y-59017062D01*
X143765763Y-58927349D01*
X143670442Y-58854839D01*
X143612056Y-58826350D01*
X143611334Y-58825000D01*
X143623747Y-58801778D01*
X143644458Y-58733503D01*
X143651451Y-58662500D01*
X143651451Y-58537500D01*
X143644458Y-58466497D01*
X143623747Y-58398222D01*
X143612024Y-58376290D01*
X143633712Y-58323931D01*
X143637269Y-58312206D01*
X143648799Y-58254243D01*
X143650000Y-58242050D01*
X143651452Y-58212500D01*
X143651452Y-58087500D01*
X143650000Y-58057950D01*
X143648799Y-58045757D01*
X143637269Y-57987794D01*
X143633712Y-57976069D01*
X143611103Y-57921486D01*
X143605328Y-57910681D01*
X143572488Y-57861533D01*
X143564715Y-57852062D01*
X143522938Y-57810285D01*
X143513467Y-57802512D01*
X143464319Y-57769672D01*
X143453514Y-57763897D01*
X143398931Y-57741288D01*
X143387206Y-57737731D01*
X143329243Y-57726201D01*
X143317050Y-57725000D01*
X143287500Y-57723548D01*
X142776452Y-57723548D01*
X142776452Y-57212500D01*
X142775000Y-57182950D01*
X142773799Y-57170757D01*
X142762269Y-57112794D01*
X142758712Y-57101069D01*
X142736103Y-57046486D01*
X142730328Y-57035681D01*
X142697488Y-56986533D01*
X142689715Y-56977062D01*
X142647938Y-56935285D01*
X142638467Y-56927512D01*
X142589319Y-56894672D01*
X142578514Y-56888897D01*
X142523931Y-56866288D01*
X142512206Y-56862731D01*
X142454243Y-56851201D01*
X142442050Y-56850000D01*
X142412500Y-56848548D01*
X142287500Y-56848548D01*
X142257950Y-56850000D01*
X142245757Y-56851201D01*
X142187794Y-56862731D01*
X142176069Y-56866288D01*
X142123710Y-56887976D01*
X142101778Y-56876253D01*
X142033503Y-56855542D01*
X141962500Y-56848549D01*
X141837500Y-56848549D01*
X141766497Y-56855542D01*
X141698222Y-56876253D01*
X141675000Y-56888666D01*
X141651778Y-56876253D01*
X141583503Y-56855542D01*
X141512500Y-56848549D01*
X141425000Y-56848549D01*
X141425000Y-55996051D01*
X141455322Y-55986853D01*
X141545258Y-55938781D01*
X141624088Y-55874088D01*
X141688781Y-55795258D01*
X141733016Y-55712500D01*
X142411460Y-55712500D01*
X143584720Y-56885761D01*
X143598027Y-56901975D01*
X143662741Y-56955085D01*
X143736574Y-56994549D01*
X143788498Y-57010300D01*
X143816686Y-57018851D01*
X143825099Y-57019680D01*
X143879127Y-57025001D01*
X143879133Y-57025001D01*
X143900000Y-57027056D01*
X143920867Y-57025001D01*
X146813110Y-57025001D01*
X146823058Y-57075014D01*
X146868287Y-57184207D01*
X146933950Y-57282478D01*
X147017522Y-57366050D01*
X147115793Y-57431713D01*
X147224986Y-57476942D01*
X147340905Y-57500000D01*
X147459095Y-57500000D01*
X147575014Y-57476942D01*
X147684207Y-57431713D01*
X147782478Y-57366050D01*
X147866050Y-57282478D01*
X147931713Y-57184207D01*
X147976942Y-57075014D01*
X148000000Y-56959095D01*
X148000000Y-56840905D01*
X147976942Y-56724986D01*
X147931713Y-56615793D01*
X147866050Y-56517522D01*
X147782478Y-56433950D01*
X147684207Y-56368287D01*
X147575014Y-56323058D01*
X147459095Y-56300000D01*
X147403594Y-56300000D01*
X147401975Y-56298027D01*
X147337261Y-56244917D01*
X147263428Y-56205453D01*
X147183315Y-56181151D01*
X147120875Y-56175001D01*
X147120868Y-56175001D01*
X147100001Y-56172946D01*
X147079134Y-56175001D01*
X144076042Y-56175001D01*
X143201040Y-55300000D01*
X144101040Y-54400000D01*
X146139058Y-54400000D01*
X146150797Y-54519189D01*
X146185563Y-54633797D01*
X146242020Y-54739421D01*
X146317999Y-54832001D01*
X146410579Y-54907980D01*
X146516203Y-54964437D01*
X146630811Y-54999203D01*
X146750000Y-55010942D01*
X147219000Y-55008000D01*
X147371000Y-54856000D01*
X147371000Y-53904000D01*
X147679000Y-53904000D01*
X147679000Y-54856000D01*
X147831000Y-55008000D01*
X148300000Y-55010942D01*
X148419189Y-54999203D01*
X148533797Y-54964437D01*
X148639421Y-54907980D01*
X148732001Y-54832001D01*
X148807980Y-54739421D01*
X148864437Y-54633797D01*
X148899203Y-54519189D01*
X148910942Y-54400000D01*
X154089058Y-54400000D01*
X154100797Y-54519189D01*
X154135563Y-54633797D01*
X154192020Y-54739421D01*
X154267999Y-54832001D01*
X154360579Y-54907980D01*
X154466203Y-54964437D01*
X154580811Y-54999203D01*
X154700000Y-55010942D01*
X155169000Y-55008000D01*
X155321000Y-54856000D01*
X155321000Y-53904000D01*
X155629000Y-53904000D01*
X155629000Y-54856000D01*
X155781000Y-55008000D01*
X156250000Y-55010942D01*
X156369189Y-54999203D01*
X156483797Y-54964437D01*
X156589421Y-54907980D01*
X156682001Y-54832001D01*
X156757980Y-54739421D01*
X156814437Y-54633797D01*
X156849203Y-54519189D01*
X156860942Y-54400000D01*
X156858000Y-54056000D01*
X156706000Y-53904000D01*
X155629000Y-53904000D01*
X155321000Y-53904000D01*
X154244000Y-53904000D01*
X154092000Y-54056000D01*
X154089058Y-54400000D01*
X148910942Y-54400000D01*
X148908000Y-54056000D01*
X148756000Y-53904000D01*
X147679000Y-53904000D01*
X147371000Y-53904000D01*
X146294000Y-53904000D01*
X146142000Y-54056000D01*
X146139058Y-54400000D01*
X144101040Y-54400000D01*
X144485762Y-54015279D01*
X144501974Y-54001974D01*
X144555084Y-53937260D01*
X144587867Y-53875927D01*
X144594548Y-53863428D01*
X144618850Y-53783314D01*
X144625000Y-53720874D01*
X144625000Y-53720867D01*
X144627055Y-53700000D01*
X144625000Y-53679133D01*
X144625000Y-53100000D01*
X146139058Y-53100000D01*
X146142000Y-53444000D01*
X146294000Y-53596000D01*
X147371000Y-53596000D01*
X147371000Y-52644000D01*
X147679000Y-52644000D01*
X147679000Y-53596000D01*
X148756000Y-53596000D01*
X148908000Y-53444000D01*
X148910942Y-53100000D01*
X154089058Y-53100000D01*
X154092000Y-53444000D01*
X154244000Y-53596000D01*
X155321000Y-53596000D01*
X155321000Y-52644000D01*
X155629000Y-52644000D01*
X155629000Y-53596000D01*
X156706000Y-53596000D01*
X156858000Y-53444000D01*
X156860942Y-53100000D01*
X156849203Y-52980811D01*
X156814437Y-52866203D01*
X156757980Y-52760579D01*
X156682001Y-52667999D01*
X156589421Y-52592020D01*
X156483797Y-52535563D01*
X156369189Y-52500797D01*
X156250000Y-52489058D01*
X155781000Y-52492000D01*
X155629000Y-52644000D01*
X155321000Y-52644000D01*
X155169000Y-52492000D01*
X154700000Y-52489058D01*
X154580811Y-52500797D01*
X154466203Y-52535563D01*
X154360579Y-52592020D01*
X154267999Y-52667999D01*
X154192020Y-52760579D01*
X154135563Y-52866203D01*
X154100797Y-52980811D01*
X154089058Y-53100000D01*
X148910942Y-53100000D01*
X148899203Y-52980811D01*
X148864437Y-52866203D01*
X148807980Y-52760579D01*
X148732001Y-52667999D01*
X148639421Y-52592020D01*
X148533797Y-52535563D01*
X148419189Y-52500797D01*
X148300000Y-52489058D01*
X147831000Y-52492000D01*
X147679000Y-52644000D01*
X147371000Y-52644000D01*
X147219000Y-52492000D01*
X146750000Y-52489058D01*
X146630811Y-52500797D01*
X146516203Y-52535563D01*
X146410579Y-52592020D01*
X146317999Y-52667999D01*
X146242020Y-52760579D01*
X146185563Y-52866203D01*
X146150797Y-52980811D01*
X146139058Y-53100000D01*
X144625000Y-53100000D01*
X144625000Y-51340905D01*
X157900000Y-51340905D01*
X157900000Y-51459095D01*
X157923058Y-51575014D01*
X157968287Y-51684207D01*
X158033950Y-51782478D01*
X158117522Y-51866050D01*
X158215793Y-51931713D01*
X158324986Y-51976942D01*
X158440905Y-52000000D01*
X158559095Y-52000000D01*
X158675014Y-51976942D01*
X158784207Y-51931713D01*
X158882478Y-51866050D01*
X158966050Y-51782478D01*
X159031713Y-51684207D01*
X159076942Y-51575014D01*
X159100000Y-51459095D01*
X159100000Y-51340905D01*
X159076942Y-51224986D01*
X159031713Y-51115793D01*
X158966050Y-51017522D01*
X158882478Y-50933950D01*
X158784207Y-50868287D01*
X158675014Y-50823058D01*
X158559095Y-50800000D01*
X158440905Y-50800000D01*
X158324986Y-50823058D01*
X158215793Y-50868287D01*
X158117522Y-50933950D01*
X158033950Y-51017522D01*
X157968287Y-51115793D01*
X157923058Y-51224986D01*
X157900000Y-51340905D01*
X144625000Y-51340905D01*
X144625000Y-50776040D01*
X145726041Y-49675000D01*
X146448549Y-49675000D01*
X146448549Y-49900000D01*
X146454341Y-49958810D01*
X146471496Y-50015360D01*
X146499353Y-50067477D01*
X146536842Y-50113158D01*
X146582523Y-50150647D01*
X146634640Y-50178504D01*
X146691190Y-50195659D01*
X146750000Y-50201451D01*
X148300000Y-50201451D01*
X148358810Y-50195659D01*
X148415360Y-50178504D01*
X148467477Y-50150647D01*
X148513158Y-50113158D01*
X148550647Y-50067477D01*
X148578504Y-50015360D01*
X148595659Y-49958810D01*
X148601451Y-49900000D01*
X148601451Y-49675000D01*
X154398549Y-49675000D01*
X154398549Y-49900000D01*
X154404341Y-49958810D01*
X154421496Y-50015360D01*
X154449353Y-50067477D01*
X154486842Y-50113158D01*
X154532523Y-50150647D01*
X154584640Y-50178504D01*
X154641190Y-50195659D01*
X154700000Y-50201451D01*
X156250000Y-50201451D01*
X156308810Y-50195659D01*
X156365360Y-50178504D01*
X156417477Y-50150647D01*
X156463158Y-50113158D01*
X156500647Y-50067477D01*
X156528504Y-50015360D01*
X156545659Y-49958810D01*
X156551451Y-49900000D01*
X156551451Y-48600000D01*
X156545659Y-48541190D01*
X156528504Y-48484640D01*
X156500647Y-48432523D01*
X156463158Y-48386842D01*
X156417477Y-48349353D01*
X156365360Y-48321496D01*
X156308810Y-48304341D01*
X156250000Y-48298549D01*
X154700000Y-48298549D01*
X154641190Y-48304341D01*
X154584640Y-48321496D01*
X154532523Y-48349353D01*
X154486842Y-48386842D01*
X154449353Y-48432523D01*
X154421496Y-48484640D01*
X154404341Y-48541190D01*
X154398549Y-48600000D01*
X154398549Y-48825000D01*
X148601451Y-48825000D01*
X148601451Y-48600000D01*
X148595659Y-48541190D01*
X148578504Y-48484640D01*
X148550647Y-48432523D01*
X148513158Y-48386842D01*
X148467477Y-48349353D01*
X148415360Y-48321496D01*
X148358810Y-48304341D01*
X148300000Y-48298549D01*
X146750000Y-48298549D01*
X146691190Y-48304341D01*
X146634640Y-48321496D01*
X146582523Y-48349353D01*
X146536842Y-48386842D01*
X146499353Y-48432523D01*
X146471496Y-48484640D01*
X146454341Y-48541190D01*
X146448549Y-48600000D01*
X146448549Y-48825000D01*
X145570866Y-48825000D01*
X145549999Y-48822945D01*
X145529132Y-48825000D01*
X145529126Y-48825000D01*
X145475098Y-48830321D01*
X145466685Y-48831150D01*
X145442383Y-48838522D01*
X145386573Y-48855452D01*
X145312740Y-48894916D01*
X145248026Y-48948026D01*
X145234721Y-48964238D01*
X143914243Y-50284717D01*
X143898026Y-50298026D01*
X143844916Y-50362741D01*
X143805452Y-50436574D01*
X143781150Y-50516687D01*
X143775000Y-50579127D01*
X143775000Y-50579133D01*
X143772945Y-50600000D01*
X143775000Y-50620867D01*
X143775001Y-53523958D01*
X142793041Y-54505919D01*
X142776942Y-54424986D01*
X142731713Y-54315793D01*
X142666050Y-54217522D01*
X142582478Y-54133950D01*
X142484207Y-54068287D01*
X142375014Y-54023058D01*
X142259095Y-54000000D01*
X142201040Y-54000000D01*
X141776451Y-53575411D01*
X141776451Y-53493750D01*
X141766455Y-53392264D01*
X141736853Y-53294678D01*
X141688781Y-53204742D01*
X141624088Y-53125912D01*
X141545258Y-53061219D01*
X141455322Y-53013147D01*
X141357736Y-52983545D01*
X141256250Y-52973549D01*
X140743750Y-52973549D01*
X140642264Y-52983545D01*
X140544678Y-53013147D01*
X140454742Y-53061219D01*
X140375912Y-53125912D01*
X140311219Y-53204742D01*
X140263147Y-53294678D01*
X140233545Y-53392264D01*
X140232513Y-53402740D01*
X140223026Y-53410526D01*
X140209721Y-53426738D01*
X139714239Y-53922221D01*
X139698027Y-53935526D01*
X139644917Y-54000240D01*
X139637309Y-54014474D01*
X139605453Y-54074073D01*
X139581150Y-54154186D01*
X139572945Y-54237500D01*
X139575001Y-54258376D01*
X139575000Y-55023960D01*
X138823960Y-55775000D01*
X137320867Y-55775000D01*
X137300000Y-55772945D01*
X137279133Y-55775000D01*
X137279126Y-55775000D01*
X137224327Y-55780397D01*
X137216685Y-55781150D01*
X137136572Y-55805452D01*
X137110855Y-55819199D01*
X137062740Y-55844916D01*
X136998026Y-55898026D01*
X136984721Y-55914238D01*
X136214239Y-56684721D01*
X136198027Y-56698026D01*
X136144917Y-56762740D01*
X136116083Y-56816686D01*
X136105453Y-56836573D01*
X136081150Y-56916686D01*
X136072945Y-57000000D01*
X136075001Y-57020877D01*
X136075000Y-58503949D01*
X136044678Y-58513147D01*
X135954742Y-58561219D01*
X135875912Y-58625912D01*
X135811219Y-58704742D01*
X135763147Y-58794678D01*
X135733545Y-58892264D01*
X135723549Y-58993750D01*
X135723549Y-59431250D01*
X135733545Y-59532736D01*
X135763147Y-59630322D01*
X135811219Y-59720258D01*
X135850140Y-59767685D01*
X135791203Y-59785563D01*
X135685579Y-59842020D01*
X135592999Y-59917999D01*
X135517020Y-60010579D01*
X135460563Y-60116203D01*
X135425797Y-60230811D01*
X135414058Y-60350000D01*
X134825000Y-60350000D01*
X134825000Y-60120866D01*
X134827055Y-60099999D01*
X134825000Y-60079132D01*
X134825000Y-60079126D01*
X134819420Y-60022477D01*
X134818850Y-60016685D01*
X134806499Y-59975971D01*
X134794548Y-59936573D01*
X134755084Y-59862740D01*
X134701974Y-59798026D01*
X134685762Y-59784721D01*
X134115283Y-59214243D01*
X134101974Y-59198026D01*
X134037260Y-59144916D01*
X133963427Y-59105452D01*
X133883314Y-59081150D01*
X133820874Y-59075000D01*
X133820867Y-59075000D01*
X133800000Y-59072945D01*
X133779133Y-59075000D01*
X133301451Y-59075000D01*
X133301451Y-59000000D01*
X133295659Y-58941190D01*
X133278504Y-58884640D01*
X133250647Y-58832523D01*
X133213158Y-58786842D01*
X133167477Y-58749353D01*
X133115360Y-58721496D01*
X133058810Y-58704341D01*
X133000000Y-58698549D01*
X132000000Y-58698549D01*
X131941190Y-58704341D01*
X131884640Y-58721496D01*
X131832523Y-58749353D01*
X131786842Y-58786842D01*
X131749353Y-58832523D01*
X131721496Y-58884640D01*
X131704341Y-58941190D01*
X131698549Y-59000000D01*
X121325000Y-59000000D01*
X121325000Y-57000000D01*
X131698549Y-57000000D01*
X131698549Y-58000000D01*
X131704341Y-58058810D01*
X131721496Y-58115360D01*
X131749353Y-58167477D01*
X131786842Y-58213158D01*
X131832523Y-58250647D01*
X131884640Y-58278504D01*
X131941190Y-58295659D01*
X132000000Y-58301451D01*
X133000000Y-58301451D01*
X133058810Y-58295659D01*
X133115360Y-58278504D01*
X133167477Y-58250647D01*
X133213158Y-58213158D01*
X133250647Y-58167477D01*
X133273351Y-58125000D01*
X134976472Y-58125000D01*
X135017522Y-58166050D01*
X135115793Y-58231713D01*
X135224986Y-58276942D01*
X135340905Y-58300000D01*
X135459095Y-58300000D01*
X135575014Y-58276942D01*
X135684207Y-58231713D01*
X135782478Y-58166050D01*
X135866050Y-58082478D01*
X135931713Y-57984207D01*
X135976942Y-57875014D01*
X136000000Y-57759095D01*
X136000000Y-57640905D01*
X135976942Y-57524986D01*
X135931713Y-57415793D01*
X135866050Y-57317522D01*
X135782478Y-57233950D01*
X135684207Y-57168287D01*
X135575014Y-57123058D01*
X135459095Y-57100000D01*
X135340905Y-57100000D01*
X135224986Y-57123058D01*
X135115793Y-57168287D01*
X135017522Y-57233950D01*
X134976472Y-57275000D01*
X133301451Y-57275000D01*
X133301451Y-57000000D01*
X133295659Y-56941190D01*
X133278504Y-56884640D01*
X133250647Y-56832523D01*
X133213158Y-56786842D01*
X133167477Y-56749353D01*
X133115360Y-56721496D01*
X133058810Y-56704341D01*
X133000000Y-56698549D01*
X132000000Y-56698549D01*
X131941190Y-56704341D01*
X131884640Y-56721496D01*
X131832523Y-56749353D01*
X131786842Y-56786842D01*
X131749353Y-56832523D01*
X131721496Y-56884640D01*
X131704341Y-56941190D01*
X131698549Y-57000000D01*
X121325000Y-57000000D01*
X121325000Y-51140905D01*
X126500000Y-51140905D01*
X126500000Y-51259095D01*
X126523058Y-51375014D01*
X126568287Y-51484207D01*
X126633950Y-51582478D01*
X126717522Y-51666050D01*
X126815793Y-51731713D01*
X126924986Y-51776942D01*
X127040905Y-51800000D01*
X127159095Y-51800000D01*
X127275014Y-51776942D01*
X127384207Y-51731713D01*
X127482478Y-51666050D01*
X127566050Y-51582478D01*
X127631713Y-51484207D01*
X127676942Y-51375014D01*
X127700000Y-51259095D01*
X127700000Y-51140905D01*
X127676942Y-51024986D01*
X127631713Y-50915793D01*
X127566050Y-50817522D01*
X127482478Y-50733950D01*
X127384207Y-50668287D01*
X127275014Y-50623058D01*
X127159095Y-50600000D01*
X127040905Y-50600000D01*
X126924986Y-50623058D01*
X126815793Y-50668287D01*
X126717522Y-50733950D01*
X126633950Y-50817522D01*
X126568287Y-50915793D01*
X126523058Y-51024986D01*
X126500000Y-51140905D01*
X121325000Y-51140905D01*
X121325000Y-49015897D01*
X121358429Y-48674960D01*
X121452827Y-48362301D01*
X121606156Y-48073932D01*
X121812578Y-47820833D01*
X122064223Y-47612655D01*
X122351518Y-47457315D01*
X122663508Y-47360739D01*
X123003540Y-47325000D01*
X158984103Y-47325000D01*
X159325040Y-47358429D01*
G37*
G04 #@! TD.AperFunction*
M02*
