G04 #@! TF.GenerationSoftware,KiCad,Pcbnew,(5.1.9)-1*
G04 #@! TF.CreationDate,2021-03-03T07:25:27+02:00*
G04 #@! TF.ProjectId,reverse,72657665-7273-4652-9e6b-696361645f70,rev?*
G04 #@! TF.SameCoordinates,Original*
G04 #@! TF.FileFunction,Soldermask,Top*
G04 #@! TF.FilePolarity,Negative*
%FSLAX46Y46*%
G04 Gerber Fmt 4.6, Leading zero omitted, Abs format (unit mm)*
G04 Created by KiCad (PCBNEW (5.1.9)-1) date 2021-03-03 07:25:27*
%MOMM*%
%LPD*%
G01*
G04 APERTURE LIST*
%ADD10C,0.150000*%
%ADD11C,0.250000*%
%ADD12C,0.010000*%
%ADD13C,1.000000*%
%ADD14R,0.400000X0.510000*%
%ADD15C,0.100000*%
%ADD16R,1.000000X1.000000*%
%ADD17R,1.550000X1.300000*%
%ADD18O,1.700000X1.700000*%
%ADD19R,1.700000X1.700000*%
G04 APERTURE END LIST*
D10*
X147171428Y-72485714D02*
X146771428Y-72485714D01*
X146885714Y-72485714D02*
X146828571Y-72457142D01*
X146800000Y-72428571D01*
X146771428Y-72371428D01*
X146771428Y-72314285D01*
X147142857Y-71885714D02*
X147171428Y-71942857D01*
X147171428Y-72057142D01*
X147142857Y-72114285D01*
X147085714Y-72142857D01*
X146857142Y-72142857D01*
X146800000Y-72114285D01*
X146771428Y-72057142D01*
X146771428Y-71942857D01*
X146800000Y-71885714D01*
X146857142Y-71857142D01*
X146914285Y-71857142D01*
X146971428Y-72142857D01*
X146771428Y-71657142D02*
X147171428Y-71514285D01*
X146771428Y-71371428D01*
X147000000Y-71171428D02*
X147000000Y-70885714D01*
X147171428Y-71228571D02*
X146571428Y-71028571D01*
X147171428Y-70828571D01*
D11*
X159185714Y-66724776D02*
X159852380Y-66617633D01*
X159376190Y-66367633D01*
X159852380Y-66236681D01*
X159185714Y-65962872D01*
X159185714Y-65677157D02*
X159852380Y-65570014D01*
X159376190Y-65320014D01*
X159852380Y-65189062D01*
X159185714Y-64915252D01*
X159185714Y-64629538D02*
X159852380Y-64522395D01*
X159376190Y-64272395D01*
X159852380Y-64141443D01*
X159185714Y-63867633D01*
X159757142Y-63558110D02*
X159804761Y-63516443D01*
X159852380Y-63570014D01*
X159804761Y-63611681D01*
X159757142Y-63558110D01*
X159852380Y-63570014D01*
X159185714Y-63105729D02*
X159852380Y-62950967D01*
X159185714Y-62629538D01*
X159852380Y-62189062D02*
X159804761Y-62278348D01*
X159757142Y-62320014D01*
X159661904Y-62355729D01*
X159376190Y-62320014D01*
X159280952Y-62260491D01*
X159233333Y-62206919D01*
X159185714Y-62105729D01*
X159185714Y-61962872D01*
X159233333Y-61873586D01*
X159280952Y-61831919D01*
X159376190Y-61796205D01*
X159661904Y-61831919D01*
X159757142Y-61891443D01*
X159804761Y-61945014D01*
X159852380Y-62046205D01*
X159852380Y-62189062D01*
X159852380Y-61284300D02*
X159804761Y-61373586D01*
X159709523Y-61409300D01*
X158852380Y-61302157D01*
X159185714Y-60962872D02*
X159185714Y-60581919D01*
X158852380Y-60778348D02*
X159709523Y-60885491D01*
X159804761Y-60849776D01*
X159852380Y-60760491D01*
X159852380Y-60665252D01*
X159852380Y-60189062D02*
X159804761Y-60278348D01*
X159709523Y-60314062D01*
X158852380Y-60206919D01*
X159852380Y-59665252D02*
X159804761Y-59754538D01*
X159757142Y-59796205D01*
X159661904Y-59831919D01*
X159376190Y-59796205D01*
X159280952Y-59736681D01*
X159233333Y-59683110D01*
X159185714Y-59581919D01*
X159185714Y-59439062D01*
X159233333Y-59349776D01*
X159280952Y-59308110D01*
X159376190Y-59272395D01*
X159661904Y-59308110D01*
X159757142Y-59367633D01*
X159804761Y-59421205D01*
X159852380Y-59522395D01*
X159852380Y-59665252D01*
X159185714Y-58391443D02*
X159995238Y-58492633D01*
X160090476Y-58552157D01*
X160138095Y-58605729D01*
X160185714Y-58706919D01*
X160185714Y-58849776D01*
X160138095Y-58939062D01*
X159804761Y-58468824D02*
X159852380Y-58570014D01*
X159852380Y-58760491D01*
X159804761Y-58849776D01*
X159757142Y-58891443D01*
X159661904Y-58927157D01*
X159376190Y-58891443D01*
X159280952Y-58831919D01*
X159233333Y-58778348D01*
X159185714Y-58677157D01*
X159185714Y-58486681D01*
X159233333Y-58397395D01*
X159757142Y-57986681D02*
X159804761Y-57945014D01*
X159852380Y-57998586D01*
X159804761Y-58040252D01*
X159757142Y-57986681D01*
X159852380Y-57998586D01*
X159804761Y-57087872D02*
X159852380Y-57189062D01*
X159852380Y-57379538D01*
X159804761Y-57468824D01*
X159757142Y-57510491D01*
X159661904Y-57546205D01*
X159376190Y-57510491D01*
X159280952Y-57450967D01*
X159233333Y-57397395D01*
X159185714Y-57296205D01*
X159185714Y-57105729D01*
X159233333Y-57016443D01*
X159852380Y-56522395D02*
X159804761Y-56611681D01*
X159757142Y-56653348D01*
X159661904Y-56689062D01*
X159376190Y-56653348D01*
X159280952Y-56593824D01*
X159233333Y-56540252D01*
X159185714Y-56439062D01*
X159185714Y-56296205D01*
X159233333Y-56206919D01*
X159280952Y-56165252D01*
X159376190Y-56129538D01*
X159661904Y-56165252D01*
X159757142Y-56224776D01*
X159804761Y-56278348D01*
X159852380Y-56379538D01*
X159852380Y-56522395D01*
X159852380Y-55760491D02*
X159185714Y-55677157D01*
X159280952Y-55689062D02*
X159233333Y-55635491D01*
X159185714Y-55534300D01*
X159185714Y-55391443D01*
X159233333Y-55302157D01*
X159328571Y-55266443D01*
X159852380Y-55331919D01*
X159328571Y-55266443D02*
X159233333Y-55206919D01*
X159185714Y-55105729D01*
X159185714Y-54962872D01*
X159233333Y-54873586D01*
X159328571Y-54837872D01*
X159852380Y-54903348D01*
D12*
G36*
X154936747Y-60549388D02*
G01*
X154938269Y-60434942D01*
X154940669Y-60322670D01*
X154943968Y-60213563D01*
X154948183Y-60108613D01*
X154953335Y-60008808D01*
X154959373Y-59916111D01*
X154966354Y-59829241D01*
X154974053Y-59753690D01*
X154982929Y-59688078D01*
X154993440Y-59631028D01*
X155006046Y-59581160D01*
X155021204Y-59537097D01*
X155039373Y-59497458D01*
X155061013Y-59460867D01*
X155086582Y-59425943D01*
X155116539Y-59391308D01*
X155143192Y-59363661D01*
X155184695Y-59324735D01*
X155225608Y-59292298D01*
X155267910Y-59265492D01*
X155313577Y-59243458D01*
X155364589Y-59225337D01*
X155422923Y-59210272D01*
X155490556Y-59197402D01*
X155545187Y-59189143D01*
X155596968Y-59182242D01*
X155645506Y-59176504D01*
X155692683Y-59171832D01*
X155740386Y-59168126D01*
X155790498Y-59165288D01*
X155844905Y-59163222D01*
X155905491Y-59161827D01*
X155974141Y-59161007D01*
X156052740Y-59160663D01*
X156092517Y-59160638D01*
X156200542Y-59161202D01*
X156297345Y-59162906D01*
X156384361Y-59165859D01*
X156463027Y-59170170D01*
X156534776Y-59175947D01*
X156601046Y-59183299D01*
X156663272Y-59192335D01*
X156722889Y-59203164D01*
X156761080Y-59211250D01*
X156841825Y-59235237D01*
X156916414Y-59269335D01*
X156984019Y-59312713D01*
X157043813Y-59364541D01*
X157094969Y-59423990D01*
X157136658Y-59490227D01*
X157168053Y-59562424D01*
X157188326Y-59639750D01*
X157188351Y-59639886D01*
X157190676Y-59656651D01*
X157192598Y-59679604D01*
X157194146Y-59709737D01*
X157195345Y-59748047D01*
X157196223Y-59795527D01*
X157196808Y-59853171D01*
X157197125Y-59921973D01*
X157197195Y-59964796D01*
X157197417Y-60242081D01*
X157237104Y-60279961D01*
X157248416Y-60290388D01*
X157268421Y-60308412D01*
X157296251Y-60333265D01*
X157331040Y-60364183D01*
X157371924Y-60400397D01*
X157418035Y-60441142D01*
X157468507Y-60485652D01*
X157522475Y-60533160D01*
X157579072Y-60582900D01*
X157626042Y-60624118D01*
X157683818Y-60674823D01*
X157739435Y-60723703D01*
X157792053Y-60770020D01*
X157840837Y-60813032D01*
X157884950Y-60851999D01*
X157923554Y-60886183D01*
X157955813Y-60914842D01*
X157980890Y-60937237D01*
X157997948Y-60952627D01*
X158005454Y-60959589D01*
X158025892Y-60982677D01*
X158034854Y-61001572D01*
X158032589Y-61016969D01*
X158027997Y-61022916D01*
X158015150Y-61029728D01*
X158009466Y-61030536D01*
X158001637Y-61028487D01*
X157982915Y-61022586D01*
X157954386Y-61013200D01*
X157917135Y-61000699D01*
X157872247Y-60985451D01*
X157820808Y-60967824D01*
X157763903Y-60948187D01*
X157702617Y-60926909D01*
X157644023Y-60906454D01*
X157575436Y-60882455D01*
X157506890Y-60858483D01*
X157439960Y-60835087D01*
X157376219Y-60812816D01*
X157317239Y-60792220D01*
X157264595Y-60773849D01*
X157219858Y-60758251D01*
X157184604Y-60745976D01*
X157168842Y-60740499D01*
X157128386Y-60726074D01*
X157088817Y-60711271D01*
X157052938Y-60697190D01*
X157023554Y-60684931D01*
X157003742Y-60675735D01*
X156958549Y-60646785D01*
X156915550Y-60608765D01*
X156878309Y-60565231D01*
X156853405Y-60525711D01*
X156843046Y-60505417D01*
X156834482Y-60486913D01*
X156827542Y-60468755D01*
X156822055Y-60449502D01*
X156817848Y-60427711D01*
X156814751Y-60401939D01*
X156812591Y-60370744D01*
X156811198Y-60332682D01*
X156810400Y-60286311D01*
X156810026Y-60230188D01*
X156809903Y-60162871D01*
X156809901Y-60159670D01*
X156809524Y-60062170D01*
X156808520Y-59976939D01*
X156806870Y-59903562D01*
X156804552Y-59841622D01*
X156801547Y-59790705D01*
X156797835Y-59750393D01*
X156793394Y-59720271D01*
X156788205Y-59699923D01*
X156787365Y-59697698D01*
X156770133Y-59669451D01*
X156743735Y-59644057D01*
X156711707Y-59624520D01*
X156692869Y-59617330D01*
X156645757Y-59605798D01*
X156587561Y-59595755D01*
X156519812Y-59587222D01*
X156444039Y-59580219D01*
X156361773Y-59574769D01*
X156274546Y-59570891D01*
X156183887Y-59568607D01*
X156091327Y-59567938D01*
X155998397Y-59568904D01*
X155906627Y-59571527D01*
X155817548Y-59575828D01*
X155732691Y-59581828D01*
X155653585Y-59589547D01*
X155581762Y-59599007D01*
X155563897Y-59601850D01*
X155513106Y-59611874D01*
X155473389Y-59624117D01*
X155443139Y-59640103D01*
X155420747Y-59661353D01*
X155404608Y-59689391D01*
X155393114Y-59725741D01*
X155384696Y-59771660D01*
X155377984Y-59826208D01*
X155371903Y-59892228D01*
X155366466Y-59968507D01*
X155361682Y-60053831D01*
X155357563Y-60146989D01*
X155354119Y-60246766D01*
X155351362Y-60351950D01*
X155349303Y-60461327D01*
X155347951Y-60573686D01*
X155347319Y-60687812D01*
X155347417Y-60802494D01*
X155348256Y-60916517D01*
X155349847Y-61028669D01*
X155352200Y-61137736D01*
X155355328Y-61242507D01*
X155359240Y-61341767D01*
X155363947Y-61434305D01*
X155369039Y-61513136D01*
X155374569Y-61582666D01*
X155380660Y-61640677D01*
X155388022Y-61688350D01*
X155397367Y-61726864D01*
X155409404Y-61757401D01*
X155424844Y-61781141D01*
X155444397Y-61799264D01*
X155468774Y-61812950D01*
X155498684Y-61823381D01*
X155534839Y-61831735D01*
X155563897Y-61836923D01*
X155633483Y-61846852D01*
X155710763Y-61855036D01*
X155794208Y-61861495D01*
X155882286Y-61866250D01*
X155973468Y-61869323D01*
X156066223Y-61870735D01*
X156159021Y-61870505D01*
X156250331Y-61868657D01*
X156338623Y-61865209D01*
X156422366Y-61860184D01*
X156500030Y-61853602D01*
X156570085Y-61845485D01*
X156631000Y-61835853D01*
X156681244Y-61824726D01*
X156692809Y-61821461D01*
X156728648Y-61804372D01*
X156758533Y-61777294D01*
X156779337Y-61743911D01*
X156785811Y-61722132D01*
X156791354Y-61688325D01*
X156795923Y-61643130D01*
X156799473Y-61587189D01*
X156801960Y-61521142D01*
X156803340Y-61445631D01*
X156803622Y-61391941D01*
X156803717Y-61248520D01*
X156760854Y-61207598D01*
X156747789Y-61195497D01*
X156726241Y-61175996D01*
X156697289Y-61150052D01*
X156662011Y-61118623D01*
X156621487Y-61082669D01*
X156576794Y-61043146D01*
X156529011Y-61001013D01*
X156479218Y-60957228D01*
X156461233Y-60941444D01*
X156407902Y-60894660D01*
X156353667Y-60847081D01*
X156300000Y-60800000D01*
X156248378Y-60754711D01*
X156200276Y-60712507D01*
X156157167Y-60674684D01*
X156120528Y-60642534D01*
X156091833Y-60617352D01*
X156089758Y-60615531D01*
X156057245Y-60586599D01*
X156027810Y-60559648D01*
X156002868Y-60536036D01*
X155983832Y-60517119D01*
X155972117Y-60504253D01*
X155969121Y-60499836D01*
X155966959Y-60485163D01*
X155974867Y-60471929D01*
X155985224Y-60462388D01*
X155991767Y-60459036D01*
X155998607Y-60461078D01*
X156016280Y-60466940D01*
X156043640Y-60476226D01*
X156079540Y-60488542D01*
X156122832Y-60503492D01*
X156172372Y-60520681D01*
X156227011Y-60539714D01*
X156285603Y-60560196D01*
X156303521Y-60566473D01*
X156371111Y-60590152D01*
X156441681Y-60614854D01*
X156513009Y-60639804D01*
X156582876Y-60664224D01*
X156649061Y-60687340D01*
X156709343Y-60708374D01*
X156761500Y-60726552D01*
X156793485Y-60737682D01*
X156841216Y-60754558D01*
X156886716Y-60771174D01*
X156928126Y-60786812D01*
X156963589Y-60800752D01*
X156991246Y-60812276D01*
X157009239Y-60820665D01*
X157012257Y-60822333D01*
X157061783Y-60858497D01*
X157106071Y-60904445D01*
X157143285Y-60957723D01*
X157171587Y-61015880D01*
X157183056Y-61050376D01*
X157185482Y-61060128D01*
X157187534Y-61071117D01*
X157189243Y-61084434D01*
X157190638Y-61101169D01*
X157191751Y-61122414D01*
X157192614Y-61149259D01*
X157193255Y-61182795D01*
X157193708Y-61224114D01*
X157194001Y-61274305D01*
X157194166Y-61334460D01*
X157194234Y-61405669D01*
X157194242Y-61446461D01*
X157194242Y-61802061D01*
X157172816Y-61863933D01*
X157139349Y-61942480D01*
X157096274Y-62012751D01*
X157043728Y-62074590D01*
X156981849Y-62127840D01*
X156910777Y-62172347D01*
X156889442Y-62183127D01*
X156849990Y-62200056D01*
X156805587Y-62215010D01*
X156754965Y-62228243D01*
X156696857Y-62240007D01*
X156629997Y-62250554D01*
X156553117Y-62260139D01*
X156464952Y-62269014D01*
X156454467Y-62269962D01*
X156419927Y-62272317D01*
X156374644Y-62274281D01*
X156320565Y-62275852D01*
X156259640Y-62277032D01*
X156193819Y-62277821D01*
X156125050Y-62278217D01*
X156055284Y-62278222D01*
X155986469Y-62277835D01*
X155920555Y-62277056D01*
X155859492Y-62275885D01*
X155805228Y-62274322D01*
X155759713Y-62272368D01*
X155724897Y-62270022D01*
X155724217Y-62269962D01*
X155631943Y-62260869D01*
X155551071Y-62250939D01*
X155480313Y-62239786D01*
X155418378Y-62227022D01*
X155363977Y-62212262D01*
X155315820Y-62195117D01*
X155272618Y-62175202D01*
X155233081Y-62152130D01*
X155195920Y-62125513D01*
X155169497Y-62103575D01*
X155110687Y-62044867D01*
X155063274Y-61981366D01*
X155026443Y-61911754D01*
X154999374Y-61834714D01*
X154996805Y-61825144D01*
X154988067Y-61784282D01*
X154979937Y-61731724D01*
X154972432Y-61668461D01*
X154965572Y-61595484D01*
X154959378Y-61513784D01*
X154953867Y-61424350D01*
X154949061Y-61328175D01*
X154944977Y-61226248D01*
X154941636Y-61119560D01*
X154939057Y-61009103D01*
X154937259Y-60895866D01*
X154936262Y-60780841D01*
X154936085Y-60665018D01*
X154936747Y-60549388D01*
G37*
X154936747Y-60549388D02*
X154938269Y-60434942D01*
X154940669Y-60322670D01*
X154943968Y-60213563D01*
X154948183Y-60108613D01*
X154953335Y-60008808D01*
X154959373Y-59916111D01*
X154966354Y-59829241D01*
X154974053Y-59753690D01*
X154982929Y-59688078D01*
X154993440Y-59631028D01*
X155006046Y-59581160D01*
X155021204Y-59537097D01*
X155039373Y-59497458D01*
X155061013Y-59460867D01*
X155086582Y-59425943D01*
X155116539Y-59391308D01*
X155143192Y-59363661D01*
X155184695Y-59324735D01*
X155225608Y-59292298D01*
X155267910Y-59265492D01*
X155313577Y-59243458D01*
X155364589Y-59225337D01*
X155422923Y-59210272D01*
X155490556Y-59197402D01*
X155545187Y-59189143D01*
X155596968Y-59182242D01*
X155645506Y-59176504D01*
X155692683Y-59171832D01*
X155740386Y-59168126D01*
X155790498Y-59165288D01*
X155844905Y-59163222D01*
X155905491Y-59161827D01*
X155974141Y-59161007D01*
X156052740Y-59160663D01*
X156092517Y-59160638D01*
X156200542Y-59161202D01*
X156297345Y-59162906D01*
X156384361Y-59165859D01*
X156463027Y-59170170D01*
X156534776Y-59175947D01*
X156601046Y-59183299D01*
X156663272Y-59192335D01*
X156722889Y-59203164D01*
X156761080Y-59211250D01*
X156841825Y-59235237D01*
X156916414Y-59269335D01*
X156984019Y-59312713D01*
X157043813Y-59364541D01*
X157094969Y-59423990D01*
X157136658Y-59490227D01*
X157168053Y-59562424D01*
X157188326Y-59639750D01*
X157188351Y-59639886D01*
X157190676Y-59656651D01*
X157192598Y-59679604D01*
X157194146Y-59709737D01*
X157195345Y-59748047D01*
X157196223Y-59795527D01*
X157196808Y-59853171D01*
X157197125Y-59921973D01*
X157197195Y-59964796D01*
X157197417Y-60242081D01*
X157237104Y-60279961D01*
X157248416Y-60290388D01*
X157268421Y-60308412D01*
X157296251Y-60333265D01*
X157331040Y-60364183D01*
X157371924Y-60400397D01*
X157418035Y-60441142D01*
X157468507Y-60485652D01*
X157522475Y-60533160D01*
X157579072Y-60582900D01*
X157626042Y-60624118D01*
X157683818Y-60674823D01*
X157739435Y-60723703D01*
X157792053Y-60770020D01*
X157840837Y-60813032D01*
X157884950Y-60851999D01*
X157923554Y-60886183D01*
X157955813Y-60914842D01*
X157980890Y-60937237D01*
X157997948Y-60952627D01*
X158005454Y-60959589D01*
X158025892Y-60982677D01*
X158034854Y-61001572D01*
X158032589Y-61016969D01*
X158027997Y-61022916D01*
X158015150Y-61029728D01*
X158009466Y-61030536D01*
X158001637Y-61028487D01*
X157982915Y-61022586D01*
X157954386Y-61013200D01*
X157917135Y-61000699D01*
X157872247Y-60985451D01*
X157820808Y-60967824D01*
X157763903Y-60948187D01*
X157702617Y-60926909D01*
X157644023Y-60906454D01*
X157575436Y-60882455D01*
X157506890Y-60858483D01*
X157439960Y-60835087D01*
X157376219Y-60812816D01*
X157317239Y-60792220D01*
X157264595Y-60773849D01*
X157219858Y-60758251D01*
X157184604Y-60745976D01*
X157168842Y-60740499D01*
X157128386Y-60726074D01*
X157088817Y-60711271D01*
X157052938Y-60697190D01*
X157023554Y-60684931D01*
X157003742Y-60675735D01*
X156958549Y-60646785D01*
X156915550Y-60608765D01*
X156878309Y-60565231D01*
X156853405Y-60525711D01*
X156843046Y-60505417D01*
X156834482Y-60486913D01*
X156827542Y-60468755D01*
X156822055Y-60449502D01*
X156817848Y-60427711D01*
X156814751Y-60401939D01*
X156812591Y-60370744D01*
X156811198Y-60332682D01*
X156810400Y-60286311D01*
X156810026Y-60230188D01*
X156809903Y-60162871D01*
X156809901Y-60159670D01*
X156809524Y-60062170D01*
X156808520Y-59976939D01*
X156806870Y-59903562D01*
X156804552Y-59841622D01*
X156801547Y-59790705D01*
X156797835Y-59750393D01*
X156793394Y-59720271D01*
X156788205Y-59699923D01*
X156787365Y-59697698D01*
X156770133Y-59669451D01*
X156743735Y-59644057D01*
X156711707Y-59624520D01*
X156692869Y-59617330D01*
X156645757Y-59605798D01*
X156587561Y-59595755D01*
X156519812Y-59587222D01*
X156444039Y-59580219D01*
X156361773Y-59574769D01*
X156274546Y-59570891D01*
X156183887Y-59568607D01*
X156091327Y-59567938D01*
X155998397Y-59568904D01*
X155906627Y-59571527D01*
X155817548Y-59575828D01*
X155732691Y-59581828D01*
X155653585Y-59589547D01*
X155581762Y-59599007D01*
X155563897Y-59601850D01*
X155513106Y-59611874D01*
X155473389Y-59624117D01*
X155443139Y-59640103D01*
X155420747Y-59661353D01*
X155404608Y-59689391D01*
X155393114Y-59725741D01*
X155384696Y-59771660D01*
X155377984Y-59826208D01*
X155371903Y-59892228D01*
X155366466Y-59968507D01*
X155361682Y-60053831D01*
X155357563Y-60146989D01*
X155354119Y-60246766D01*
X155351362Y-60351950D01*
X155349303Y-60461327D01*
X155347951Y-60573686D01*
X155347319Y-60687812D01*
X155347417Y-60802494D01*
X155348256Y-60916517D01*
X155349847Y-61028669D01*
X155352200Y-61137736D01*
X155355328Y-61242507D01*
X155359240Y-61341767D01*
X155363947Y-61434305D01*
X155369039Y-61513136D01*
X155374569Y-61582666D01*
X155380660Y-61640677D01*
X155388022Y-61688350D01*
X155397367Y-61726864D01*
X155409404Y-61757401D01*
X155424844Y-61781141D01*
X155444397Y-61799264D01*
X155468774Y-61812950D01*
X155498684Y-61823381D01*
X155534839Y-61831735D01*
X155563897Y-61836923D01*
X155633483Y-61846852D01*
X155710763Y-61855036D01*
X155794208Y-61861495D01*
X155882286Y-61866250D01*
X155973468Y-61869323D01*
X156066223Y-61870735D01*
X156159021Y-61870505D01*
X156250331Y-61868657D01*
X156338623Y-61865209D01*
X156422366Y-61860184D01*
X156500030Y-61853602D01*
X156570085Y-61845485D01*
X156631000Y-61835853D01*
X156681244Y-61824726D01*
X156692809Y-61821461D01*
X156728648Y-61804372D01*
X156758533Y-61777294D01*
X156779337Y-61743911D01*
X156785811Y-61722132D01*
X156791354Y-61688325D01*
X156795923Y-61643130D01*
X156799473Y-61587189D01*
X156801960Y-61521142D01*
X156803340Y-61445631D01*
X156803622Y-61391941D01*
X156803717Y-61248520D01*
X156760854Y-61207598D01*
X156747789Y-61195497D01*
X156726241Y-61175996D01*
X156697289Y-61150052D01*
X156662011Y-61118623D01*
X156621487Y-61082669D01*
X156576794Y-61043146D01*
X156529011Y-61001013D01*
X156479218Y-60957228D01*
X156461233Y-60941444D01*
X156407902Y-60894660D01*
X156353667Y-60847081D01*
X156300000Y-60800000D01*
X156248378Y-60754711D01*
X156200276Y-60712507D01*
X156157167Y-60674684D01*
X156120528Y-60642534D01*
X156091833Y-60617352D01*
X156089758Y-60615531D01*
X156057245Y-60586599D01*
X156027810Y-60559648D01*
X156002868Y-60536036D01*
X155983832Y-60517119D01*
X155972117Y-60504253D01*
X155969121Y-60499836D01*
X155966959Y-60485163D01*
X155974867Y-60471929D01*
X155985224Y-60462388D01*
X155991767Y-60459036D01*
X155998607Y-60461078D01*
X156016280Y-60466940D01*
X156043640Y-60476226D01*
X156079540Y-60488542D01*
X156122832Y-60503492D01*
X156172372Y-60520681D01*
X156227011Y-60539714D01*
X156285603Y-60560196D01*
X156303521Y-60566473D01*
X156371111Y-60590152D01*
X156441681Y-60614854D01*
X156513009Y-60639804D01*
X156582876Y-60664224D01*
X156649061Y-60687340D01*
X156709343Y-60708374D01*
X156761500Y-60726552D01*
X156793485Y-60737682D01*
X156841216Y-60754558D01*
X156886716Y-60771174D01*
X156928126Y-60786812D01*
X156963589Y-60800752D01*
X156991246Y-60812276D01*
X157009239Y-60820665D01*
X157012257Y-60822333D01*
X157061783Y-60858497D01*
X157106071Y-60904445D01*
X157143285Y-60957723D01*
X157171587Y-61015880D01*
X157183056Y-61050376D01*
X157185482Y-61060128D01*
X157187534Y-61071117D01*
X157189243Y-61084434D01*
X157190638Y-61101169D01*
X157191751Y-61122414D01*
X157192614Y-61149259D01*
X157193255Y-61182795D01*
X157193708Y-61224114D01*
X157194001Y-61274305D01*
X157194166Y-61334460D01*
X157194234Y-61405669D01*
X157194242Y-61446461D01*
X157194242Y-61802061D01*
X157172816Y-61863933D01*
X157139349Y-61942480D01*
X157096274Y-62012751D01*
X157043728Y-62074590D01*
X156981849Y-62127840D01*
X156910777Y-62172347D01*
X156889442Y-62183127D01*
X156849990Y-62200056D01*
X156805587Y-62215010D01*
X156754965Y-62228243D01*
X156696857Y-62240007D01*
X156629997Y-62250554D01*
X156553117Y-62260139D01*
X156464952Y-62269014D01*
X156454467Y-62269962D01*
X156419927Y-62272317D01*
X156374644Y-62274281D01*
X156320565Y-62275852D01*
X156259640Y-62277032D01*
X156193819Y-62277821D01*
X156125050Y-62278217D01*
X156055284Y-62278222D01*
X155986469Y-62277835D01*
X155920555Y-62277056D01*
X155859492Y-62275885D01*
X155805228Y-62274322D01*
X155759713Y-62272368D01*
X155724897Y-62270022D01*
X155724217Y-62269962D01*
X155631943Y-62260869D01*
X155551071Y-62250939D01*
X155480313Y-62239786D01*
X155418378Y-62227022D01*
X155363977Y-62212262D01*
X155315820Y-62195117D01*
X155272618Y-62175202D01*
X155233081Y-62152130D01*
X155195920Y-62125513D01*
X155169497Y-62103575D01*
X155110687Y-62044867D01*
X155063274Y-61981366D01*
X155026443Y-61911754D01*
X154999374Y-61834714D01*
X154996805Y-61825144D01*
X154988067Y-61784282D01*
X154979937Y-61731724D01*
X154972432Y-61668461D01*
X154965572Y-61595484D01*
X154959378Y-61513784D01*
X154953867Y-61424350D01*
X154949061Y-61328175D01*
X154944977Y-61226248D01*
X154941636Y-61119560D01*
X154939057Y-61009103D01*
X154937259Y-60895866D01*
X154936262Y-60780841D01*
X154936085Y-60665018D01*
X154936747Y-60549388D01*
D13*
X127100000Y-51200000D03*
X159100000Y-74200000D03*
X158500000Y-51400000D03*
D14*
X149250000Y-60900000D03*
X148250000Y-60900000D03*
X148750000Y-59600000D03*
D15*
G36*
X139724693Y-57151201D02*
G01*
X139736418Y-57154758D01*
X139747223Y-57160533D01*
X139756694Y-57168306D01*
X139764467Y-57177777D01*
X139770242Y-57188582D01*
X139773799Y-57200307D01*
X139775000Y-57212500D01*
X139775000Y-57887500D01*
X139773799Y-57899693D01*
X139770242Y-57911418D01*
X139764467Y-57922223D01*
X139756694Y-57931694D01*
X139747223Y-57939467D01*
X139736418Y-57945242D01*
X139724693Y-57948799D01*
X139712500Y-57950000D01*
X139650888Y-57950000D01*
X139638695Y-57948799D01*
X139626970Y-57945242D01*
X139616165Y-57939467D01*
X139606694Y-57931694D01*
X139543306Y-57868306D01*
X139535533Y-57858835D01*
X139529758Y-57848030D01*
X139526201Y-57836305D01*
X139525000Y-57824112D01*
X139525000Y-57212500D01*
X139526201Y-57200307D01*
X139529758Y-57188582D01*
X139535533Y-57177777D01*
X139543306Y-57168306D01*
X139552777Y-57160533D01*
X139563582Y-57154758D01*
X139575307Y-57151201D01*
X139587500Y-57150000D01*
X139712500Y-57150000D01*
X139724693Y-57151201D01*
G37*
G36*
G01*
X139975000Y-57887500D02*
X139975000Y-57212500D01*
G75*
G02*
X140037500Y-57150000I62500J0D01*
G01*
X140162500Y-57150000D01*
G75*
G02*
X140225000Y-57212500I0J-62500D01*
G01*
X140225000Y-57887500D01*
G75*
G02*
X140162500Y-57950000I-62500J0D01*
G01*
X140037500Y-57950000D01*
G75*
G02*
X139975000Y-57887500I0J62500D01*
G01*
G37*
G36*
G01*
X140425000Y-57887500D02*
X140425000Y-57212500D01*
G75*
G02*
X140487500Y-57150000I62500J0D01*
G01*
X140612500Y-57150000D01*
G75*
G02*
X140675000Y-57212500I0J-62500D01*
G01*
X140675000Y-57887500D01*
G75*
G02*
X140612500Y-57950000I-62500J0D01*
G01*
X140487500Y-57950000D01*
G75*
G02*
X140425000Y-57887500I0J62500D01*
G01*
G37*
G36*
G01*
X140875000Y-57887500D02*
X140875000Y-57212500D01*
G75*
G02*
X140937500Y-57150000I62500J0D01*
G01*
X141062500Y-57150000D01*
G75*
G02*
X141125000Y-57212500I0J-62500D01*
G01*
X141125000Y-57887500D01*
G75*
G02*
X141062500Y-57950000I-62500J0D01*
G01*
X140937500Y-57950000D01*
G75*
G02*
X140875000Y-57887500I0J62500D01*
G01*
G37*
G36*
G01*
X141325000Y-57887500D02*
X141325000Y-57212500D01*
G75*
G02*
X141387500Y-57150000I62500J0D01*
G01*
X141512500Y-57150000D01*
G75*
G02*
X141575000Y-57212500I0J-62500D01*
G01*
X141575000Y-57887500D01*
G75*
G02*
X141512500Y-57950000I-62500J0D01*
G01*
X141387500Y-57950000D01*
G75*
G02*
X141325000Y-57887500I0J62500D01*
G01*
G37*
G36*
G01*
X141775000Y-57887500D02*
X141775000Y-57212500D01*
G75*
G02*
X141837500Y-57150000I62500J0D01*
G01*
X141962500Y-57150000D01*
G75*
G02*
X142025000Y-57212500I0J-62500D01*
G01*
X142025000Y-57887500D01*
G75*
G02*
X141962500Y-57950000I-62500J0D01*
G01*
X141837500Y-57950000D01*
G75*
G02*
X141775000Y-57887500I0J62500D01*
G01*
G37*
G36*
X142424693Y-57151201D02*
G01*
X142436418Y-57154758D01*
X142447223Y-57160533D01*
X142456694Y-57168306D01*
X142464467Y-57177777D01*
X142470242Y-57188582D01*
X142473799Y-57200307D01*
X142475000Y-57212500D01*
X142475000Y-57824112D01*
X142473799Y-57836305D01*
X142470242Y-57848030D01*
X142464467Y-57858835D01*
X142456694Y-57868306D01*
X142393306Y-57931694D01*
X142383835Y-57939467D01*
X142373030Y-57945242D01*
X142361305Y-57948799D01*
X142349112Y-57950000D01*
X142287500Y-57950000D01*
X142275307Y-57948799D01*
X142263582Y-57945242D01*
X142252777Y-57939467D01*
X142243306Y-57931694D01*
X142235533Y-57922223D01*
X142229758Y-57911418D01*
X142226201Y-57899693D01*
X142225000Y-57887500D01*
X142225000Y-57212500D01*
X142226201Y-57200307D01*
X142229758Y-57188582D01*
X142235533Y-57177777D01*
X142243306Y-57168306D01*
X142252777Y-57160533D01*
X142263582Y-57154758D01*
X142275307Y-57151201D01*
X142287500Y-57150000D01*
X142412500Y-57150000D01*
X142424693Y-57151201D01*
G37*
G36*
X143299693Y-58026201D02*
G01*
X143311418Y-58029758D01*
X143322223Y-58035533D01*
X143331694Y-58043306D01*
X143339467Y-58052777D01*
X143345242Y-58063582D01*
X143348799Y-58075307D01*
X143350000Y-58087500D01*
X143350000Y-58212500D01*
X143348799Y-58224693D01*
X143345242Y-58236418D01*
X143339467Y-58247223D01*
X143331694Y-58256694D01*
X143322223Y-58264467D01*
X143311418Y-58270242D01*
X143299693Y-58273799D01*
X143287500Y-58275000D01*
X142612500Y-58275000D01*
X142600307Y-58273799D01*
X142588582Y-58270242D01*
X142577777Y-58264467D01*
X142568306Y-58256694D01*
X142560533Y-58247223D01*
X142554758Y-58236418D01*
X142551201Y-58224693D01*
X142550000Y-58212500D01*
X142550000Y-58150888D01*
X142551201Y-58138695D01*
X142554758Y-58126970D01*
X142560533Y-58116165D01*
X142568306Y-58106694D01*
X142631694Y-58043306D01*
X142641165Y-58035533D01*
X142651970Y-58029758D01*
X142663695Y-58026201D01*
X142675888Y-58025000D01*
X143287500Y-58025000D01*
X143299693Y-58026201D01*
G37*
G36*
G01*
X142550000Y-58662500D02*
X142550000Y-58537500D01*
G75*
G02*
X142612500Y-58475000I62500J0D01*
G01*
X143287500Y-58475000D01*
G75*
G02*
X143350000Y-58537500I0J-62500D01*
G01*
X143350000Y-58662500D01*
G75*
G02*
X143287500Y-58725000I-62500J0D01*
G01*
X142612500Y-58725000D01*
G75*
G02*
X142550000Y-58662500I0J62500D01*
G01*
G37*
G36*
G01*
X142550000Y-59112500D02*
X142550000Y-58987500D01*
G75*
G02*
X142612500Y-58925000I62500J0D01*
G01*
X143287500Y-58925000D01*
G75*
G02*
X143350000Y-58987500I0J-62500D01*
G01*
X143350000Y-59112500D01*
G75*
G02*
X143287500Y-59175000I-62500J0D01*
G01*
X142612500Y-59175000D01*
G75*
G02*
X142550000Y-59112500I0J62500D01*
G01*
G37*
G36*
G01*
X142550000Y-59562500D02*
X142550000Y-59437500D01*
G75*
G02*
X142612500Y-59375000I62500J0D01*
G01*
X143287500Y-59375000D01*
G75*
G02*
X143350000Y-59437500I0J-62500D01*
G01*
X143350000Y-59562500D01*
G75*
G02*
X143287500Y-59625000I-62500J0D01*
G01*
X142612500Y-59625000D01*
G75*
G02*
X142550000Y-59562500I0J62500D01*
G01*
G37*
G36*
G01*
X142550000Y-60012500D02*
X142550000Y-59887500D01*
G75*
G02*
X142612500Y-59825000I62500J0D01*
G01*
X143287500Y-59825000D01*
G75*
G02*
X143350000Y-59887500I0J-62500D01*
G01*
X143350000Y-60012500D01*
G75*
G02*
X143287500Y-60075000I-62500J0D01*
G01*
X142612500Y-60075000D01*
G75*
G02*
X142550000Y-60012500I0J62500D01*
G01*
G37*
G36*
G01*
X142550000Y-60462500D02*
X142550000Y-60337500D01*
G75*
G02*
X142612500Y-60275000I62500J0D01*
G01*
X143287500Y-60275000D01*
G75*
G02*
X143350000Y-60337500I0J-62500D01*
G01*
X143350000Y-60462500D01*
G75*
G02*
X143287500Y-60525000I-62500J0D01*
G01*
X142612500Y-60525000D01*
G75*
G02*
X142550000Y-60462500I0J62500D01*
G01*
G37*
G36*
X143299693Y-60726201D02*
G01*
X143311418Y-60729758D01*
X143322223Y-60735533D01*
X143331694Y-60743306D01*
X143339467Y-60752777D01*
X143345242Y-60763582D01*
X143348799Y-60775307D01*
X143350000Y-60787500D01*
X143350000Y-60912500D01*
X143348799Y-60924693D01*
X143345242Y-60936418D01*
X143339467Y-60947223D01*
X143331694Y-60956694D01*
X143322223Y-60964467D01*
X143311418Y-60970242D01*
X143299693Y-60973799D01*
X143287500Y-60975000D01*
X142675888Y-60975000D01*
X142663695Y-60973799D01*
X142651970Y-60970242D01*
X142641165Y-60964467D01*
X142631694Y-60956694D01*
X142568306Y-60893306D01*
X142560533Y-60883835D01*
X142554758Y-60873030D01*
X142551201Y-60861305D01*
X142550000Y-60849112D01*
X142550000Y-60787500D01*
X142551201Y-60775307D01*
X142554758Y-60763582D01*
X142560533Y-60752777D01*
X142568306Y-60743306D01*
X142577777Y-60735533D01*
X142588582Y-60729758D01*
X142600307Y-60726201D01*
X142612500Y-60725000D01*
X143287500Y-60725000D01*
X143299693Y-60726201D01*
G37*
G36*
X142361305Y-61051201D02*
G01*
X142373030Y-61054758D01*
X142383835Y-61060533D01*
X142393306Y-61068306D01*
X142456694Y-61131694D01*
X142464467Y-61141165D01*
X142470242Y-61151970D01*
X142473799Y-61163695D01*
X142475000Y-61175888D01*
X142475000Y-61787500D01*
X142473799Y-61799693D01*
X142470242Y-61811418D01*
X142464467Y-61822223D01*
X142456694Y-61831694D01*
X142447223Y-61839467D01*
X142436418Y-61845242D01*
X142424693Y-61848799D01*
X142412500Y-61850000D01*
X142287500Y-61850000D01*
X142275307Y-61848799D01*
X142263582Y-61845242D01*
X142252777Y-61839467D01*
X142243306Y-61831694D01*
X142235533Y-61822223D01*
X142229758Y-61811418D01*
X142226201Y-61799693D01*
X142225000Y-61787500D01*
X142225000Y-61112500D01*
X142226201Y-61100307D01*
X142229758Y-61088582D01*
X142235533Y-61077777D01*
X142243306Y-61068306D01*
X142252777Y-61060533D01*
X142263582Y-61054758D01*
X142275307Y-61051201D01*
X142287500Y-61050000D01*
X142349112Y-61050000D01*
X142361305Y-61051201D01*
G37*
G36*
G01*
X141775000Y-61787500D02*
X141775000Y-61112500D01*
G75*
G02*
X141837500Y-61050000I62500J0D01*
G01*
X141962500Y-61050000D01*
G75*
G02*
X142025000Y-61112500I0J-62500D01*
G01*
X142025000Y-61787500D01*
G75*
G02*
X141962500Y-61850000I-62500J0D01*
G01*
X141837500Y-61850000D01*
G75*
G02*
X141775000Y-61787500I0J62500D01*
G01*
G37*
G36*
G01*
X141325000Y-61787500D02*
X141325000Y-61112500D01*
G75*
G02*
X141387500Y-61050000I62500J0D01*
G01*
X141512500Y-61050000D01*
G75*
G02*
X141575000Y-61112500I0J-62500D01*
G01*
X141575000Y-61787500D01*
G75*
G02*
X141512500Y-61850000I-62500J0D01*
G01*
X141387500Y-61850000D01*
G75*
G02*
X141325000Y-61787500I0J62500D01*
G01*
G37*
G36*
G01*
X140875000Y-61787500D02*
X140875000Y-61112500D01*
G75*
G02*
X140937500Y-61050000I62500J0D01*
G01*
X141062500Y-61050000D01*
G75*
G02*
X141125000Y-61112500I0J-62500D01*
G01*
X141125000Y-61787500D01*
G75*
G02*
X141062500Y-61850000I-62500J0D01*
G01*
X140937500Y-61850000D01*
G75*
G02*
X140875000Y-61787500I0J62500D01*
G01*
G37*
G36*
G01*
X140425000Y-61787500D02*
X140425000Y-61112500D01*
G75*
G02*
X140487500Y-61050000I62500J0D01*
G01*
X140612500Y-61050000D01*
G75*
G02*
X140675000Y-61112500I0J-62500D01*
G01*
X140675000Y-61787500D01*
G75*
G02*
X140612500Y-61850000I-62500J0D01*
G01*
X140487500Y-61850000D01*
G75*
G02*
X140425000Y-61787500I0J62500D01*
G01*
G37*
G36*
G01*
X139975000Y-61787500D02*
X139975000Y-61112500D01*
G75*
G02*
X140037500Y-61050000I62500J0D01*
G01*
X140162500Y-61050000D01*
G75*
G02*
X140225000Y-61112500I0J-62500D01*
G01*
X140225000Y-61787500D01*
G75*
G02*
X140162500Y-61850000I-62500J0D01*
G01*
X140037500Y-61850000D01*
G75*
G02*
X139975000Y-61787500I0J62500D01*
G01*
G37*
G36*
X139724693Y-61051201D02*
G01*
X139736418Y-61054758D01*
X139747223Y-61060533D01*
X139756694Y-61068306D01*
X139764467Y-61077777D01*
X139770242Y-61088582D01*
X139773799Y-61100307D01*
X139775000Y-61112500D01*
X139775000Y-61787500D01*
X139773799Y-61799693D01*
X139770242Y-61811418D01*
X139764467Y-61822223D01*
X139756694Y-61831694D01*
X139747223Y-61839467D01*
X139736418Y-61845242D01*
X139724693Y-61848799D01*
X139712500Y-61850000D01*
X139587500Y-61850000D01*
X139575307Y-61848799D01*
X139563582Y-61845242D01*
X139552777Y-61839467D01*
X139543306Y-61831694D01*
X139535533Y-61822223D01*
X139529758Y-61811418D01*
X139526201Y-61799693D01*
X139525000Y-61787500D01*
X139525000Y-61175888D01*
X139526201Y-61163695D01*
X139529758Y-61151970D01*
X139535533Y-61141165D01*
X139543306Y-61131694D01*
X139606694Y-61068306D01*
X139616165Y-61060533D01*
X139626970Y-61054758D01*
X139638695Y-61051201D01*
X139650888Y-61050000D01*
X139712500Y-61050000D01*
X139724693Y-61051201D01*
G37*
G36*
X139399693Y-60726201D02*
G01*
X139411418Y-60729758D01*
X139422223Y-60735533D01*
X139431694Y-60743306D01*
X139439467Y-60752777D01*
X139445242Y-60763582D01*
X139448799Y-60775307D01*
X139450000Y-60787500D01*
X139450000Y-60849112D01*
X139448799Y-60861305D01*
X139445242Y-60873030D01*
X139439467Y-60883835D01*
X139431694Y-60893306D01*
X139368306Y-60956694D01*
X139358835Y-60964467D01*
X139348030Y-60970242D01*
X139336305Y-60973799D01*
X139324112Y-60975000D01*
X138712500Y-60975000D01*
X138700307Y-60973799D01*
X138688582Y-60970242D01*
X138677777Y-60964467D01*
X138668306Y-60956694D01*
X138660533Y-60947223D01*
X138654758Y-60936418D01*
X138651201Y-60924693D01*
X138650000Y-60912500D01*
X138650000Y-60787500D01*
X138651201Y-60775307D01*
X138654758Y-60763582D01*
X138660533Y-60752777D01*
X138668306Y-60743306D01*
X138677777Y-60735533D01*
X138688582Y-60729758D01*
X138700307Y-60726201D01*
X138712500Y-60725000D01*
X139387500Y-60725000D01*
X139399693Y-60726201D01*
G37*
G36*
G01*
X138650000Y-60462500D02*
X138650000Y-60337500D01*
G75*
G02*
X138712500Y-60275000I62500J0D01*
G01*
X139387500Y-60275000D01*
G75*
G02*
X139450000Y-60337500I0J-62500D01*
G01*
X139450000Y-60462500D01*
G75*
G02*
X139387500Y-60525000I-62500J0D01*
G01*
X138712500Y-60525000D01*
G75*
G02*
X138650000Y-60462500I0J62500D01*
G01*
G37*
G36*
G01*
X138650000Y-60012500D02*
X138650000Y-59887500D01*
G75*
G02*
X138712500Y-59825000I62500J0D01*
G01*
X139387500Y-59825000D01*
G75*
G02*
X139450000Y-59887500I0J-62500D01*
G01*
X139450000Y-60012500D01*
G75*
G02*
X139387500Y-60075000I-62500J0D01*
G01*
X138712500Y-60075000D01*
G75*
G02*
X138650000Y-60012500I0J62500D01*
G01*
G37*
G36*
G01*
X138650000Y-59562500D02*
X138650000Y-59437500D01*
G75*
G02*
X138712500Y-59375000I62500J0D01*
G01*
X139387500Y-59375000D01*
G75*
G02*
X139450000Y-59437500I0J-62500D01*
G01*
X139450000Y-59562500D01*
G75*
G02*
X139387500Y-59625000I-62500J0D01*
G01*
X138712500Y-59625000D01*
G75*
G02*
X138650000Y-59562500I0J62500D01*
G01*
G37*
G36*
G01*
X138650000Y-59112500D02*
X138650000Y-58987500D01*
G75*
G02*
X138712500Y-58925000I62500J0D01*
G01*
X139387500Y-58925000D01*
G75*
G02*
X139450000Y-58987500I0J-62500D01*
G01*
X139450000Y-59112500D01*
G75*
G02*
X139387500Y-59175000I-62500J0D01*
G01*
X138712500Y-59175000D01*
G75*
G02*
X138650000Y-59112500I0J62500D01*
G01*
G37*
G36*
G01*
X138650000Y-58662500D02*
X138650000Y-58537500D01*
G75*
G02*
X138712500Y-58475000I62500J0D01*
G01*
X139387500Y-58475000D01*
G75*
G02*
X139450000Y-58537500I0J-62500D01*
G01*
X139450000Y-58662500D01*
G75*
G02*
X139387500Y-58725000I-62500J0D01*
G01*
X138712500Y-58725000D01*
G75*
G02*
X138650000Y-58662500I0J62500D01*
G01*
G37*
G36*
X139336305Y-58026201D02*
G01*
X139348030Y-58029758D01*
X139358835Y-58035533D01*
X139368306Y-58043306D01*
X139431694Y-58106694D01*
X139439467Y-58116165D01*
X139445242Y-58126970D01*
X139448799Y-58138695D01*
X139450000Y-58150888D01*
X139450000Y-58212500D01*
X139448799Y-58224693D01*
X139445242Y-58236418D01*
X139439467Y-58247223D01*
X139431694Y-58256694D01*
X139422223Y-58264467D01*
X139411418Y-58270242D01*
X139399693Y-58273799D01*
X139387500Y-58275000D01*
X138712500Y-58275000D01*
X138700307Y-58273799D01*
X138688582Y-58270242D01*
X138677777Y-58264467D01*
X138668306Y-58256694D01*
X138660533Y-58247223D01*
X138654758Y-58236418D01*
X138651201Y-58224693D01*
X138650000Y-58212500D01*
X138650000Y-58087500D01*
X138651201Y-58075307D01*
X138654758Y-58063582D01*
X138660533Y-58052777D01*
X138668306Y-58043306D01*
X138677777Y-58035533D01*
X138688582Y-58029758D01*
X138700307Y-58026201D01*
X138712500Y-58025000D01*
X139324112Y-58025000D01*
X139336305Y-58026201D01*
G37*
G36*
G01*
X139800000Y-60450000D02*
X139800000Y-58550000D01*
G75*
G02*
X140050000Y-58300000I250000J0D01*
G01*
X141950000Y-58300000D01*
G75*
G02*
X142200000Y-58550000I0J-250000D01*
G01*
X142200000Y-60450000D01*
G75*
G02*
X141950000Y-60700000I-250000J0D01*
G01*
X140050000Y-60700000D01*
G75*
G02*
X139800000Y-60450000I0J250000D01*
G01*
G37*
D16*
X132500000Y-63500000D03*
X132500000Y-61500000D03*
X132500000Y-59500000D03*
X132500000Y-57500000D03*
D17*
X155475000Y-53750000D03*
X155475000Y-49250000D03*
X147525000Y-49250000D03*
X147525000Y-53750000D03*
G36*
G01*
X146243750Y-60350000D02*
X146756250Y-60350000D01*
G75*
G02*
X146975000Y-60568750I0J-218750D01*
G01*
X146975000Y-61006250D01*
G75*
G02*
X146756250Y-61225000I-218750J0D01*
G01*
X146243750Y-61225000D01*
G75*
G02*
X146025000Y-61006250I0J218750D01*
G01*
X146025000Y-60568750D01*
G75*
G02*
X146243750Y-60350000I218750J0D01*
G01*
G37*
G36*
G01*
X146243750Y-58775000D02*
X146756250Y-58775000D01*
G75*
G02*
X146975000Y-58993750I0J-218750D01*
G01*
X146975000Y-59431250D01*
G75*
G02*
X146756250Y-59650000I-218750J0D01*
G01*
X146243750Y-59650000D01*
G75*
G02*
X146025000Y-59431250I0J218750D01*
G01*
X146025000Y-58993750D01*
G75*
G02*
X146243750Y-58775000I218750J0D01*
G01*
G37*
G36*
G01*
X140743750Y-54850000D02*
X141256250Y-54850000D01*
G75*
G02*
X141475000Y-55068750I0J-218750D01*
G01*
X141475000Y-55506250D01*
G75*
G02*
X141256250Y-55725000I-218750J0D01*
G01*
X140743750Y-55725000D01*
G75*
G02*
X140525000Y-55506250I0J218750D01*
G01*
X140525000Y-55068750D01*
G75*
G02*
X140743750Y-54850000I218750J0D01*
G01*
G37*
G36*
G01*
X140743750Y-53275000D02*
X141256250Y-53275000D01*
G75*
G02*
X141475000Y-53493750I0J-218750D01*
G01*
X141475000Y-53931250D01*
G75*
G02*
X141256250Y-54150000I-218750J0D01*
G01*
X140743750Y-54150000D01*
G75*
G02*
X140525000Y-53931250I0J218750D01*
G01*
X140525000Y-53493750D01*
G75*
G02*
X140743750Y-53275000I218750J0D01*
G01*
G37*
G36*
G01*
X139743750Y-65050000D02*
X140256250Y-65050000D01*
G75*
G02*
X140475000Y-65268750I0J-218750D01*
G01*
X140475000Y-65706250D01*
G75*
G02*
X140256250Y-65925000I-218750J0D01*
G01*
X139743750Y-65925000D01*
G75*
G02*
X139525000Y-65706250I0J218750D01*
G01*
X139525000Y-65268750D01*
G75*
G02*
X139743750Y-65050000I218750J0D01*
G01*
G37*
G36*
G01*
X139743750Y-63475000D02*
X140256250Y-63475000D01*
G75*
G02*
X140475000Y-63693750I0J-218750D01*
G01*
X140475000Y-64131250D01*
G75*
G02*
X140256250Y-64350000I-218750J0D01*
G01*
X139743750Y-64350000D01*
G75*
G02*
X139525000Y-64131250I0J218750D01*
G01*
X139525000Y-63693750D01*
G75*
G02*
X139743750Y-63475000I218750J0D01*
G01*
G37*
D15*
G36*
X151500000Y-60025000D02*
G01*
X150750000Y-59525000D01*
X150750000Y-58525000D01*
X152250000Y-58525000D01*
X152250000Y-59525000D01*
X151500000Y-60025000D01*
G37*
G36*
X150750000Y-60975000D02*
G01*
X150750000Y-59825000D01*
X151500000Y-60325000D01*
X152250000Y-59825000D01*
X152250000Y-60975000D01*
X150750000Y-60975000D01*
G37*
D18*
X149920000Y-73040000D03*
X149920000Y-70500000D03*
X152460000Y-73040000D03*
X152460000Y-70500000D03*
X155000000Y-73040000D03*
D19*
X155000000Y-70500000D03*
G36*
G01*
X141243750Y-65050000D02*
X141756250Y-65050000D01*
G75*
G02*
X141975000Y-65268750I0J-218750D01*
G01*
X141975000Y-65706250D01*
G75*
G02*
X141756250Y-65925000I-218750J0D01*
G01*
X141243750Y-65925000D01*
G75*
G02*
X141025000Y-65706250I0J218750D01*
G01*
X141025000Y-65268750D01*
G75*
G02*
X141243750Y-65050000I218750J0D01*
G01*
G37*
G36*
G01*
X141243750Y-63475000D02*
X141756250Y-63475000D01*
G75*
G02*
X141975000Y-63693750I0J-218750D01*
G01*
X141975000Y-64131250D01*
G75*
G02*
X141756250Y-64350000I-218750J0D01*
G01*
X141243750Y-64350000D01*
G75*
G02*
X141025000Y-64131250I0J218750D01*
G01*
X141025000Y-63693750D01*
G75*
G02*
X141243750Y-63475000I218750J0D01*
G01*
G37*
G36*
G01*
X136243750Y-60350000D02*
X136756250Y-60350000D01*
G75*
G02*
X136975000Y-60568750I0J-218750D01*
G01*
X136975000Y-61006250D01*
G75*
G02*
X136756250Y-61225000I-218750J0D01*
G01*
X136243750Y-61225000D01*
G75*
G02*
X136025000Y-61006250I0J218750D01*
G01*
X136025000Y-60568750D01*
G75*
G02*
X136243750Y-60350000I218750J0D01*
G01*
G37*
G36*
G01*
X136243750Y-58775000D02*
X136756250Y-58775000D01*
G75*
G02*
X136975000Y-58993750I0J-218750D01*
G01*
X136975000Y-59431250D01*
G75*
G02*
X136756250Y-59650000I-218750J0D01*
G01*
X136243750Y-59650000D01*
G75*
G02*
X136025000Y-59431250I0J218750D01*
G01*
X136025000Y-58993750D01*
G75*
G02*
X136243750Y-58775000I218750J0D01*
G01*
G37*
M02*
