M48
; DRILL file {KiCad (5.1.8)-1} date 01/19/21 07:45:23
; FORMAT={-:-/ absolute / inch / decimal}
; #@! TF.CreationDate,2021-01-19T07:45:23+02:00
; #@! TF.GenerationSoftware,Kicad,Pcbnew,(5.1.8)-1
; #@! TF.FileFunction,Plated,1,2,PTH
FMAT,2
INCH
T1C0.0118
T2C0.0394
%
G90
G05
T1
X5.3307Y-2.2717
X5.3346Y-2.3937
X5.4016Y-2.2717
X5.4252Y-2.3543
X5.469Y-2.5162
X5.5984Y-2.1496
X5.6732Y-2.3386
X5.7008Y-2.2835
X5.7205Y-2.4921
X5.8031Y-2.2402
X5.8661Y-2.1181
X5.8898Y-2.3425
X6.0315Y-2.3228
X6.0433Y-2.3819
X6.0472Y-2.6575
X6.063Y-2.1181
T2
X5.9024Y-2.7756
X5.9024Y-2.8756
X6.0024Y-2.7756
X6.0024Y-2.8756
X6.1024Y-2.7756
X6.1024Y-2.8756
T0
M30
