G04 #@! TF.GenerationSoftware,KiCad,Pcbnew,(5.1.8)-1*
G04 #@! TF.CreationDate,2021-01-19T07:45:21+02:00*
G04 #@! TF.ProjectId,reverse,72657665-7273-4652-9e6b-696361645f70,rev?*
G04 #@! TF.SameCoordinates,Original*
G04 #@! TF.FileFunction,Legend,Bot*
G04 #@! TF.FilePolarity,Positive*
%FSLAX46Y46*%
G04 Gerber Fmt 4.6, Leading zero omitted, Abs format (unit mm)*
G04 Created by KiCad (PCBNEW (5.1.8)-1) date 2021-01-19 07:45:21*
%MOMM*%
%LPD*%
G01*
G04 APERTURE LIST*
%ADD10C,0.120000*%
%ADD11C,0.150000*%
G04 APERTURE END LIST*
D10*
X152350000Y-55650000D02*
X155550000Y-55650000D01*
X155550000Y-55650000D02*
X155550000Y-57200000D01*
X152350000Y-51150000D02*
X152350000Y-55650000D01*
X152350000Y-51150000D02*
X131450000Y-51150000D01*
X129650000Y-52950000D02*
X129650000Y-55650000D01*
X131450000Y-51150000D02*
X129650000Y-52950000D01*
X129650000Y-55650000D02*
X126450000Y-55650000D01*
X126450000Y-55650000D02*
X126450000Y-57200000D01*
X129650000Y-63350000D02*
X126450000Y-63350000D01*
X126450000Y-63350000D02*
X126450000Y-61800000D01*
X152350000Y-63350000D02*
X155550000Y-63350000D01*
X155550000Y-63350000D02*
X155550000Y-61800000D01*
X129650000Y-67850000D02*
X152350000Y-67850000D01*
X129650000Y-67850000D02*
X129650000Y-63350000D01*
X152350000Y-67850000D02*
X152350000Y-63350000D01*
X128000000Y-54500000D02*
X128000000Y-52500000D01*
X129000000Y-53500000D02*
X127000000Y-53500000D01*
D11*
X127660714Y-64728571D02*
X127517857Y-64776190D01*
X127470238Y-64823809D01*
X127422619Y-64919047D01*
X127422619Y-65061904D01*
X127470238Y-65157142D01*
X127517857Y-65204761D01*
X127613095Y-65252380D01*
X127994047Y-65252380D01*
X127994047Y-64252380D01*
X127660714Y-64252380D01*
X127565476Y-64300000D01*
X127517857Y-64347619D01*
X127470238Y-64442857D01*
X127470238Y-64538095D01*
X127517857Y-64633333D01*
X127565476Y-64680952D01*
X127660714Y-64728571D01*
X127994047Y-64728571D01*
X127136904Y-64252380D02*
X126565476Y-64252380D01*
X126851190Y-65252380D02*
X126851190Y-64252380D01*
X125708333Y-65252380D02*
X126279761Y-65252380D01*
X125994047Y-65252380D02*
X125994047Y-64252380D01*
X126089285Y-64395238D01*
X126184523Y-64490476D01*
X126279761Y-64538095D01*
M02*
