G04 #@! TF.GenerationSoftware,KiCad,Pcbnew,(5.1.8)-1*
G04 #@! TF.CreationDate,2021-01-19T07:45:21+02:00*
G04 #@! TF.ProjectId,reverse,72657665-7273-4652-9e6b-696361645f70,rev?*
G04 #@! TF.SameCoordinates,Original*
G04 #@! TF.FileFunction,Legend,Top*
G04 #@! TF.FilePolarity,Positive*
%FSLAX46Y46*%
G04 Gerber Fmt 4.6, Leading zero omitted, Abs format (unit mm)*
G04 Created by KiCad (PCBNEW (5.1.8)-1) date 2021-01-19 07:45:21*
%MOMM*%
%LPD*%
G01*
G04 APERTURE LIST*
%ADD10C,0.300000*%
%ADD11C,0.250000*%
%ADD12C,0.100000*%
%ADD13C,0.120000*%
%ADD14C,0.150000*%
G04 APERTURE END LIST*
D10*
X123339285Y-64123809D02*
X123401190Y-64185714D01*
X123463095Y-64371428D01*
X123463095Y-64495238D01*
X123401190Y-64680952D01*
X123277380Y-64804761D01*
X123153571Y-64866666D01*
X122905952Y-64928571D01*
X122720238Y-64928571D01*
X122472619Y-64866666D01*
X122348809Y-64804761D01*
X122225000Y-64680952D01*
X122163095Y-64495238D01*
X122163095Y-64371428D01*
X122225000Y-64185714D01*
X122286904Y-64123809D01*
X123463095Y-62823809D02*
X122844047Y-63257142D01*
X123463095Y-63566666D02*
X122163095Y-63566666D01*
X122163095Y-63071428D01*
X122225000Y-62947619D01*
X122286904Y-62885714D01*
X122410714Y-62823809D01*
X122596428Y-62823809D01*
X122720238Y-62885714D01*
X122782142Y-62947619D01*
X122844047Y-63071428D01*
X122844047Y-63566666D01*
X122286904Y-62328571D02*
X122225000Y-62266666D01*
X122163095Y-62142857D01*
X122163095Y-61833333D01*
X122225000Y-61709523D01*
X122286904Y-61647619D01*
X122410714Y-61585714D01*
X122534523Y-61585714D01*
X122720238Y-61647619D01*
X123463095Y-62390476D01*
X123463095Y-61585714D01*
X122163095Y-60780952D02*
X122163095Y-60657142D01*
X122225000Y-60533333D01*
X122286904Y-60471428D01*
X122410714Y-60409523D01*
X122658333Y-60347619D01*
X122967857Y-60347619D01*
X123215476Y-60409523D01*
X123339285Y-60471428D01*
X123401190Y-60533333D01*
X123463095Y-60657142D01*
X123463095Y-60780952D01*
X123401190Y-60904761D01*
X123339285Y-60966666D01*
X123215476Y-61028571D01*
X122967857Y-61090476D01*
X122658333Y-61090476D01*
X122410714Y-61028571D01*
X122286904Y-60966666D01*
X122225000Y-60904761D01*
X122163095Y-60780952D01*
X122163095Y-59914285D02*
X122163095Y-59109523D01*
X122658333Y-59542857D01*
X122658333Y-59357142D01*
X122720238Y-59233333D01*
X122782142Y-59171428D01*
X122905952Y-59109523D01*
X123215476Y-59109523D01*
X123339285Y-59171428D01*
X123401190Y-59233333D01*
X123463095Y-59357142D01*
X123463095Y-59728571D01*
X123401190Y-59852380D01*
X123339285Y-59914285D01*
X122286904Y-58614285D02*
X122225000Y-58552380D01*
X122163095Y-58428571D01*
X122163095Y-58119047D01*
X122225000Y-57995238D01*
X122286904Y-57933333D01*
X122410714Y-57871428D01*
X122534523Y-57871428D01*
X122720238Y-57933333D01*
X123463095Y-58676190D01*
X123463095Y-57871428D01*
X125713095Y-73811904D02*
X125094047Y-74245238D01*
X125713095Y-74554761D02*
X124413095Y-74554761D01*
X124413095Y-74059523D01*
X124475000Y-73935714D01*
X124536904Y-73873809D01*
X124660714Y-73811904D01*
X124846428Y-73811904D01*
X124970238Y-73873809D01*
X125032142Y-73935714D01*
X125094047Y-74059523D01*
X125094047Y-74554761D01*
X125651190Y-72759523D02*
X125713095Y-72883333D01*
X125713095Y-73130952D01*
X125651190Y-73254761D01*
X125527380Y-73316666D01*
X125032142Y-73316666D01*
X124908333Y-73254761D01*
X124846428Y-73130952D01*
X124846428Y-72883333D01*
X124908333Y-72759523D01*
X125032142Y-72697619D01*
X125155952Y-72697619D01*
X125279761Y-73316666D01*
X124846428Y-72264285D02*
X125713095Y-71954761D01*
X124846428Y-71645238D01*
X125651190Y-70654761D02*
X125713095Y-70778571D01*
X125713095Y-71026190D01*
X125651190Y-71150000D01*
X125527380Y-71211904D01*
X125032142Y-71211904D01*
X124908333Y-71150000D01*
X124846428Y-71026190D01*
X124846428Y-70778571D01*
X124908333Y-70654761D01*
X125032142Y-70592857D01*
X125155952Y-70592857D01*
X125279761Y-71211904D01*
X125713095Y-70035714D02*
X124846428Y-70035714D01*
X125094047Y-70035714D02*
X124970238Y-69973809D01*
X124908333Y-69911904D01*
X124846428Y-69788095D01*
X124846428Y-69664285D01*
X125651190Y-69292857D02*
X125713095Y-69169047D01*
X125713095Y-68921428D01*
X125651190Y-68797619D01*
X125527380Y-68735714D01*
X125465476Y-68735714D01*
X125341666Y-68797619D01*
X125279761Y-68921428D01*
X125279761Y-69107142D01*
X125217857Y-69230952D01*
X125094047Y-69292857D01*
X125032142Y-69292857D01*
X124908333Y-69230952D01*
X124846428Y-69107142D01*
X124846428Y-68921428D01*
X124908333Y-68797619D01*
X125651190Y-67683333D02*
X125713095Y-67807142D01*
X125713095Y-68054761D01*
X125651190Y-68178571D01*
X125527380Y-68240476D01*
X125032142Y-68240476D01*
X124908333Y-68178571D01*
X124846428Y-68054761D01*
X124846428Y-67807142D01*
X124908333Y-67683333D01*
X125032142Y-67621428D01*
X125155952Y-67621428D01*
X125279761Y-68240476D01*
X125713095Y-66073809D02*
X124413095Y-66073809D01*
X124413095Y-65578571D01*
X124475000Y-65454761D01*
X124536904Y-65392857D01*
X124660714Y-65330952D01*
X124846428Y-65330952D01*
X124970238Y-65392857D01*
X125032142Y-65454761D01*
X125094047Y-65578571D01*
X125094047Y-66073809D01*
X125713095Y-64588095D02*
X125651190Y-64711904D01*
X125589285Y-64773809D01*
X125465476Y-64835714D01*
X125094047Y-64835714D01*
X124970238Y-64773809D01*
X124908333Y-64711904D01*
X124846428Y-64588095D01*
X124846428Y-64402380D01*
X124908333Y-64278571D01*
X124970238Y-64216666D01*
X125094047Y-64154761D01*
X125465476Y-64154761D01*
X125589285Y-64216666D01*
X125651190Y-64278571D01*
X125713095Y-64402380D01*
X125713095Y-64588095D01*
X125713095Y-63411904D02*
X125651190Y-63535714D01*
X125527380Y-63597619D01*
X124413095Y-63597619D01*
X125713095Y-62359523D02*
X125032142Y-62359523D01*
X124908333Y-62421428D01*
X124846428Y-62545238D01*
X124846428Y-62792857D01*
X124908333Y-62916666D01*
X125651190Y-62359523D02*
X125713095Y-62483333D01*
X125713095Y-62792857D01*
X125651190Y-62916666D01*
X125527380Y-62978571D01*
X125403571Y-62978571D01*
X125279761Y-62916666D01*
X125217857Y-62792857D01*
X125217857Y-62483333D01*
X125155952Y-62359523D01*
X125713095Y-61740476D02*
X124846428Y-61740476D01*
X125094047Y-61740476D02*
X124970238Y-61678571D01*
X124908333Y-61616666D01*
X124846428Y-61492857D01*
X124846428Y-61369047D01*
X125713095Y-60935714D02*
X124846428Y-60935714D01*
X124413095Y-60935714D02*
X124475000Y-60997619D01*
X124536904Y-60935714D01*
X124475000Y-60873809D01*
X124413095Y-60935714D01*
X124536904Y-60935714D01*
X124846428Y-60502380D02*
X124846428Y-60007142D01*
X124413095Y-60316666D02*
X125527380Y-60316666D01*
X125651190Y-60254761D01*
X125713095Y-60130952D01*
X125713095Y-60007142D01*
X124846428Y-59697619D02*
X125713095Y-59388095D01*
X124846428Y-59078571D02*
X125713095Y-59388095D01*
X126022619Y-59511904D01*
X126084523Y-59573809D01*
X126146428Y-59697619D01*
X125713095Y-57592857D02*
X124413095Y-57592857D01*
X124413095Y-57097619D01*
X124475000Y-56973809D01*
X124536904Y-56911904D01*
X124660714Y-56850000D01*
X124846428Y-56850000D01*
X124970238Y-56911904D01*
X125032142Y-56973809D01*
X125094047Y-57097619D01*
X125094047Y-57592857D01*
X125713095Y-56292857D02*
X124846428Y-56292857D01*
X125094047Y-56292857D02*
X124970238Y-56230952D01*
X124908333Y-56169047D01*
X124846428Y-56045238D01*
X124846428Y-55921428D01*
X125713095Y-55302380D02*
X125651190Y-55426190D01*
X125589285Y-55488095D01*
X125465476Y-55550000D01*
X125094047Y-55550000D01*
X124970238Y-55488095D01*
X124908333Y-55426190D01*
X124846428Y-55302380D01*
X124846428Y-55116666D01*
X124908333Y-54992857D01*
X124970238Y-54930952D01*
X125094047Y-54869047D01*
X125465476Y-54869047D01*
X125589285Y-54930952D01*
X125651190Y-54992857D01*
X125713095Y-55116666D01*
X125713095Y-55302380D01*
X124846428Y-54497619D02*
X124846428Y-54002380D01*
X124413095Y-54311904D02*
X125527380Y-54311904D01*
X125651190Y-54250000D01*
X125713095Y-54126190D01*
X125713095Y-54002380D01*
X125651190Y-53073809D02*
X125713095Y-53197619D01*
X125713095Y-53445238D01*
X125651190Y-53569047D01*
X125527380Y-53630952D01*
X125032142Y-53630952D01*
X124908333Y-53569047D01*
X124846428Y-53445238D01*
X124846428Y-53197619D01*
X124908333Y-53073809D01*
X125032142Y-53011904D01*
X125155952Y-53011904D01*
X125279761Y-53630952D01*
X125651190Y-51897619D02*
X125713095Y-52021428D01*
X125713095Y-52269047D01*
X125651190Y-52392857D01*
X125589285Y-52454761D01*
X125465476Y-52516666D01*
X125094047Y-52516666D01*
X124970238Y-52454761D01*
X124908333Y-52392857D01*
X124846428Y-52269047D01*
X124846428Y-52021428D01*
X124908333Y-51897619D01*
X124846428Y-51526190D02*
X124846428Y-51030952D01*
X124413095Y-51340476D02*
X125527380Y-51340476D01*
X125651190Y-51278571D01*
X125713095Y-51154761D01*
X125713095Y-51030952D01*
X125713095Y-50597619D02*
X124846428Y-50597619D01*
X124413095Y-50597619D02*
X124475000Y-50659523D01*
X124536904Y-50597619D01*
X124475000Y-50535714D01*
X124413095Y-50597619D01*
X124536904Y-50597619D01*
X125713095Y-49792857D02*
X125651190Y-49916666D01*
X125589285Y-49978571D01*
X125465476Y-50040476D01*
X125094047Y-50040476D01*
X124970238Y-49978571D01*
X124908333Y-49916666D01*
X124846428Y-49792857D01*
X124846428Y-49607142D01*
X124908333Y-49483333D01*
X124970238Y-49421428D01*
X125094047Y-49359523D01*
X125465476Y-49359523D01*
X125589285Y-49421428D01*
X125651190Y-49483333D01*
X125713095Y-49607142D01*
X125713095Y-49792857D01*
X124846428Y-48802380D02*
X125713095Y-48802380D01*
X124970238Y-48802380D02*
X124908333Y-48740476D01*
X124846428Y-48616666D01*
X124846428Y-48430952D01*
X124908333Y-48307142D01*
X125032142Y-48245238D01*
X125713095Y-48245238D01*
D11*
X151923809Y-68052380D02*
X151923809Y-67052380D01*
X152352380Y-68004761D02*
X152495238Y-68052380D01*
X152733333Y-68052380D01*
X152828571Y-68004761D01*
X152876190Y-67957142D01*
X152923809Y-67861904D01*
X152923809Y-67766666D01*
X152876190Y-67671428D01*
X152828571Y-67623809D01*
X152733333Y-67576190D01*
X152542857Y-67528571D01*
X152447619Y-67480952D01*
X152400000Y-67433333D01*
X152352380Y-67338095D01*
X152352380Y-67242857D01*
X152400000Y-67147619D01*
X152447619Y-67100000D01*
X152542857Y-67052380D01*
X152780952Y-67052380D01*
X152923809Y-67100000D01*
X153352380Y-68052380D02*
X153352380Y-67052380D01*
X153733333Y-67052380D01*
X153828571Y-67100000D01*
X153876190Y-67147619D01*
X153923809Y-67242857D01*
X153923809Y-67385714D01*
X153876190Y-67480952D01*
X153828571Y-67528571D01*
X153733333Y-67576190D01*
X153352380Y-67576190D01*
D12*
X147825000Y-60200240D02*
X147825000Y-59900240D01*
X147825000Y-59900240D02*
X148025000Y-59700240D01*
X148025000Y-59700240D02*
X148475000Y-59700240D01*
X148475000Y-59700240D02*
X148475000Y-59500240D01*
D13*
X142735000Y-57390000D02*
X143110000Y-57390000D01*
X143110000Y-57390000D02*
X143110000Y-57765000D01*
X139265000Y-61610000D02*
X138890000Y-61610000D01*
X138890000Y-61610000D02*
X138890000Y-61235000D01*
X142735000Y-61610000D02*
X143110000Y-61610000D01*
X143110000Y-61610000D02*
X143110000Y-61235000D01*
X139265000Y-57390000D02*
X138890000Y-57390000D01*
X131800000Y-62800000D02*
X133200000Y-62800000D01*
X133200000Y-62800000D02*
X133200000Y-64200000D01*
X133200000Y-64200000D02*
X131800000Y-64200000D01*
X131800000Y-64200000D02*
X131800000Y-62800000D01*
X131800000Y-60800000D02*
X133200000Y-60800000D01*
X133200000Y-60800000D02*
X133200000Y-62200000D01*
X133200000Y-62200000D02*
X131800000Y-62200000D01*
X131800000Y-62200000D02*
X131800000Y-60800000D01*
X131800000Y-58800000D02*
X133200000Y-58800000D01*
X133200000Y-58800000D02*
X133200000Y-60200000D01*
X133200000Y-60200000D02*
X131800000Y-60200000D01*
X131800000Y-60200000D02*
X131800000Y-58800000D01*
X131800000Y-56800000D02*
X133200000Y-56800000D01*
X133200000Y-56800000D02*
X133200000Y-58200000D01*
X133200000Y-58200000D02*
X131800000Y-58200000D01*
X131800000Y-58200000D02*
X131800000Y-56800000D01*
X154730000Y-48270000D02*
X154730000Y-48300000D01*
X154730000Y-54730000D02*
X154730000Y-54700000D01*
X148270000Y-54730000D02*
X148270000Y-54700000D01*
X148270000Y-48300000D02*
X148270000Y-48270000D01*
X154730000Y-50200000D02*
X154730000Y-52800000D01*
X148270000Y-48270000D02*
X154730000Y-48270000D01*
X148270000Y-50200000D02*
X148270000Y-52800000D01*
X148270000Y-54730000D02*
X154730000Y-54730000D01*
X147010000Y-59837221D02*
X147010000Y-60162779D01*
X145990000Y-59837221D02*
X145990000Y-60162779D01*
X141510000Y-54337221D02*
X141510000Y-54662779D01*
X140490000Y-54337221D02*
X140490000Y-54662779D01*
X140510000Y-64537221D02*
X140510000Y-64862779D01*
X139490000Y-64537221D02*
X139490000Y-64862779D01*
X150500000Y-58350000D02*
X152500000Y-58350000D01*
X150500000Y-61150000D02*
X150500000Y-58350000D01*
X152500000Y-61150000D02*
X150500000Y-61150000D01*
X152500000Y-58350000D02*
X152500000Y-61150000D01*
X148590000Y-69170000D02*
X148590000Y-74370000D01*
X153730000Y-69170000D02*
X148590000Y-69170000D01*
X156330000Y-74370000D02*
X148590000Y-74370000D01*
X153730000Y-69170000D02*
X153730000Y-71770000D01*
X153730000Y-71770000D02*
X156330000Y-71770000D01*
X156330000Y-71770000D02*
X156330000Y-74370000D01*
X155000000Y-69170000D02*
X156330000Y-69170000D01*
X156330000Y-69170000D02*
X156330000Y-70500000D01*
X142235000Y-65500000D02*
X142235000Y-63215000D01*
X142235000Y-63215000D02*
X140765000Y-63215000D01*
X140765000Y-63215000D02*
X140765000Y-65500000D01*
X137010000Y-59837221D02*
X137010000Y-60162779D01*
X135990000Y-59837221D02*
X135990000Y-60162779D01*
D14*
X149297619Y-58095238D02*
X149250000Y-58190476D01*
X149154761Y-58285714D01*
X149011904Y-58428571D01*
X148964285Y-58523809D01*
X148964285Y-58619047D01*
X149202380Y-58571428D02*
X149154761Y-58666666D01*
X149059523Y-58761904D01*
X148869047Y-58809523D01*
X148535714Y-58809523D01*
X148345238Y-58761904D01*
X148250000Y-58666666D01*
X148202380Y-58571428D01*
X148202380Y-58380952D01*
X148250000Y-58285714D01*
X148345238Y-58190476D01*
X148535714Y-58142857D01*
X148869047Y-58142857D01*
X149059523Y-58190476D01*
X149154761Y-58285714D01*
X149202380Y-58380952D01*
X149202380Y-58571428D01*
X149202380Y-57190476D02*
X149202380Y-57761904D01*
X149202380Y-57476190D02*
X148202380Y-57476190D01*
X148345238Y-57571428D01*
X148440476Y-57666666D01*
X148488095Y-57761904D01*
X138452380Y-56761904D02*
X139261904Y-56761904D01*
X139357142Y-56714285D01*
X139404761Y-56666666D01*
X139452380Y-56571428D01*
X139452380Y-56380952D01*
X139404761Y-56285714D01*
X139357142Y-56238095D01*
X139261904Y-56190476D01*
X138452380Y-56190476D01*
X139452380Y-55190476D02*
X139452380Y-55761904D01*
X139452380Y-55476190D02*
X138452380Y-55476190D01*
X138595238Y-55571428D01*
X138690476Y-55666666D01*
X138738095Y-55761904D01*
X128988095Y-62952380D02*
X129559523Y-62952380D01*
X129273809Y-63952380D02*
X129273809Y-62952380D01*
X129892857Y-63952380D02*
X129892857Y-62952380D01*
X130273809Y-62952380D01*
X130369047Y-63000000D01*
X130416666Y-63047619D01*
X130464285Y-63142857D01*
X130464285Y-63285714D01*
X130416666Y-63380952D01*
X130369047Y-63428571D01*
X130273809Y-63476190D01*
X129892857Y-63476190D01*
X131321428Y-63285714D02*
X131321428Y-63952380D01*
X131083333Y-62904761D02*
X130845238Y-63619047D01*
X131464285Y-63619047D01*
X128988095Y-60952380D02*
X129559523Y-60952380D01*
X129273809Y-61952380D02*
X129273809Y-60952380D01*
X129892857Y-61952380D02*
X129892857Y-60952380D01*
X130273809Y-60952380D01*
X130369047Y-61000000D01*
X130416666Y-61047619D01*
X130464285Y-61142857D01*
X130464285Y-61285714D01*
X130416666Y-61380952D01*
X130369047Y-61428571D01*
X130273809Y-61476190D01*
X129892857Y-61476190D01*
X130797619Y-60952380D02*
X131416666Y-60952380D01*
X131083333Y-61333333D01*
X131226190Y-61333333D01*
X131321428Y-61380952D01*
X131369047Y-61428571D01*
X131416666Y-61523809D01*
X131416666Y-61761904D01*
X131369047Y-61857142D01*
X131321428Y-61904761D01*
X131226190Y-61952380D01*
X130940476Y-61952380D01*
X130845238Y-61904761D01*
X130797619Y-61857142D01*
X128988095Y-58952380D02*
X129559523Y-58952380D01*
X129273809Y-59952380D02*
X129273809Y-58952380D01*
X129892857Y-59952380D02*
X129892857Y-58952380D01*
X130273809Y-58952380D01*
X130369047Y-59000000D01*
X130416666Y-59047619D01*
X130464285Y-59142857D01*
X130464285Y-59285714D01*
X130416666Y-59380952D01*
X130369047Y-59428571D01*
X130273809Y-59476190D01*
X129892857Y-59476190D01*
X130845238Y-59047619D02*
X130892857Y-59000000D01*
X130988095Y-58952380D01*
X131226190Y-58952380D01*
X131321428Y-59000000D01*
X131369047Y-59047619D01*
X131416666Y-59142857D01*
X131416666Y-59238095D01*
X131369047Y-59380952D01*
X130797619Y-59952380D01*
X131416666Y-59952380D01*
X128988095Y-56952380D02*
X129559523Y-56952380D01*
X129273809Y-57952380D02*
X129273809Y-56952380D01*
X129892857Y-57952380D02*
X129892857Y-56952380D01*
X130273809Y-56952380D01*
X130369047Y-57000000D01*
X130416666Y-57047619D01*
X130464285Y-57142857D01*
X130464285Y-57285714D01*
X130416666Y-57380952D01*
X130369047Y-57428571D01*
X130273809Y-57476190D01*
X129892857Y-57476190D01*
X131416666Y-57952380D02*
X130845238Y-57952380D01*
X131130952Y-57952380D02*
X131130952Y-56952380D01*
X131035714Y-57095238D01*
X130940476Y-57190476D01*
X130845238Y-57238095D01*
X145904761Y-52833333D02*
X145952380Y-52690476D01*
X145952380Y-52452380D01*
X145904761Y-52357142D01*
X145857142Y-52309523D01*
X145761904Y-52261904D01*
X145666666Y-52261904D01*
X145571428Y-52309523D01*
X145523809Y-52357142D01*
X145476190Y-52452380D01*
X145428571Y-52642857D01*
X145380952Y-52738095D01*
X145333333Y-52785714D01*
X145238095Y-52833333D01*
X145142857Y-52833333D01*
X145047619Y-52785714D01*
X145000000Y-52738095D01*
X144952380Y-52642857D01*
X144952380Y-52404761D01*
X145000000Y-52261904D01*
X144952380Y-51928571D02*
X145952380Y-51690476D01*
X145238095Y-51500000D01*
X145952380Y-51309523D01*
X144952380Y-51071428D01*
X145952380Y-50166666D02*
X145952380Y-50738095D01*
X145952380Y-50452380D02*
X144952380Y-50452380D01*
X145095238Y-50547619D01*
X145190476Y-50642857D01*
X145238095Y-50738095D01*
X146952380Y-57666666D02*
X146476190Y-58000000D01*
X146952380Y-58238095D02*
X145952380Y-58238095D01*
X145952380Y-57857142D01*
X146000000Y-57761904D01*
X146047619Y-57714285D01*
X146142857Y-57666666D01*
X146285714Y-57666666D01*
X146380952Y-57714285D01*
X146428571Y-57761904D01*
X146476190Y-57857142D01*
X146476190Y-58238095D01*
X145952380Y-57333333D02*
X145952380Y-56714285D01*
X146333333Y-57047619D01*
X146333333Y-56904761D01*
X146380952Y-56809523D01*
X146428571Y-56761904D01*
X146523809Y-56714285D01*
X146761904Y-56714285D01*
X146857142Y-56761904D01*
X146904761Y-56809523D01*
X146952380Y-56904761D01*
X146952380Y-57190476D01*
X146904761Y-57285714D01*
X146857142Y-57333333D01*
X141452380Y-52166666D02*
X140976190Y-52500000D01*
X141452380Y-52738095D02*
X140452380Y-52738095D01*
X140452380Y-52357142D01*
X140500000Y-52261904D01*
X140547619Y-52214285D01*
X140642857Y-52166666D01*
X140785714Y-52166666D01*
X140880952Y-52214285D01*
X140928571Y-52261904D01*
X140976190Y-52357142D01*
X140976190Y-52738095D01*
X140547619Y-51785714D02*
X140500000Y-51738095D01*
X140452380Y-51642857D01*
X140452380Y-51404761D01*
X140500000Y-51309523D01*
X140547619Y-51261904D01*
X140642857Y-51214285D01*
X140738095Y-51214285D01*
X140880952Y-51261904D01*
X141452380Y-51833333D01*
X141452380Y-51214285D01*
X140452380Y-67366666D02*
X139976190Y-67700000D01*
X140452380Y-67938095D02*
X139452380Y-67938095D01*
X139452380Y-67557142D01*
X139500000Y-67461904D01*
X139547619Y-67414285D01*
X139642857Y-67366666D01*
X139785714Y-67366666D01*
X139880952Y-67414285D01*
X139928571Y-67461904D01*
X139976190Y-67557142D01*
X139976190Y-67938095D01*
X140452380Y-66414285D02*
X140452380Y-66985714D01*
X140452380Y-66700000D02*
X139452380Y-66700000D01*
X139595238Y-66795238D01*
X139690476Y-66890476D01*
X139738095Y-66985714D01*
X150952380Y-57583333D02*
X151666666Y-57583333D01*
X151809523Y-57630952D01*
X151904761Y-57726190D01*
X151952380Y-57869047D01*
X151952380Y-57964285D01*
X151952380Y-57107142D02*
X150952380Y-57107142D01*
X150952380Y-56726190D01*
X151000000Y-56630952D01*
X151047619Y-56583333D01*
X151142857Y-56535714D01*
X151285714Y-56535714D01*
X151380952Y-56583333D01*
X151428571Y-56630952D01*
X151476190Y-56726190D01*
X151476190Y-57107142D01*
X151952380Y-55583333D02*
X151952380Y-56154761D01*
X151952380Y-55869047D02*
X150952380Y-55869047D01*
X151095238Y-55964285D01*
X151190476Y-56059523D01*
X151238095Y-56154761D01*
X157252380Y-70233333D02*
X157966666Y-70233333D01*
X158109523Y-70280952D01*
X158204761Y-70376190D01*
X158252380Y-70519047D01*
X158252380Y-70614285D01*
X158252380Y-69233333D02*
X158252380Y-69804761D01*
X158252380Y-69519047D02*
X157252380Y-69519047D01*
X157395238Y-69614285D01*
X157490476Y-69709523D01*
X157538095Y-69804761D01*
X141952380Y-67938095D02*
X140952380Y-67938095D01*
X140952380Y-67700000D01*
X141000000Y-67557142D01*
X141095238Y-67461904D01*
X141190476Y-67414285D01*
X141380952Y-67366666D01*
X141523809Y-67366666D01*
X141714285Y-67414285D01*
X141809523Y-67461904D01*
X141904761Y-67557142D01*
X141952380Y-67700000D01*
X141952380Y-67938095D01*
X141952380Y-66414285D02*
X141952380Y-66985714D01*
X141952380Y-66700000D02*
X140952380Y-66700000D01*
X141095238Y-66795238D01*
X141190476Y-66890476D01*
X141238095Y-66985714D01*
X136857142Y-57666666D02*
X136904761Y-57714285D01*
X136952380Y-57857142D01*
X136952380Y-57952380D01*
X136904761Y-58095238D01*
X136809523Y-58190476D01*
X136714285Y-58238095D01*
X136523809Y-58285714D01*
X136380952Y-58285714D01*
X136190476Y-58238095D01*
X136095238Y-58190476D01*
X136000000Y-58095238D01*
X135952380Y-57952380D01*
X135952380Y-57857142D01*
X136000000Y-57714285D01*
X136047619Y-57666666D01*
X136952380Y-56714285D02*
X136952380Y-57285714D01*
X136952380Y-57000000D02*
X135952380Y-57000000D01*
X136095238Y-57095238D01*
X136190476Y-57190476D01*
X136238095Y-57285714D01*
M02*
