G04 #@! TF.GenerationSoftware,KiCad,Pcbnew,(5.1.9)-1*
G04 #@! TF.CreationDate,2021-03-03T07:25:27+02:00*
G04 #@! TF.ProjectId,reverse,72657665-7273-4652-9e6b-696361645f70,rev?*
G04 #@! TF.SameCoordinates,Original*
G04 #@! TF.FileFunction,Copper,L2,Bot*
G04 #@! TF.FilePolarity,Positive*
%FSLAX46Y46*%
G04 Gerber Fmt 4.6, Leading zero omitted, Abs format (unit mm)*
G04 Created by KiCad (PCBNEW (5.1.9)-1) date 2021-03-03 07:25:27*
%MOMM*%
%LPD*%
G01*
G04 APERTURE LIST*
G04 #@! TA.AperFunction,ComponentPad*
%ADD10O,1.700000X1.700000*%
G04 #@! TD*
G04 #@! TA.AperFunction,ComponentPad*
%ADD11R,1.700000X1.700000*%
G04 #@! TD*
G04 #@! TA.AperFunction,SMDPad,CuDef*
%ADD12R,2.600000X3.600000*%
G04 #@! TD*
G04 #@! TA.AperFunction,ViaPad*
%ADD13C,0.600000*%
G04 #@! TD*
G04 #@! TA.AperFunction,Conductor*
%ADD14C,0.250000*%
G04 #@! TD*
G04 #@! TA.AperFunction,Conductor*
%ADD15C,0.300000*%
G04 #@! TD*
G04 #@! TA.AperFunction,Conductor*
%ADD16C,0.200000*%
G04 #@! TD*
G04 #@! TA.AperFunction,Conductor*
%ADD17C,0.100000*%
G04 #@! TD*
G04 APERTURE END LIST*
D10*
X149920000Y-73040000D03*
X149920000Y-70500000D03*
X152460000Y-73040000D03*
X152460000Y-70500000D03*
X155000000Y-73040000D03*
D11*
X155000000Y-70500000D03*
D12*
X126350000Y-59500000D03*
X155650000Y-59500000D03*
D13*
X138912500Y-63912500D03*
X145300000Y-63300000D03*
X142200000Y-54600000D03*
X144800000Y-58000000D03*
X135500000Y-60800000D03*
X157750000Y-58750000D03*
X149000000Y-53800000D03*
X154000000Y-53800000D03*
X137800000Y-59800000D03*
X144100000Y-59400000D03*
X147400000Y-56900000D03*
X153600000Y-67500000D03*
X137200000Y-57700000D03*
X135400000Y-57700000D03*
D14*
X138912500Y-63912500D02*
X144687500Y-63912500D01*
X144687500Y-63912500D02*
X145300000Y-63300000D01*
X142200000Y-54600000D02*
X142200000Y-55024264D01*
X142200000Y-55024264D02*
X142200000Y-55400000D01*
X142200000Y-55400000D02*
X144800000Y-58000000D01*
X141775736Y-54600000D02*
X142200000Y-54600000D01*
X129200000Y-54600000D02*
X141775736Y-54600000D01*
X126350000Y-57450000D02*
X129200000Y-54600000D01*
X126350000Y-59500000D02*
X126350000Y-57450000D01*
D15*
X156400000Y-58750000D02*
X155650000Y-59500000D01*
X157750000Y-58750000D02*
X156400000Y-58750000D01*
D14*
X149920000Y-69297919D02*
X147400000Y-66777919D01*
X149920000Y-70500000D02*
X149920000Y-69297919D01*
X147400000Y-66777919D02*
X147400000Y-60848998D01*
X147400000Y-60848998D02*
X147400000Y-56900000D01*
X152460000Y-70500000D02*
X152460000Y-68640000D01*
X152460000Y-68640000D02*
X153600000Y-67500000D01*
X137200000Y-57700000D02*
X135400000Y-57700000D01*
D16*
X159325040Y-47358429D02*
X159637699Y-47452827D01*
X159926068Y-47606156D01*
X160179167Y-47812578D01*
X160387345Y-48064223D01*
X160542685Y-48351518D01*
X160639261Y-48663508D01*
X160675000Y-49003540D01*
X160675001Y-73984093D01*
X160641571Y-74325041D01*
X160547173Y-74637700D01*
X160393843Y-74926070D01*
X160187422Y-75179167D01*
X159935780Y-75387344D01*
X159648481Y-75542685D01*
X159336497Y-75639260D01*
X158996460Y-75675000D01*
X123015897Y-75675000D01*
X122674959Y-75641571D01*
X122362300Y-75547173D01*
X122073930Y-75393843D01*
X121820833Y-75187422D01*
X121612656Y-74935780D01*
X121457315Y-74648481D01*
X121360740Y-74336497D01*
X121325000Y-73996460D01*
X121325000Y-73418911D01*
X148512091Y-73418911D01*
X148613065Y-73686300D01*
X148764264Y-73928852D01*
X148959878Y-74137246D01*
X149192389Y-74303473D01*
X149452861Y-74421146D01*
X149541090Y-74447903D01*
X149766000Y-74336889D01*
X149766000Y-73194000D01*
X148622150Y-73194000D01*
X148512091Y-73418911D01*
X121325000Y-73418911D01*
X121325000Y-63853405D01*
X138312500Y-63853405D01*
X138312500Y-63971595D01*
X138335558Y-64087514D01*
X138380787Y-64196707D01*
X138446450Y-64294978D01*
X138530022Y-64378550D01*
X138628293Y-64444213D01*
X138737486Y-64489442D01*
X138853405Y-64512500D01*
X138971595Y-64512500D01*
X139087514Y-64489442D01*
X139196707Y-64444213D01*
X139294978Y-64378550D01*
X139336028Y-64337500D01*
X144666633Y-64337500D01*
X144687500Y-64339555D01*
X144708367Y-64337500D01*
X144708374Y-64337500D01*
X144770814Y-64331350D01*
X144850927Y-64307048D01*
X144924760Y-64267584D01*
X144989474Y-64214474D01*
X145002783Y-64198257D01*
X145301041Y-63900000D01*
X145359095Y-63900000D01*
X145475014Y-63876942D01*
X145584207Y-63831713D01*
X145682478Y-63766050D01*
X145766050Y-63682478D01*
X145831713Y-63584207D01*
X145876942Y-63475014D01*
X145900000Y-63359095D01*
X145900000Y-63240905D01*
X145876942Y-63124986D01*
X145831713Y-63015793D01*
X145766050Y-62917522D01*
X145682478Y-62833950D01*
X145584207Y-62768287D01*
X145475014Y-62723058D01*
X145359095Y-62700000D01*
X145240905Y-62700000D01*
X145124986Y-62723058D01*
X145015793Y-62768287D01*
X144917522Y-62833950D01*
X144833950Y-62917522D01*
X144768287Y-63015793D01*
X144723058Y-63124986D01*
X144700000Y-63240905D01*
X144700000Y-63298959D01*
X144511460Y-63487500D01*
X139336028Y-63487500D01*
X139294978Y-63446450D01*
X139196707Y-63380787D01*
X139087514Y-63335558D01*
X138971595Y-63312500D01*
X138853405Y-63312500D01*
X138737486Y-63335558D01*
X138628293Y-63380787D01*
X138530022Y-63446450D01*
X138446450Y-63530022D01*
X138380787Y-63628293D01*
X138335558Y-63737486D01*
X138312500Y-63853405D01*
X121325000Y-63853405D01*
X121325000Y-57700000D01*
X124748549Y-57700000D01*
X124748549Y-61300000D01*
X124754341Y-61358810D01*
X124771496Y-61415360D01*
X124799353Y-61467477D01*
X124836842Y-61513158D01*
X124882523Y-61550647D01*
X124934640Y-61578504D01*
X124991190Y-61595659D01*
X125050000Y-61601451D01*
X127650000Y-61601451D01*
X127708810Y-61595659D01*
X127765360Y-61578504D01*
X127817477Y-61550647D01*
X127863158Y-61513158D01*
X127900647Y-61467477D01*
X127928504Y-61415360D01*
X127945659Y-61358810D01*
X127951451Y-61300000D01*
X127951451Y-57700000D01*
X127945659Y-57641190D01*
X127945573Y-57640905D01*
X134800000Y-57640905D01*
X134800000Y-57759095D01*
X134823058Y-57875014D01*
X134868287Y-57984207D01*
X134933950Y-58082478D01*
X135017522Y-58166050D01*
X135115793Y-58231713D01*
X135224986Y-58276942D01*
X135340905Y-58300000D01*
X135459095Y-58300000D01*
X135575014Y-58276942D01*
X135684207Y-58231713D01*
X135782478Y-58166050D01*
X135823528Y-58125000D01*
X136776472Y-58125000D01*
X136817522Y-58166050D01*
X136915793Y-58231713D01*
X137024986Y-58276942D01*
X137140905Y-58300000D01*
X137259095Y-58300000D01*
X137375014Y-58276942D01*
X137484207Y-58231713D01*
X137582478Y-58166050D01*
X137666050Y-58082478D01*
X137731713Y-57984207D01*
X137776942Y-57875014D01*
X137800000Y-57759095D01*
X137800000Y-57640905D01*
X137776942Y-57524986D01*
X137731713Y-57415793D01*
X137666050Y-57317522D01*
X137582478Y-57233950D01*
X137484207Y-57168287D01*
X137375014Y-57123058D01*
X137259095Y-57100000D01*
X137140905Y-57100000D01*
X137024986Y-57123058D01*
X136915793Y-57168287D01*
X136817522Y-57233950D01*
X136776472Y-57275000D01*
X135823528Y-57275000D01*
X135782478Y-57233950D01*
X135684207Y-57168287D01*
X135575014Y-57123058D01*
X135459095Y-57100000D01*
X135340905Y-57100000D01*
X135224986Y-57123058D01*
X135115793Y-57168287D01*
X135017522Y-57233950D01*
X134933950Y-57317522D01*
X134868287Y-57415793D01*
X134823058Y-57524986D01*
X134800000Y-57640905D01*
X127945573Y-57640905D01*
X127928504Y-57584640D01*
X127900647Y-57532523D01*
X127863158Y-57486842D01*
X127817477Y-57449353D01*
X127765360Y-57421496D01*
X127708810Y-57404341D01*
X127650000Y-57398549D01*
X127002491Y-57398549D01*
X129376040Y-55025000D01*
X141775000Y-55025000D01*
X141775000Y-55379133D01*
X141772945Y-55400000D01*
X141775000Y-55420867D01*
X141775000Y-55420874D01*
X141781150Y-55483314D01*
X141805453Y-55563427D01*
X141844917Y-55637260D01*
X141898027Y-55701974D01*
X141914239Y-55715279D01*
X144200000Y-58001041D01*
X144200000Y-58059095D01*
X144223058Y-58175014D01*
X144268287Y-58284207D01*
X144333950Y-58382478D01*
X144417522Y-58466050D01*
X144515793Y-58531713D01*
X144624986Y-58576942D01*
X144740905Y-58600000D01*
X144859095Y-58600000D01*
X144975014Y-58576942D01*
X145084207Y-58531713D01*
X145182478Y-58466050D01*
X145266050Y-58382478D01*
X145331713Y-58284207D01*
X145376942Y-58175014D01*
X145400000Y-58059095D01*
X145400000Y-57940905D01*
X145376942Y-57824986D01*
X145331713Y-57715793D01*
X145266050Y-57617522D01*
X145182478Y-57533950D01*
X145084207Y-57468287D01*
X144975014Y-57423058D01*
X144859095Y-57400000D01*
X144801041Y-57400000D01*
X144241946Y-56840905D01*
X146800000Y-56840905D01*
X146800000Y-56959095D01*
X146823058Y-57075014D01*
X146868287Y-57184207D01*
X146933950Y-57282478D01*
X146975001Y-57323529D01*
X146975000Y-60869871D01*
X146975001Y-60869881D01*
X146975000Y-66757052D01*
X146972945Y-66777919D01*
X146975000Y-66798786D01*
X146975000Y-66798792D01*
X146981150Y-66861232D01*
X147005452Y-66941345D01*
X147044916Y-67015178D01*
X147098026Y-67079893D01*
X147114243Y-67093202D01*
X149464828Y-69443788D01*
X149375271Y-69480884D01*
X149186918Y-69606737D01*
X149026737Y-69766918D01*
X148900884Y-69955271D01*
X148814194Y-70164557D01*
X148770000Y-70386735D01*
X148770000Y-70613265D01*
X148814194Y-70835443D01*
X148900884Y-71044729D01*
X149026737Y-71233082D01*
X149186918Y-71393263D01*
X149375271Y-71519116D01*
X149584557Y-71605806D01*
X149765998Y-71641897D01*
X149765998Y-71743110D01*
X149541090Y-71632097D01*
X149452861Y-71658854D01*
X149192389Y-71776527D01*
X148959878Y-71942754D01*
X148764264Y-72151148D01*
X148613065Y-72393700D01*
X148512091Y-72661089D01*
X148622150Y-72886000D01*
X149766000Y-72886000D01*
X149766000Y-72866000D01*
X150074000Y-72866000D01*
X150074000Y-72886000D01*
X150094000Y-72886000D01*
X150094000Y-73194000D01*
X150074000Y-73194000D01*
X150074000Y-74336889D01*
X150298910Y-74447903D01*
X150387139Y-74421146D01*
X150647611Y-74303473D01*
X150880122Y-74137246D01*
X151075736Y-73928852D01*
X151226935Y-73686300D01*
X151327909Y-73418911D01*
X151217851Y-73194002D01*
X151318103Y-73194002D01*
X151354194Y-73375443D01*
X151440884Y-73584729D01*
X151566737Y-73773082D01*
X151726918Y-73933263D01*
X151915271Y-74059116D01*
X152124557Y-74145806D01*
X152346735Y-74190000D01*
X152573265Y-74190000D01*
X152795443Y-74145806D01*
X153004729Y-74059116D01*
X153193082Y-73933263D01*
X153353263Y-73773082D01*
X153479116Y-73584729D01*
X153565806Y-73375443D01*
X153610000Y-73153265D01*
X153610000Y-72926735D01*
X153850000Y-72926735D01*
X153850000Y-73153265D01*
X153894194Y-73375443D01*
X153980884Y-73584729D01*
X154106737Y-73773082D01*
X154266918Y-73933263D01*
X154455271Y-74059116D01*
X154664557Y-74145806D01*
X154886735Y-74190000D01*
X155113265Y-74190000D01*
X155335443Y-74145806D01*
X155544729Y-74059116D01*
X155733082Y-73933263D01*
X155893263Y-73773082D01*
X156019116Y-73584729D01*
X156105806Y-73375443D01*
X156150000Y-73153265D01*
X156150000Y-72926735D01*
X156105806Y-72704557D01*
X156019116Y-72495271D01*
X155893263Y-72306918D01*
X155733082Y-72146737D01*
X155544729Y-72020884D01*
X155335443Y-71934194D01*
X155113265Y-71890000D01*
X154886735Y-71890000D01*
X154664557Y-71934194D01*
X154455271Y-72020884D01*
X154266918Y-72146737D01*
X154106737Y-72306918D01*
X153980884Y-72495271D01*
X153894194Y-72704557D01*
X153850000Y-72926735D01*
X153610000Y-72926735D01*
X153565806Y-72704557D01*
X153479116Y-72495271D01*
X153353263Y-72306918D01*
X153193082Y-72146737D01*
X153004729Y-72020884D01*
X152795443Y-71934194D01*
X152573265Y-71890000D01*
X152346735Y-71890000D01*
X152124557Y-71934194D01*
X151915271Y-72020884D01*
X151726918Y-72146737D01*
X151566737Y-72306918D01*
X151440884Y-72495271D01*
X151354194Y-72704557D01*
X151318103Y-72885998D01*
X151217851Y-72885998D01*
X151327909Y-72661089D01*
X151226935Y-72393700D01*
X151075736Y-72151148D01*
X150880122Y-71942754D01*
X150647611Y-71776527D01*
X150387139Y-71658854D01*
X150298910Y-71632097D01*
X150074002Y-71743110D01*
X150074002Y-71641897D01*
X150255443Y-71605806D01*
X150464729Y-71519116D01*
X150653082Y-71393263D01*
X150813263Y-71233082D01*
X150939116Y-71044729D01*
X151025806Y-70835443D01*
X151070000Y-70613265D01*
X151070000Y-70386735D01*
X151310000Y-70386735D01*
X151310000Y-70613265D01*
X151354194Y-70835443D01*
X151440884Y-71044729D01*
X151566737Y-71233082D01*
X151726918Y-71393263D01*
X151915271Y-71519116D01*
X152124557Y-71605806D01*
X152346735Y-71650000D01*
X152573265Y-71650000D01*
X152795443Y-71605806D01*
X153004729Y-71519116D01*
X153193082Y-71393263D01*
X153353263Y-71233082D01*
X153479116Y-71044729D01*
X153565806Y-70835443D01*
X153610000Y-70613265D01*
X153610000Y-70386735D01*
X153565806Y-70164557D01*
X153479116Y-69955271D01*
X153353263Y-69766918D01*
X153236345Y-69650000D01*
X153848549Y-69650000D01*
X153848549Y-71350000D01*
X153854341Y-71408810D01*
X153871496Y-71465360D01*
X153899353Y-71517477D01*
X153936842Y-71563158D01*
X153982523Y-71600647D01*
X154034640Y-71628504D01*
X154091190Y-71645659D01*
X154150000Y-71651451D01*
X155850000Y-71651451D01*
X155908810Y-71645659D01*
X155965360Y-71628504D01*
X156017477Y-71600647D01*
X156063158Y-71563158D01*
X156100647Y-71517477D01*
X156128504Y-71465360D01*
X156145659Y-71408810D01*
X156151451Y-71350000D01*
X156151451Y-69650000D01*
X156145659Y-69591190D01*
X156128504Y-69534640D01*
X156100647Y-69482523D01*
X156063158Y-69436842D01*
X156017477Y-69399353D01*
X155965360Y-69371496D01*
X155908810Y-69354341D01*
X155850000Y-69348549D01*
X154150000Y-69348549D01*
X154091190Y-69354341D01*
X154034640Y-69371496D01*
X153982523Y-69399353D01*
X153936842Y-69436842D01*
X153899353Y-69482523D01*
X153871496Y-69534640D01*
X153854341Y-69591190D01*
X153848549Y-69650000D01*
X153236345Y-69650000D01*
X153193082Y-69606737D01*
X153004729Y-69480884D01*
X152885000Y-69431290D01*
X152885000Y-68816040D01*
X153601041Y-68100000D01*
X153659095Y-68100000D01*
X153775014Y-68076942D01*
X153884207Y-68031713D01*
X153982478Y-67966050D01*
X154066050Y-67882478D01*
X154131713Y-67784207D01*
X154176942Y-67675014D01*
X154200000Y-67559095D01*
X154200000Y-67440905D01*
X154176942Y-67324986D01*
X154131713Y-67215793D01*
X154066050Y-67117522D01*
X153982478Y-67033950D01*
X153884207Y-66968287D01*
X153775014Y-66923058D01*
X153659095Y-66900000D01*
X153540905Y-66900000D01*
X153424986Y-66923058D01*
X153315793Y-66968287D01*
X153217522Y-67033950D01*
X153133950Y-67117522D01*
X153068287Y-67215793D01*
X153023058Y-67324986D01*
X153000000Y-67440905D01*
X153000000Y-67498959D01*
X152174239Y-68324721D01*
X152158027Y-68338026D01*
X152104917Y-68402740D01*
X152065453Y-68476573D01*
X152041150Y-68556686D01*
X152032945Y-68640000D01*
X152035001Y-68660877D01*
X152035001Y-69431290D01*
X151915271Y-69480884D01*
X151726918Y-69606737D01*
X151566737Y-69766918D01*
X151440884Y-69955271D01*
X151354194Y-70164557D01*
X151310000Y-70386735D01*
X151070000Y-70386735D01*
X151025806Y-70164557D01*
X150939116Y-69955271D01*
X150813263Y-69766918D01*
X150653082Y-69606737D01*
X150464729Y-69480884D01*
X150345000Y-69431290D01*
X150345000Y-69318785D01*
X150347055Y-69297918D01*
X150345000Y-69277051D01*
X150345000Y-69277045D01*
X150338850Y-69214605D01*
X150314548Y-69134492D01*
X150275084Y-69060659D01*
X150221974Y-68995945D01*
X150205762Y-68982640D01*
X147825000Y-66601879D01*
X147825000Y-57700000D01*
X154048549Y-57700000D01*
X154048549Y-61300000D01*
X154054341Y-61358810D01*
X154071496Y-61415360D01*
X154099353Y-61467477D01*
X154136842Y-61513158D01*
X154182523Y-61550647D01*
X154234640Y-61578504D01*
X154291190Y-61595659D01*
X154350000Y-61601451D01*
X156950000Y-61601451D01*
X157008810Y-61595659D01*
X157065360Y-61578504D01*
X157117477Y-61550647D01*
X157163158Y-61513158D01*
X157200647Y-61467477D01*
X157228504Y-61415360D01*
X157245659Y-61358810D01*
X157251451Y-61300000D01*
X157251451Y-59200000D01*
X157351472Y-59200000D01*
X157367522Y-59216050D01*
X157465793Y-59281713D01*
X157574986Y-59326942D01*
X157690905Y-59350000D01*
X157809095Y-59350000D01*
X157925014Y-59326942D01*
X158034207Y-59281713D01*
X158132478Y-59216050D01*
X158216050Y-59132478D01*
X158281713Y-59034207D01*
X158326942Y-58925014D01*
X158350000Y-58809095D01*
X158350000Y-58690905D01*
X158326942Y-58574986D01*
X158281713Y-58465793D01*
X158216050Y-58367522D01*
X158132478Y-58283950D01*
X158034207Y-58218287D01*
X157925014Y-58173058D01*
X157809095Y-58150000D01*
X157690905Y-58150000D01*
X157574986Y-58173058D01*
X157465793Y-58218287D01*
X157367522Y-58283950D01*
X157351472Y-58300000D01*
X157251451Y-58300000D01*
X157251451Y-57700000D01*
X157245659Y-57641190D01*
X157228504Y-57584640D01*
X157200647Y-57532523D01*
X157163158Y-57486842D01*
X157117477Y-57449353D01*
X157065360Y-57421496D01*
X157008810Y-57404341D01*
X156950000Y-57398549D01*
X154350000Y-57398549D01*
X154291190Y-57404341D01*
X154234640Y-57421496D01*
X154182523Y-57449353D01*
X154136842Y-57486842D01*
X154099353Y-57532523D01*
X154071496Y-57584640D01*
X154054341Y-57641190D01*
X154048549Y-57700000D01*
X147825000Y-57700000D01*
X147825000Y-57323528D01*
X147866050Y-57282478D01*
X147931713Y-57184207D01*
X147976942Y-57075014D01*
X148000000Y-56959095D01*
X148000000Y-56840905D01*
X147976942Y-56724986D01*
X147931713Y-56615793D01*
X147866050Y-56517522D01*
X147782478Y-56433950D01*
X147684207Y-56368287D01*
X147575014Y-56323058D01*
X147459095Y-56300000D01*
X147340905Y-56300000D01*
X147224986Y-56323058D01*
X147115793Y-56368287D01*
X147017522Y-56433950D01*
X146933950Y-56517522D01*
X146868287Y-56615793D01*
X146823058Y-56724986D01*
X146800000Y-56840905D01*
X144241946Y-56840905D01*
X142625000Y-55223960D01*
X142625000Y-55023528D01*
X142666050Y-54982478D01*
X142731713Y-54884207D01*
X142776942Y-54775014D01*
X142800000Y-54659095D01*
X142800000Y-54540905D01*
X142776942Y-54424986D01*
X142731713Y-54315793D01*
X142666050Y-54217522D01*
X142582478Y-54133950D01*
X142484207Y-54068287D01*
X142375014Y-54023058D01*
X142259095Y-54000000D01*
X142140905Y-54000000D01*
X142024986Y-54023058D01*
X141915793Y-54068287D01*
X141817522Y-54133950D01*
X141776472Y-54175000D01*
X129220867Y-54175000D01*
X129200000Y-54172945D01*
X129179133Y-54175000D01*
X129179126Y-54175000D01*
X129116686Y-54181150D01*
X129036573Y-54205452D01*
X128962740Y-54244916D01*
X128898026Y-54298026D01*
X128884716Y-54314244D01*
X126064239Y-57134721D01*
X126048027Y-57148026D01*
X125994917Y-57212740D01*
X125961639Y-57275000D01*
X125955453Y-57286573D01*
X125931150Y-57366686D01*
X125928012Y-57398549D01*
X125050000Y-57398549D01*
X124991190Y-57404341D01*
X124934640Y-57421496D01*
X124882523Y-57449353D01*
X124836842Y-57486842D01*
X124799353Y-57532523D01*
X124771496Y-57584640D01*
X124754341Y-57641190D01*
X124748549Y-57700000D01*
X121325000Y-57700000D01*
X121325000Y-49015897D01*
X121358429Y-48674960D01*
X121452827Y-48362301D01*
X121606156Y-48073932D01*
X121812578Y-47820833D01*
X122064223Y-47612655D01*
X122351518Y-47457315D01*
X122663508Y-47360739D01*
X123003540Y-47325000D01*
X158984103Y-47325000D01*
X159325040Y-47358429D01*
G04 #@! TA.AperFunction,Conductor*
D17*
G36*
X159325040Y-47358429D02*
G01*
X159637699Y-47452827D01*
X159926068Y-47606156D01*
X160179167Y-47812578D01*
X160387345Y-48064223D01*
X160542685Y-48351518D01*
X160639261Y-48663508D01*
X160675000Y-49003540D01*
X160675001Y-73984093D01*
X160641571Y-74325041D01*
X160547173Y-74637700D01*
X160393843Y-74926070D01*
X160187422Y-75179167D01*
X159935780Y-75387344D01*
X159648481Y-75542685D01*
X159336497Y-75639260D01*
X158996460Y-75675000D01*
X123015897Y-75675000D01*
X122674959Y-75641571D01*
X122362300Y-75547173D01*
X122073930Y-75393843D01*
X121820833Y-75187422D01*
X121612656Y-74935780D01*
X121457315Y-74648481D01*
X121360740Y-74336497D01*
X121325000Y-73996460D01*
X121325000Y-73418911D01*
X148512091Y-73418911D01*
X148613065Y-73686300D01*
X148764264Y-73928852D01*
X148959878Y-74137246D01*
X149192389Y-74303473D01*
X149452861Y-74421146D01*
X149541090Y-74447903D01*
X149766000Y-74336889D01*
X149766000Y-73194000D01*
X148622150Y-73194000D01*
X148512091Y-73418911D01*
X121325000Y-73418911D01*
X121325000Y-63853405D01*
X138312500Y-63853405D01*
X138312500Y-63971595D01*
X138335558Y-64087514D01*
X138380787Y-64196707D01*
X138446450Y-64294978D01*
X138530022Y-64378550D01*
X138628293Y-64444213D01*
X138737486Y-64489442D01*
X138853405Y-64512500D01*
X138971595Y-64512500D01*
X139087514Y-64489442D01*
X139196707Y-64444213D01*
X139294978Y-64378550D01*
X139336028Y-64337500D01*
X144666633Y-64337500D01*
X144687500Y-64339555D01*
X144708367Y-64337500D01*
X144708374Y-64337500D01*
X144770814Y-64331350D01*
X144850927Y-64307048D01*
X144924760Y-64267584D01*
X144989474Y-64214474D01*
X145002783Y-64198257D01*
X145301041Y-63900000D01*
X145359095Y-63900000D01*
X145475014Y-63876942D01*
X145584207Y-63831713D01*
X145682478Y-63766050D01*
X145766050Y-63682478D01*
X145831713Y-63584207D01*
X145876942Y-63475014D01*
X145900000Y-63359095D01*
X145900000Y-63240905D01*
X145876942Y-63124986D01*
X145831713Y-63015793D01*
X145766050Y-62917522D01*
X145682478Y-62833950D01*
X145584207Y-62768287D01*
X145475014Y-62723058D01*
X145359095Y-62700000D01*
X145240905Y-62700000D01*
X145124986Y-62723058D01*
X145015793Y-62768287D01*
X144917522Y-62833950D01*
X144833950Y-62917522D01*
X144768287Y-63015793D01*
X144723058Y-63124986D01*
X144700000Y-63240905D01*
X144700000Y-63298959D01*
X144511460Y-63487500D01*
X139336028Y-63487500D01*
X139294978Y-63446450D01*
X139196707Y-63380787D01*
X139087514Y-63335558D01*
X138971595Y-63312500D01*
X138853405Y-63312500D01*
X138737486Y-63335558D01*
X138628293Y-63380787D01*
X138530022Y-63446450D01*
X138446450Y-63530022D01*
X138380787Y-63628293D01*
X138335558Y-63737486D01*
X138312500Y-63853405D01*
X121325000Y-63853405D01*
X121325000Y-57700000D01*
X124748549Y-57700000D01*
X124748549Y-61300000D01*
X124754341Y-61358810D01*
X124771496Y-61415360D01*
X124799353Y-61467477D01*
X124836842Y-61513158D01*
X124882523Y-61550647D01*
X124934640Y-61578504D01*
X124991190Y-61595659D01*
X125050000Y-61601451D01*
X127650000Y-61601451D01*
X127708810Y-61595659D01*
X127765360Y-61578504D01*
X127817477Y-61550647D01*
X127863158Y-61513158D01*
X127900647Y-61467477D01*
X127928504Y-61415360D01*
X127945659Y-61358810D01*
X127951451Y-61300000D01*
X127951451Y-57700000D01*
X127945659Y-57641190D01*
X127945573Y-57640905D01*
X134800000Y-57640905D01*
X134800000Y-57759095D01*
X134823058Y-57875014D01*
X134868287Y-57984207D01*
X134933950Y-58082478D01*
X135017522Y-58166050D01*
X135115793Y-58231713D01*
X135224986Y-58276942D01*
X135340905Y-58300000D01*
X135459095Y-58300000D01*
X135575014Y-58276942D01*
X135684207Y-58231713D01*
X135782478Y-58166050D01*
X135823528Y-58125000D01*
X136776472Y-58125000D01*
X136817522Y-58166050D01*
X136915793Y-58231713D01*
X137024986Y-58276942D01*
X137140905Y-58300000D01*
X137259095Y-58300000D01*
X137375014Y-58276942D01*
X137484207Y-58231713D01*
X137582478Y-58166050D01*
X137666050Y-58082478D01*
X137731713Y-57984207D01*
X137776942Y-57875014D01*
X137800000Y-57759095D01*
X137800000Y-57640905D01*
X137776942Y-57524986D01*
X137731713Y-57415793D01*
X137666050Y-57317522D01*
X137582478Y-57233950D01*
X137484207Y-57168287D01*
X137375014Y-57123058D01*
X137259095Y-57100000D01*
X137140905Y-57100000D01*
X137024986Y-57123058D01*
X136915793Y-57168287D01*
X136817522Y-57233950D01*
X136776472Y-57275000D01*
X135823528Y-57275000D01*
X135782478Y-57233950D01*
X135684207Y-57168287D01*
X135575014Y-57123058D01*
X135459095Y-57100000D01*
X135340905Y-57100000D01*
X135224986Y-57123058D01*
X135115793Y-57168287D01*
X135017522Y-57233950D01*
X134933950Y-57317522D01*
X134868287Y-57415793D01*
X134823058Y-57524986D01*
X134800000Y-57640905D01*
X127945573Y-57640905D01*
X127928504Y-57584640D01*
X127900647Y-57532523D01*
X127863158Y-57486842D01*
X127817477Y-57449353D01*
X127765360Y-57421496D01*
X127708810Y-57404341D01*
X127650000Y-57398549D01*
X127002491Y-57398549D01*
X129376040Y-55025000D01*
X141775000Y-55025000D01*
X141775000Y-55379133D01*
X141772945Y-55400000D01*
X141775000Y-55420867D01*
X141775000Y-55420874D01*
X141781150Y-55483314D01*
X141805453Y-55563427D01*
X141844917Y-55637260D01*
X141898027Y-55701974D01*
X141914239Y-55715279D01*
X144200000Y-58001041D01*
X144200000Y-58059095D01*
X144223058Y-58175014D01*
X144268287Y-58284207D01*
X144333950Y-58382478D01*
X144417522Y-58466050D01*
X144515793Y-58531713D01*
X144624986Y-58576942D01*
X144740905Y-58600000D01*
X144859095Y-58600000D01*
X144975014Y-58576942D01*
X145084207Y-58531713D01*
X145182478Y-58466050D01*
X145266050Y-58382478D01*
X145331713Y-58284207D01*
X145376942Y-58175014D01*
X145400000Y-58059095D01*
X145400000Y-57940905D01*
X145376942Y-57824986D01*
X145331713Y-57715793D01*
X145266050Y-57617522D01*
X145182478Y-57533950D01*
X145084207Y-57468287D01*
X144975014Y-57423058D01*
X144859095Y-57400000D01*
X144801041Y-57400000D01*
X144241946Y-56840905D01*
X146800000Y-56840905D01*
X146800000Y-56959095D01*
X146823058Y-57075014D01*
X146868287Y-57184207D01*
X146933950Y-57282478D01*
X146975001Y-57323529D01*
X146975000Y-60869871D01*
X146975001Y-60869881D01*
X146975000Y-66757052D01*
X146972945Y-66777919D01*
X146975000Y-66798786D01*
X146975000Y-66798792D01*
X146981150Y-66861232D01*
X147005452Y-66941345D01*
X147044916Y-67015178D01*
X147098026Y-67079893D01*
X147114243Y-67093202D01*
X149464828Y-69443788D01*
X149375271Y-69480884D01*
X149186918Y-69606737D01*
X149026737Y-69766918D01*
X148900884Y-69955271D01*
X148814194Y-70164557D01*
X148770000Y-70386735D01*
X148770000Y-70613265D01*
X148814194Y-70835443D01*
X148900884Y-71044729D01*
X149026737Y-71233082D01*
X149186918Y-71393263D01*
X149375271Y-71519116D01*
X149584557Y-71605806D01*
X149765998Y-71641897D01*
X149765998Y-71743110D01*
X149541090Y-71632097D01*
X149452861Y-71658854D01*
X149192389Y-71776527D01*
X148959878Y-71942754D01*
X148764264Y-72151148D01*
X148613065Y-72393700D01*
X148512091Y-72661089D01*
X148622150Y-72886000D01*
X149766000Y-72886000D01*
X149766000Y-72866000D01*
X150074000Y-72866000D01*
X150074000Y-72886000D01*
X150094000Y-72886000D01*
X150094000Y-73194000D01*
X150074000Y-73194000D01*
X150074000Y-74336889D01*
X150298910Y-74447903D01*
X150387139Y-74421146D01*
X150647611Y-74303473D01*
X150880122Y-74137246D01*
X151075736Y-73928852D01*
X151226935Y-73686300D01*
X151327909Y-73418911D01*
X151217851Y-73194002D01*
X151318103Y-73194002D01*
X151354194Y-73375443D01*
X151440884Y-73584729D01*
X151566737Y-73773082D01*
X151726918Y-73933263D01*
X151915271Y-74059116D01*
X152124557Y-74145806D01*
X152346735Y-74190000D01*
X152573265Y-74190000D01*
X152795443Y-74145806D01*
X153004729Y-74059116D01*
X153193082Y-73933263D01*
X153353263Y-73773082D01*
X153479116Y-73584729D01*
X153565806Y-73375443D01*
X153610000Y-73153265D01*
X153610000Y-72926735D01*
X153850000Y-72926735D01*
X153850000Y-73153265D01*
X153894194Y-73375443D01*
X153980884Y-73584729D01*
X154106737Y-73773082D01*
X154266918Y-73933263D01*
X154455271Y-74059116D01*
X154664557Y-74145806D01*
X154886735Y-74190000D01*
X155113265Y-74190000D01*
X155335443Y-74145806D01*
X155544729Y-74059116D01*
X155733082Y-73933263D01*
X155893263Y-73773082D01*
X156019116Y-73584729D01*
X156105806Y-73375443D01*
X156150000Y-73153265D01*
X156150000Y-72926735D01*
X156105806Y-72704557D01*
X156019116Y-72495271D01*
X155893263Y-72306918D01*
X155733082Y-72146737D01*
X155544729Y-72020884D01*
X155335443Y-71934194D01*
X155113265Y-71890000D01*
X154886735Y-71890000D01*
X154664557Y-71934194D01*
X154455271Y-72020884D01*
X154266918Y-72146737D01*
X154106737Y-72306918D01*
X153980884Y-72495271D01*
X153894194Y-72704557D01*
X153850000Y-72926735D01*
X153610000Y-72926735D01*
X153565806Y-72704557D01*
X153479116Y-72495271D01*
X153353263Y-72306918D01*
X153193082Y-72146737D01*
X153004729Y-72020884D01*
X152795443Y-71934194D01*
X152573265Y-71890000D01*
X152346735Y-71890000D01*
X152124557Y-71934194D01*
X151915271Y-72020884D01*
X151726918Y-72146737D01*
X151566737Y-72306918D01*
X151440884Y-72495271D01*
X151354194Y-72704557D01*
X151318103Y-72885998D01*
X151217851Y-72885998D01*
X151327909Y-72661089D01*
X151226935Y-72393700D01*
X151075736Y-72151148D01*
X150880122Y-71942754D01*
X150647611Y-71776527D01*
X150387139Y-71658854D01*
X150298910Y-71632097D01*
X150074002Y-71743110D01*
X150074002Y-71641897D01*
X150255443Y-71605806D01*
X150464729Y-71519116D01*
X150653082Y-71393263D01*
X150813263Y-71233082D01*
X150939116Y-71044729D01*
X151025806Y-70835443D01*
X151070000Y-70613265D01*
X151070000Y-70386735D01*
X151310000Y-70386735D01*
X151310000Y-70613265D01*
X151354194Y-70835443D01*
X151440884Y-71044729D01*
X151566737Y-71233082D01*
X151726918Y-71393263D01*
X151915271Y-71519116D01*
X152124557Y-71605806D01*
X152346735Y-71650000D01*
X152573265Y-71650000D01*
X152795443Y-71605806D01*
X153004729Y-71519116D01*
X153193082Y-71393263D01*
X153353263Y-71233082D01*
X153479116Y-71044729D01*
X153565806Y-70835443D01*
X153610000Y-70613265D01*
X153610000Y-70386735D01*
X153565806Y-70164557D01*
X153479116Y-69955271D01*
X153353263Y-69766918D01*
X153236345Y-69650000D01*
X153848549Y-69650000D01*
X153848549Y-71350000D01*
X153854341Y-71408810D01*
X153871496Y-71465360D01*
X153899353Y-71517477D01*
X153936842Y-71563158D01*
X153982523Y-71600647D01*
X154034640Y-71628504D01*
X154091190Y-71645659D01*
X154150000Y-71651451D01*
X155850000Y-71651451D01*
X155908810Y-71645659D01*
X155965360Y-71628504D01*
X156017477Y-71600647D01*
X156063158Y-71563158D01*
X156100647Y-71517477D01*
X156128504Y-71465360D01*
X156145659Y-71408810D01*
X156151451Y-71350000D01*
X156151451Y-69650000D01*
X156145659Y-69591190D01*
X156128504Y-69534640D01*
X156100647Y-69482523D01*
X156063158Y-69436842D01*
X156017477Y-69399353D01*
X155965360Y-69371496D01*
X155908810Y-69354341D01*
X155850000Y-69348549D01*
X154150000Y-69348549D01*
X154091190Y-69354341D01*
X154034640Y-69371496D01*
X153982523Y-69399353D01*
X153936842Y-69436842D01*
X153899353Y-69482523D01*
X153871496Y-69534640D01*
X153854341Y-69591190D01*
X153848549Y-69650000D01*
X153236345Y-69650000D01*
X153193082Y-69606737D01*
X153004729Y-69480884D01*
X152885000Y-69431290D01*
X152885000Y-68816040D01*
X153601041Y-68100000D01*
X153659095Y-68100000D01*
X153775014Y-68076942D01*
X153884207Y-68031713D01*
X153982478Y-67966050D01*
X154066050Y-67882478D01*
X154131713Y-67784207D01*
X154176942Y-67675014D01*
X154200000Y-67559095D01*
X154200000Y-67440905D01*
X154176942Y-67324986D01*
X154131713Y-67215793D01*
X154066050Y-67117522D01*
X153982478Y-67033950D01*
X153884207Y-66968287D01*
X153775014Y-66923058D01*
X153659095Y-66900000D01*
X153540905Y-66900000D01*
X153424986Y-66923058D01*
X153315793Y-66968287D01*
X153217522Y-67033950D01*
X153133950Y-67117522D01*
X153068287Y-67215793D01*
X153023058Y-67324986D01*
X153000000Y-67440905D01*
X153000000Y-67498959D01*
X152174239Y-68324721D01*
X152158027Y-68338026D01*
X152104917Y-68402740D01*
X152065453Y-68476573D01*
X152041150Y-68556686D01*
X152032945Y-68640000D01*
X152035001Y-68660877D01*
X152035001Y-69431290D01*
X151915271Y-69480884D01*
X151726918Y-69606737D01*
X151566737Y-69766918D01*
X151440884Y-69955271D01*
X151354194Y-70164557D01*
X151310000Y-70386735D01*
X151070000Y-70386735D01*
X151025806Y-70164557D01*
X150939116Y-69955271D01*
X150813263Y-69766918D01*
X150653082Y-69606737D01*
X150464729Y-69480884D01*
X150345000Y-69431290D01*
X150345000Y-69318785D01*
X150347055Y-69297918D01*
X150345000Y-69277051D01*
X150345000Y-69277045D01*
X150338850Y-69214605D01*
X150314548Y-69134492D01*
X150275084Y-69060659D01*
X150221974Y-68995945D01*
X150205762Y-68982640D01*
X147825000Y-66601879D01*
X147825000Y-57700000D01*
X154048549Y-57700000D01*
X154048549Y-61300000D01*
X154054341Y-61358810D01*
X154071496Y-61415360D01*
X154099353Y-61467477D01*
X154136842Y-61513158D01*
X154182523Y-61550647D01*
X154234640Y-61578504D01*
X154291190Y-61595659D01*
X154350000Y-61601451D01*
X156950000Y-61601451D01*
X157008810Y-61595659D01*
X157065360Y-61578504D01*
X157117477Y-61550647D01*
X157163158Y-61513158D01*
X157200647Y-61467477D01*
X157228504Y-61415360D01*
X157245659Y-61358810D01*
X157251451Y-61300000D01*
X157251451Y-59200000D01*
X157351472Y-59200000D01*
X157367522Y-59216050D01*
X157465793Y-59281713D01*
X157574986Y-59326942D01*
X157690905Y-59350000D01*
X157809095Y-59350000D01*
X157925014Y-59326942D01*
X158034207Y-59281713D01*
X158132478Y-59216050D01*
X158216050Y-59132478D01*
X158281713Y-59034207D01*
X158326942Y-58925014D01*
X158350000Y-58809095D01*
X158350000Y-58690905D01*
X158326942Y-58574986D01*
X158281713Y-58465793D01*
X158216050Y-58367522D01*
X158132478Y-58283950D01*
X158034207Y-58218287D01*
X157925014Y-58173058D01*
X157809095Y-58150000D01*
X157690905Y-58150000D01*
X157574986Y-58173058D01*
X157465793Y-58218287D01*
X157367522Y-58283950D01*
X157351472Y-58300000D01*
X157251451Y-58300000D01*
X157251451Y-57700000D01*
X157245659Y-57641190D01*
X157228504Y-57584640D01*
X157200647Y-57532523D01*
X157163158Y-57486842D01*
X157117477Y-57449353D01*
X157065360Y-57421496D01*
X157008810Y-57404341D01*
X156950000Y-57398549D01*
X154350000Y-57398549D01*
X154291190Y-57404341D01*
X154234640Y-57421496D01*
X154182523Y-57449353D01*
X154136842Y-57486842D01*
X154099353Y-57532523D01*
X154071496Y-57584640D01*
X154054341Y-57641190D01*
X154048549Y-57700000D01*
X147825000Y-57700000D01*
X147825000Y-57323528D01*
X147866050Y-57282478D01*
X147931713Y-57184207D01*
X147976942Y-57075014D01*
X148000000Y-56959095D01*
X148000000Y-56840905D01*
X147976942Y-56724986D01*
X147931713Y-56615793D01*
X147866050Y-56517522D01*
X147782478Y-56433950D01*
X147684207Y-56368287D01*
X147575014Y-56323058D01*
X147459095Y-56300000D01*
X147340905Y-56300000D01*
X147224986Y-56323058D01*
X147115793Y-56368287D01*
X147017522Y-56433950D01*
X146933950Y-56517522D01*
X146868287Y-56615793D01*
X146823058Y-56724986D01*
X146800000Y-56840905D01*
X144241946Y-56840905D01*
X142625000Y-55223960D01*
X142625000Y-55023528D01*
X142666050Y-54982478D01*
X142731713Y-54884207D01*
X142776942Y-54775014D01*
X142800000Y-54659095D01*
X142800000Y-54540905D01*
X142776942Y-54424986D01*
X142731713Y-54315793D01*
X142666050Y-54217522D01*
X142582478Y-54133950D01*
X142484207Y-54068287D01*
X142375014Y-54023058D01*
X142259095Y-54000000D01*
X142140905Y-54000000D01*
X142024986Y-54023058D01*
X141915793Y-54068287D01*
X141817522Y-54133950D01*
X141776472Y-54175000D01*
X129220867Y-54175000D01*
X129200000Y-54172945D01*
X129179133Y-54175000D01*
X129179126Y-54175000D01*
X129116686Y-54181150D01*
X129036573Y-54205452D01*
X128962740Y-54244916D01*
X128898026Y-54298026D01*
X128884716Y-54314244D01*
X126064239Y-57134721D01*
X126048027Y-57148026D01*
X125994917Y-57212740D01*
X125961639Y-57275000D01*
X125955453Y-57286573D01*
X125931150Y-57366686D01*
X125928012Y-57398549D01*
X125050000Y-57398549D01*
X124991190Y-57404341D01*
X124934640Y-57421496D01*
X124882523Y-57449353D01*
X124836842Y-57486842D01*
X124799353Y-57532523D01*
X124771496Y-57584640D01*
X124754341Y-57641190D01*
X124748549Y-57700000D01*
X121325000Y-57700000D01*
X121325000Y-49015897D01*
X121358429Y-48674960D01*
X121452827Y-48362301D01*
X121606156Y-48073932D01*
X121812578Y-47820833D01*
X122064223Y-47612655D01*
X122351518Y-47457315D01*
X122663508Y-47360739D01*
X123003540Y-47325000D01*
X158984103Y-47325000D01*
X159325040Y-47358429D01*
G37*
G04 #@! TD.AperFunction*
M02*
