G04 #@! TF.GenerationSoftware,KiCad,Pcbnew,(5.1.9)-1*
G04 #@! TF.CreationDate,2021-03-03T07:25:27+02:00*
G04 #@! TF.ProjectId,reverse,72657665-7273-4652-9e6b-696361645f70,rev?*
G04 #@! TF.SameCoordinates,Original*
G04 #@! TF.FileFunction,Paste,Top*
G04 #@! TF.FilePolarity,Positive*
%FSLAX46Y46*%
G04 Gerber Fmt 4.6, Leading zero omitted, Abs format (unit mm)*
G04 Created by KiCad (PCBNEW (5.1.9)-1) date 2021-03-03 07:25:27*
%MOMM*%
%LPD*%
G01*
G04 APERTURE LIST*
%ADD10R,0.400000X0.510000*%
%ADD11C,0.100000*%
%ADD12R,1.550000X1.300000*%
G04 APERTURE END LIST*
D10*
X149250000Y-60900000D03*
X148250000Y-60900000D03*
X148750000Y-59600000D03*
D11*
G36*
X139724693Y-57151201D02*
G01*
X139736418Y-57154758D01*
X139747223Y-57160533D01*
X139756694Y-57168306D01*
X139764467Y-57177777D01*
X139770242Y-57188582D01*
X139773799Y-57200307D01*
X139775000Y-57212500D01*
X139775000Y-57887500D01*
X139773799Y-57899693D01*
X139770242Y-57911418D01*
X139764467Y-57922223D01*
X139756694Y-57931694D01*
X139747223Y-57939467D01*
X139736418Y-57945242D01*
X139724693Y-57948799D01*
X139712500Y-57950000D01*
X139650888Y-57950000D01*
X139638695Y-57948799D01*
X139626970Y-57945242D01*
X139616165Y-57939467D01*
X139606694Y-57931694D01*
X139543306Y-57868306D01*
X139535533Y-57858835D01*
X139529758Y-57848030D01*
X139526201Y-57836305D01*
X139525000Y-57824112D01*
X139525000Y-57212500D01*
X139526201Y-57200307D01*
X139529758Y-57188582D01*
X139535533Y-57177777D01*
X139543306Y-57168306D01*
X139552777Y-57160533D01*
X139563582Y-57154758D01*
X139575307Y-57151201D01*
X139587500Y-57150000D01*
X139712500Y-57150000D01*
X139724693Y-57151201D01*
G37*
G36*
G01*
X139975000Y-57887500D02*
X139975000Y-57212500D01*
G75*
G02*
X140037500Y-57150000I62500J0D01*
G01*
X140162500Y-57150000D01*
G75*
G02*
X140225000Y-57212500I0J-62500D01*
G01*
X140225000Y-57887500D01*
G75*
G02*
X140162500Y-57950000I-62500J0D01*
G01*
X140037500Y-57950000D01*
G75*
G02*
X139975000Y-57887500I0J62500D01*
G01*
G37*
G36*
G01*
X140425000Y-57887500D02*
X140425000Y-57212500D01*
G75*
G02*
X140487500Y-57150000I62500J0D01*
G01*
X140612500Y-57150000D01*
G75*
G02*
X140675000Y-57212500I0J-62500D01*
G01*
X140675000Y-57887500D01*
G75*
G02*
X140612500Y-57950000I-62500J0D01*
G01*
X140487500Y-57950000D01*
G75*
G02*
X140425000Y-57887500I0J62500D01*
G01*
G37*
G36*
G01*
X140875000Y-57887500D02*
X140875000Y-57212500D01*
G75*
G02*
X140937500Y-57150000I62500J0D01*
G01*
X141062500Y-57150000D01*
G75*
G02*
X141125000Y-57212500I0J-62500D01*
G01*
X141125000Y-57887500D01*
G75*
G02*
X141062500Y-57950000I-62500J0D01*
G01*
X140937500Y-57950000D01*
G75*
G02*
X140875000Y-57887500I0J62500D01*
G01*
G37*
G36*
G01*
X141325000Y-57887500D02*
X141325000Y-57212500D01*
G75*
G02*
X141387500Y-57150000I62500J0D01*
G01*
X141512500Y-57150000D01*
G75*
G02*
X141575000Y-57212500I0J-62500D01*
G01*
X141575000Y-57887500D01*
G75*
G02*
X141512500Y-57950000I-62500J0D01*
G01*
X141387500Y-57950000D01*
G75*
G02*
X141325000Y-57887500I0J62500D01*
G01*
G37*
G36*
G01*
X141775000Y-57887500D02*
X141775000Y-57212500D01*
G75*
G02*
X141837500Y-57150000I62500J0D01*
G01*
X141962500Y-57150000D01*
G75*
G02*
X142025000Y-57212500I0J-62500D01*
G01*
X142025000Y-57887500D01*
G75*
G02*
X141962500Y-57950000I-62500J0D01*
G01*
X141837500Y-57950000D01*
G75*
G02*
X141775000Y-57887500I0J62500D01*
G01*
G37*
G36*
X142424693Y-57151201D02*
G01*
X142436418Y-57154758D01*
X142447223Y-57160533D01*
X142456694Y-57168306D01*
X142464467Y-57177777D01*
X142470242Y-57188582D01*
X142473799Y-57200307D01*
X142475000Y-57212500D01*
X142475000Y-57824112D01*
X142473799Y-57836305D01*
X142470242Y-57848030D01*
X142464467Y-57858835D01*
X142456694Y-57868306D01*
X142393306Y-57931694D01*
X142383835Y-57939467D01*
X142373030Y-57945242D01*
X142361305Y-57948799D01*
X142349112Y-57950000D01*
X142287500Y-57950000D01*
X142275307Y-57948799D01*
X142263582Y-57945242D01*
X142252777Y-57939467D01*
X142243306Y-57931694D01*
X142235533Y-57922223D01*
X142229758Y-57911418D01*
X142226201Y-57899693D01*
X142225000Y-57887500D01*
X142225000Y-57212500D01*
X142226201Y-57200307D01*
X142229758Y-57188582D01*
X142235533Y-57177777D01*
X142243306Y-57168306D01*
X142252777Y-57160533D01*
X142263582Y-57154758D01*
X142275307Y-57151201D01*
X142287500Y-57150000D01*
X142412500Y-57150000D01*
X142424693Y-57151201D01*
G37*
G36*
X143299693Y-58026201D02*
G01*
X143311418Y-58029758D01*
X143322223Y-58035533D01*
X143331694Y-58043306D01*
X143339467Y-58052777D01*
X143345242Y-58063582D01*
X143348799Y-58075307D01*
X143350000Y-58087500D01*
X143350000Y-58212500D01*
X143348799Y-58224693D01*
X143345242Y-58236418D01*
X143339467Y-58247223D01*
X143331694Y-58256694D01*
X143322223Y-58264467D01*
X143311418Y-58270242D01*
X143299693Y-58273799D01*
X143287500Y-58275000D01*
X142612500Y-58275000D01*
X142600307Y-58273799D01*
X142588582Y-58270242D01*
X142577777Y-58264467D01*
X142568306Y-58256694D01*
X142560533Y-58247223D01*
X142554758Y-58236418D01*
X142551201Y-58224693D01*
X142550000Y-58212500D01*
X142550000Y-58150888D01*
X142551201Y-58138695D01*
X142554758Y-58126970D01*
X142560533Y-58116165D01*
X142568306Y-58106694D01*
X142631694Y-58043306D01*
X142641165Y-58035533D01*
X142651970Y-58029758D01*
X142663695Y-58026201D01*
X142675888Y-58025000D01*
X143287500Y-58025000D01*
X143299693Y-58026201D01*
G37*
G36*
G01*
X142550000Y-58662500D02*
X142550000Y-58537500D01*
G75*
G02*
X142612500Y-58475000I62500J0D01*
G01*
X143287500Y-58475000D01*
G75*
G02*
X143350000Y-58537500I0J-62500D01*
G01*
X143350000Y-58662500D01*
G75*
G02*
X143287500Y-58725000I-62500J0D01*
G01*
X142612500Y-58725000D01*
G75*
G02*
X142550000Y-58662500I0J62500D01*
G01*
G37*
G36*
G01*
X142550000Y-59112500D02*
X142550000Y-58987500D01*
G75*
G02*
X142612500Y-58925000I62500J0D01*
G01*
X143287500Y-58925000D01*
G75*
G02*
X143350000Y-58987500I0J-62500D01*
G01*
X143350000Y-59112500D01*
G75*
G02*
X143287500Y-59175000I-62500J0D01*
G01*
X142612500Y-59175000D01*
G75*
G02*
X142550000Y-59112500I0J62500D01*
G01*
G37*
G36*
G01*
X142550000Y-59562500D02*
X142550000Y-59437500D01*
G75*
G02*
X142612500Y-59375000I62500J0D01*
G01*
X143287500Y-59375000D01*
G75*
G02*
X143350000Y-59437500I0J-62500D01*
G01*
X143350000Y-59562500D01*
G75*
G02*
X143287500Y-59625000I-62500J0D01*
G01*
X142612500Y-59625000D01*
G75*
G02*
X142550000Y-59562500I0J62500D01*
G01*
G37*
G36*
G01*
X142550000Y-60012500D02*
X142550000Y-59887500D01*
G75*
G02*
X142612500Y-59825000I62500J0D01*
G01*
X143287500Y-59825000D01*
G75*
G02*
X143350000Y-59887500I0J-62500D01*
G01*
X143350000Y-60012500D01*
G75*
G02*
X143287500Y-60075000I-62500J0D01*
G01*
X142612500Y-60075000D01*
G75*
G02*
X142550000Y-60012500I0J62500D01*
G01*
G37*
G36*
G01*
X142550000Y-60462500D02*
X142550000Y-60337500D01*
G75*
G02*
X142612500Y-60275000I62500J0D01*
G01*
X143287500Y-60275000D01*
G75*
G02*
X143350000Y-60337500I0J-62500D01*
G01*
X143350000Y-60462500D01*
G75*
G02*
X143287500Y-60525000I-62500J0D01*
G01*
X142612500Y-60525000D01*
G75*
G02*
X142550000Y-60462500I0J62500D01*
G01*
G37*
G36*
X143299693Y-60726201D02*
G01*
X143311418Y-60729758D01*
X143322223Y-60735533D01*
X143331694Y-60743306D01*
X143339467Y-60752777D01*
X143345242Y-60763582D01*
X143348799Y-60775307D01*
X143350000Y-60787500D01*
X143350000Y-60912500D01*
X143348799Y-60924693D01*
X143345242Y-60936418D01*
X143339467Y-60947223D01*
X143331694Y-60956694D01*
X143322223Y-60964467D01*
X143311418Y-60970242D01*
X143299693Y-60973799D01*
X143287500Y-60975000D01*
X142675888Y-60975000D01*
X142663695Y-60973799D01*
X142651970Y-60970242D01*
X142641165Y-60964467D01*
X142631694Y-60956694D01*
X142568306Y-60893306D01*
X142560533Y-60883835D01*
X142554758Y-60873030D01*
X142551201Y-60861305D01*
X142550000Y-60849112D01*
X142550000Y-60787500D01*
X142551201Y-60775307D01*
X142554758Y-60763582D01*
X142560533Y-60752777D01*
X142568306Y-60743306D01*
X142577777Y-60735533D01*
X142588582Y-60729758D01*
X142600307Y-60726201D01*
X142612500Y-60725000D01*
X143287500Y-60725000D01*
X143299693Y-60726201D01*
G37*
G36*
X142361305Y-61051201D02*
G01*
X142373030Y-61054758D01*
X142383835Y-61060533D01*
X142393306Y-61068306D01*
X142456694Y-61131694D01*
X142464467Y-61141165D01*
X142470242Y-61151970D01*
X142473799Y-61163695D01*
X142475000Y-61175888D01*
X142475000Y-61787500D01*
X142473799Y-61799693D01*
X142470242Y-61811418D01*
X142464467Y-61822223D01*
X142456694Y-61831694D01*
X142447223Y-61839467D01*
X142436418Y-61845242D01*
X142424693Y-61848799D01*
X142412500Y-61850000D01*
X142287500Y-61850000D01*
X142275307Y-61848799D01*
X142263582Y-61845242D01*
X142252777Y-61839467D01*
X142243306Y-61831694D01*
X142235533Y-61822223D01*
X142229758Y-61811418D01*
X142226201Y-61799693D01*
X142225000Y-61787500D01*
X142225000Y-61112500D01*
X142226201Y-61100307D01*
X142229758Y-61088582D01*
X142235533Y-61077777D01*
X142243306Y-61068306D01*
X142252777Y-61060533D01*
X142263582Y-61054758D01*
X142275307Y-61051201D01*
X142287500Y-61050000D01*
X142349112Y-61050000D01*
X142361305Y-61051201D01*
G37*
G36*
G01*
X141775000Y-61787500D02*
X141775000Y-61112500D01*
G75*
G02*
X141837500Y-61050000I62500J0D01*
G01*
X141962500Y-61050000D01*
G75*
G02*
X142025000Y-61112500I0J-62500D01*
G01*
X142025000Y-61787500D01*
G75*
G02*
X141962500Y-61850000I-62500J0D01*
G01*
X141837500Y-61850000D01*
G75*
G02*
X141775000Y-61787500I0J62500D01*
G01*
G37*
G36*
G01*
X141325000Y-61787500D02*
X141325000Y-61112500D01*
G75*
G02*
X141387500Y-61050000I62500J0D01*
G01*
X141512500Y-61050000D01*
G75*
G02*
X141575000Y-61112500I0J-62500D01*
G01*
X141575000Y-61787500D01*
G75*
G02*
X141512500Y-61850000I-62500J0D01*
G01*
X141387500Y-61850000D01*
G75*
G02*
X141325000Y-61787500I0J62500D01*
G01*
G37*
G36*
G01*
X140875000Y-61787500D02*
X140875000Y-61112500D01*
G75*
G02*
X140937500Y-61050000I62500J0D01*
G01*
X141062500Y-61050000D01*
G75*
G02*
X141125000Y-61112500I0J-62500D01*
G01*
X141125000Y-61787500D01*
G75*
G02*
X141062500Y-61850000I-62500J0D01*
G01*
X140937500Y-61850000D01*
G75*
G02*
X140875000Y-61787500I0J62500D01*
G01*
G37*
G36*
G01*
X140425000Y-61787500D02*
X140425000Y-61112500D01*
G75*
G02*
X140487500Y-61050000I62500J0D01*
G01*
X140612500Y-61050000D01*
G75*
G02*
X140675000Y-61112500I0J-62500D01*
G01*
X140675000Y-61787500D01*
G75*
G02*
X140612500Y-61850000I-62500J0D01*
G01*
X140487500Y-61850000D01*
G75*
G02*
X140425000Y-61787500I0J62500D01*
G01*
G37*
G36*
G01*
X139975000Y-61787500D02*
X139975000Y-61112500D01*
G75*
G02*
X140037500Y-61050000I62500J0D01*
G01*
X140162500Y-61050000D01*
G75*
G02*
X140225000Y-61112500I0J-62500D01*
G01*
X140225000Y-61787500D01*
G75*
G02*
X140162500Y-61850000I-62500J0D01*
G01*
X140037500Y-61850000D01*
G75*
G02*
X139975000Y-61787500I0J62500D01*
G01*
G37*
G36*
X139724693Y-61051201D02*
G01*
X139736418Y-61054758D01*
X139747223Y-61060533D01*
X139756694Y-61068306D01*
X139764467Y-61077777D01*
X139770242Y-61088582D01*
X139773799Y-61100307D01*
X139775000Y-61112500D01*
X139775000Y-61787500D01*
X139773799Y-61799693D01*
X139770242Y-61811418D01*
X139764467Y-61822223D01*
X139756694Y-61831694D01*
X139747223Y-61839467D01*
X139736418Y-61845242D01*
X139724693Y-61848799D01*
X139712500Y-61850000D01*
X139587500Y-61850000D01*
X139575307Y-61848799D01*
X139563582Y-61845242D01*
X139552777Y-61839467D01*
X139543306Y-61831694D01*
X139535533Y-61822223D01*
X139529758Y-61811418D01*
X139526201Y-61799693D01*
X139525000Y-61787500D01*
X139525000Y-61175888D01*
X139526201Y-61163695D01*
X139529758Y-61151970D01*
X139535533Y-61141165D01*
X139543306Y-61131694D01*
X139606694Y-61068306D01*
X139616165Y-61060533D01*
X139626970Y-61054758D01*
X139638695Y-61051201D01*
X139650888Y-61050000D01*
X139712500Y-61050000D01*
X139724693Y-61051201D01*
G37*
G36*
X139399693Y-60726201D02*
G01*
X139411418Y-60729758D01*
X139422223Y-60735533D01*
X139431694Y-60743306D01*
X139439467Y-60752777D01*
X139445242Y-60763582D01*
X139448799Y-60775307D01*
X139450000Y-60787500D01*
X139450000Y-60849112D01*
X139448799Y-60861305D01*
X139445242Y-60873030D01*
X139439467Y-60883835D01*
X139431694Y-60893306D01*
X139368306Y-60956694D01*
X139358835Y-60964467D01*
X139348030Y-60970242D01*
X139336305Y-60973799D01*
X139324112Y-60975000D01*
X138712500Y-60975000D01*
X138700307Y-60973799D01*
X138688582Y-60970242D01*
X138677777Y-60964467D01*
X138668306Y-60956694D01*
X138660533Y-60947223D01*
X138654758Y-60936418D01*
X138651201Y-60924693D01*
X138650000Y-60912500D01*
X138650000Y-60787500D01*
X138651201Y-60775307D01*
X138654758Y-60763582D01*
X138660533Y-60752777D01*
X138668306Y-60743306D01*
X138677777Y-60735533D01*
X138688582Y-60729758D01*
X138700307Y-60726201D01*
X138712500Y-60725000D01*
X139387500Y-60725000D01*
X139399693Y-60726201D01*
G37*
G36*
G01*
X138650000Y-60462500D02*
X138650000Y-60337500D01*
G75*
G02*
X138712500Y-60275000I62500J0D01*
G01*
X139387500Y-60275000D01*
G75*
G02*
X139450000Y-60337500I0J-62500D01*
G01*
X139450000Y-60462500D01*
G75*
G02*
X139387500Y-60525000I-62500J0D01*
G01*
X138712500Y-60525000D01*
G75*
G02*
X138650000Y-60462500I0J62500D01*
G01*
G37*
G36*
G01*
X138650000Y-60012500D02*
X138650000Y-59887500D01*
G75*
G02*
X138712500Y-59825000I62500J0D01*
G01*
X139387500Y-59825000D01*
G75*
G02*
X139450000Y-59887500I0J-62500D01*
G01*
X139450000Y-60012500D01*
G75*
G02*
X139387500Y-60075000I-62500J0D01*
G01*
X138712500Y-60075000D01*
G75*
G02*
X138650000Y-60012500I0J62500D01*
G01*
G37*
G36*
G01*
X138650000Y-59562500D02*
X138650000Y-59437500D01*
G75*
G02*
X138712500Y-59375000I62500J0D01*
G01*
X139387500Y-59375000D01*
G75*
G02*
X139450000Y-59437500I0J-62500D01*
G01*
X139450000Y-59562500D01*
G75*
G02*
X139387500Y-59625000I-62500J0D01*
G01*
X138712500Y-59625000D01*
G75*
G02*
X138650000Y-59562500I0J62500D01*
G01*
G37*
G36*
G01*
X138650000Y-59112500D02*
X138650000Y-58987500D01*
G75*
G02*
X138712500Y-58925000I62500J0D01*
G01*
X139387500Y-58925000D01*
G75*
G02*
X139450000Y-58987500I0J-62500D01*
G01*
X139450000Y-59112500D01*
G75*
G02*
X139387500Y-59175000I-62500J0D01*
G01*
X138712500Y-59175000D01*
G75*
G02*
X138650000Y-59112500I0J62500D01*
G01*
G37*
G36*
G01*
X138650000Y-58662500D02*
X138650000Y-58537500D01*
G75*
G02*
X138712500Y-58475000I62500J0D01*
G01*
X139387500Y-58475000D01*
G75*
G02*
X139450000Y-58537500I0J-62500D01*
G01*
X139450000Y-58662500D01*
G75*
G02*
X139387500Y-58725000I-62500J0D01*
G01*
X138712500Y-58725000D01*
G75*
G02*
X138650000Y-58662500I0J62500D01*
G01*
G37*
G36*
X139336305Y-58026201D02*
G01*
X139348030Y-58029758D01*
X139358835Y-58035533D01*
X139368306Y-58043306D01*
X139431694Y-58106694D01*
X139439467Y-58116165D01*
X139445242Y-58126970D01*
X139448799Y-58138695D01*
X139450000Y-58150888D01*
X139450000Y-58212500D01*
X139448799Y-58224693D01*
X139445242Y-58236418D01*
X139439467Y-58247223D01*
X139431694Y-58256694D01*
X139422223Y-58264467D01*
X139411418Y-58270242D01*
X139399693Y-58273799D01*
X139387500Y-58275000D01*
X138712500Y-58275000D01*
X138700307Y-58273799D01*
X138688582Y-58270242D01*
X138677777Y-58264467D01*
X138668306Y-58256694D01*
X138660533Y-58247223D01*
X138654758Y-58236418D01*
X138651201Y-58224693D01*
X138650000Y-58212500D01*
X138650000Y-58087500D01*
X138651201Y-58075307D01*
X138654758Y-58063582D01*
X138660533Y-58052777D01*
X138668306Y-58043306D01*
X138677777Y-58035533D01*
X138688582Y-58029758D01*
X138700307Y-58026201D01*
X138712500Y-58025000D01*
X139324112Y-58025000D01*
X139336305Y-58026201D01*
G37*
G36*
G01*
X141115000Y-60342500D02*
X141115000Y-59857500D01*
G75*
G02*
X141357500Y-59615000I242500J0D01*
G01*
X141842500Y-59615000D01*
G75*
G02*
X142085000Y-59857500I0J-242500D01*
G01*
X142085000Y-60342500D01*
G75*
G02*
X141842500Y-60585000I-242500J0D01*
G01*
X141357500Y-60585000D01*
G75*
G02*
X141115000Y-60342500I0J242500D01*
G01*
G37*
G36*
G01*
X141115000Y-59142500D02*
X141115000Y-58657500D01*
G75*
G02*
X141357500Y-58415000I242500J0D01*
G01*
X141842500Y-58415000D01*
G75*
G02*
X142085000Y-58657500I0J-242500D01*
G01*
X142085000Y-59142500D01*
G75*
G02*
X141842500Y-59385000I-242500J0D01*
G01*
X141357500Y-59385000D01*
G75*
G02*
X141115000Y-59142500I0J242500D01*
G01*
G37*
G36*
G01*
X139915000Y-60342500D02*
X139915000Y-59857500D01*
G75*
G02*
X140157500Y-59615000I242500J0D01*
G01*
X140642500Y-59615000D01*
G75*
G02*
X140885000Y-59857500I0J-242500D01*
G01*
X140885000Y-60342500D01*
G75*
G02*
X140642500Y-60585000I-242500J0D01*
G01*
X140157500Y-60585000D01*
G75*
G02*
X139915000Y-60342500I0J242500D01*
G01*
G37*
G36*
G01*
X139915000Y-59142500D02*
X139915000Y-58657500D01*
G75*
G02*
X140157500Y-58415000I242500J0D01*
G01*
X140642500Y-58415000D01*
G75*
G02*
X140885000Y-58657500I0J-242500D01*
G01*
X140885000Y-59142500D01*
G75*
G02*
X140642500Y-59385000I-242500J0D01*
G01*
X140157500Y-59385000D01*
G75*
G02*
X139915000Y-59142500I0J242500D01*
G01*
G37*
D12*
X155475000Y-53750000D03*
X155475000Y-49250000D03*
X147525000Y-49250000D03*
X147525000Y-53750000D03*
G36*
G01*
X146243750Y-60350000D02*
X146756250Y-60350000D01*
G75*
G02*
X146975000Y-60568750I0J-218750D01*
G01*
X146975000Y-61006250D01*
G75*
G02*
X146756250Y-61225000I-218750J0D01*
G01*
X146243750Y-61225000D01*
G75*
G02*
X146025000Y-61006250I0J218750D01*
G01*
X146025000Y-60568750D01*
G75*
G02*
X146243750Y-60350000I218750J0D01*
G01*
G37*
G36*
G01*
X146243750Y-58775000D02*
X146756250Y-58775000D01*
G75*
G02*
X146975000Y-58993750I0J-218750D01*
G01*
X146975000Y-59431250D01*
G75*
G02*
X146756250Y-59650000I-218750J0D01*
G01*
X146243750Y-59650000D01*
G75*
G02*
X146025000Y-59431250I0J218750D01*
G01*
X146025000Y-58993750D01*
G75*
G02*
X146243750Y-58775000I218750J0D01*
G01*
G37*
G36*
G01*
X140743750Y-54850000D02*
X141256250Y-54850000D01*
G75*
G02*
X141475000Y-55068750I0J-218750D01*
G01*
X141475000Y-55506250D01*
G75*
G02*
X141256250Y-55725000I-218750J0D01*
G01*
X140743750Y-55725000D01*
G75*
G02*
X140525000Y-55506250I0J218750D01*
G01*
X140525000Y-55068750D01*
G75*
G02*
X140743750Y-54850000I218750J0D01*
G01*
G37*
G36*
G01*
X140743750Y-53275000D02*
X141256250Y-53275000D01*
G75*
G02*
X141475000Y-53493750I0J-218750D01*
G01*
X141475000Y-53931250D01*
G75*
G02*
X141256250Y-54150000I-218750J0D01*
G01*
X140743750Y-54150000D01*
G75*
G02*
X140525000Y-53931250I0J218750D01*
G01*
X140525000Y-53493750D01*
G75*
G02*
X140743750Y-53275000I218750J0D01*
G01*
G37*
G36*
G01*
X139743750Y-65050000D02*
X140256250Y-65050000D01*
G75*
G02*
X140475000Y-65268750I0J-218750D01*
G01*
X140475000Y-65706250D01*
G75*
G02*
X140256250Y-65925000I-218750J0D01*
G01*
X139743750Y-65925000D01*
G75*
G02*
X139525000Y-65706250I0J218750D01*
G01*
X139525000Y-65268750D01*
G75*
G02*
X139743750Y-65050000I218750J0D01*
G01*
G37*
G36*
G01*
X139743750Y-63475000D02*
X140256250Y-63475000D01*
G75*
G02*
X140475000Y-63693750I0J-218750D01*
G01*
X140475000Y-64131250D01*
G75*
G02*
X140256250Y-64350000I-218750J0D01*
G01*
X139743750Y-64350000D01*
G75*
G02*
X139525000Y-64131250I0J218750D01*
G01*
X139525000Y-63693750D01*
G75*
G02*
X139743750Y-63475000I218750J0D01*
G01*
G37*
G36*
G01*
X141243750Y-65050000D02*
X141756250Y-65050000D01*
G75*
G02*
X141975000Y-65268750I0J-218750D01*
G01*
X141975000Y-65706250D01*
G75*
G02*
X141756250Y-65925000I-218750J0D01*
G01*
X141243750Y-65925000D01*
G75*
G02*
X141025000Y-65706250I0J218750D01*
G01*
X141025000Y-65268750D01*
G75*
G02*
X141243750Y-65050000I218750J0D01*
G01*
G37*
G36*
G01*
X141243750Y-63475000D02*
X141756250Y-63475000D01*
G75*
G02*
X141975000Y-63693750I0J-218750D01*
G01*
X141975000Y-64131250D01*
G75*
G02*
X141756250Y-64350000I-218750J0D01*
G01*
X141243750Y-64350000D01*
G75*
G02*
X141025000Y-64131250I0J218750D01*
G01*
X141025000Y-63693750D01*
G75*
G02*
X141243750Y-63475000I218750J0D01*
G01*
G37*
G36*
G01*
X136243750Y-60350000D02*
X136756250Y-60350000D01*
G75*
G02*
X136975000Y-60568750I0J-218750D01*
G01*
X136975000Y-61006250D01*
G75*
G02*
X136756250Y-61225000I-218750J0D01*
G01*
X136243750Y-61225000D01*
G75*
G02*
X136025000Y-61006250I0J218750D01*
G01*
X136025000Y-60568750D01*
G75*
G02*
X136243750Y-60350000I218750J0D01*
G01*
G37*
G36*
G01*
X136243750Y-58775000D02*
X136756250Y-58775000D01*
G75*
G02*
X136975000Y-58993750I0J-218750D01*
G01*
X136975000Y-59431250D01*
G75*
G02*
X136756250Y-59650000I-218750J0D01*
G01*
X136243750Y-59650000D01*
G75*
G02*
X136025000Y-59431250I0J218750D01*
G01*
X136025000Y-58993750D01*
G75*
G02*
X136243750Y-58775000I218750J0D01*
G01*
G37*
M02*
